{
.appVersion = "1192";
DisplayStrings = (
"Saskatchewan\012Xenomorphg\012Phase\012React Native\012MARNING WARNING",
"Korx\012Xanax\012Komkommer",
" ",
"ABCDEFGHIJKLMNOPQRSTUVWXYZ\012abcdefghijklmnopqrstuvwxyz",
"Á",
"/dotaccentcomb i/dieresiscomb AÄ",
yorkshire,
"yý",
"aA!?//()-/endash/emdash _",
":",
"a,;",
"a,a,a/quotedblleft a/quotedblleft/quotedblright aa/quotedblright/quoteright/quotedblleft/quoteleft/quoteright",
es,
"/jdotless",
"/Ydieresis",
"1247691246"
);
customParameters = (
{
name = Axes;
value = "New Value";
}
);
date = "2018-03-21 11:27:33 +0000";
designer = "Sebastian Graz";
designerURL = graz.io;
familyName = Alphorn;
featurePrefixes = (
{
automatic = 1;
code = "languagesystem DFLT dflt;\012";
name = Languagesystems;
}
);
fontMaster = (
{
alignmentZones = (
"{670, 16}",
"{500, 16}",
"{-16, 16}",
"{-196, 16}"
);
ascender = 750;
capHeight = 670;
descender = -180;
horizontalStems = (
156
);
id = "FBD32BA2-3DE3-41DC-83E1-8A694E18FAAC";
userData = {
GSCornerRadius = 52;
};
verticalStems = (
196
);
visible = 1;
weight = Bold;
weightValue = 196;
xHeight = 500;
},
{
alignmentZones = (
"{670, 8}",
"{500, 8}",
"{-8, 8}",
"{-168, 8}"
);
ascender = 750;
capHeight = 670;
custom = Thin;
descender = -160;
horizontalStems = (
38
);
iconName = Light;
id = "061FC23D-6DC8-4BE4-BEC8-2F5AB93B127B";
userData = {
GSCornerRadius = 52;
};
verticalStems = (
40
);
visible = 1;
weightValue = 40;
xHeight = 500;
}
);
glyphs = (
{
glyphname = A;
lastChange = "2019-02-05 08:12:47 +0000";
layers = (
{
anchors = (
{
name = top;
position = "{363, 686}";
}
);
layerId = "FBD32BA2-3DE3-41DC-83E1-8A694E18FAAC";
paths = (
{
closed = 1;
nodes = (
"212 0 LINE",
"294 214 LINE",
"178 127 LINE",
"545 127 LINE",
"429 214 LINE",
"510 0 LINE",
"725 0 LINE",
"464 670 LINE",
"257 670 LINE",
"-4 0 LINE"
);
},
{
closed = 1;
nodes = (
"363 475 LINE",
"458 182 LINE",
"500 266 LINE",
"224 266 LINE",
"265 183 LINE"
);
}
);
width = 721;
},
{
associatedMasterId = "FBD32BA2-3DE3-41DC-83E1-8A694E18FAAC";
layerId = "CE5ED305-9415-4489-8A52-5C74424FA20F";
name = "Mar 23 18, 14:10";
paths = (
{
closed = 1;
nodes = (
"172 0 LINE",
"287 438 LINE",
"400 0 LINE",
"577 0 LINE",
"370 670 LINE",
"203 670 LINE",
"-4 0 LINE"
);
},
{
closed = 1;
nodes = (
"449 135 LINE",
"449 223 LINE",
"135 223 LINE",
"135 135 LINE"
);
}
);
width = 573;
},
{
associatedMasterId = "FBD32BA2-3DE3-41DC-83E1-8A694E18FAAC";
layerId = "555BD9F4-FBE7-4570-9FF3-A29E9E62C8A1";
name = "Sep 1 18, 21:34";
paths = (
{
closed = 1;
nodes = (
"199 0 LINE",
"297 446 LINE",
"394 0 LINE",
"597 0 LINE",
"400 670 LINE",
"193 670 LINE",
"-4 0 LINE"
);
},
{
closed = 1;
nodes = (
"463 91 LINE",
"463 227 LINE",
"141 227 LINE",
"141 91 LINE"
);
}
);
width = 593;
},
{
associatedMasterId = "FBD32BA2-3DE3-41DC-83E1-8A694E18FAAC";
layerId = "617B03C2-BE1E-4CFD-9B05-7BAC8CB01767";
name = "Nov 10 18, 00:49";
paths = (
{
closed = 1;
nodes = (
"209 0 LINE",
"307 446 LINE",
"310 434 LINE",
"404 0 LINE",
"607 0 LINE",
"410 670 LINE",
"203 670 LINE",
"6 0 LINE"
);
},
{
closed = 1;
nodes = (
"473 91 LINE",
"473 227 LINE",
"151 227 LINE",
"151 91 LINE"
);
}
);
width = 613;
},
{
associatedMasterId = "FBD32BA2-3DE3-41DC-83E1-8A694E18FAAC";
layerId = "6392AF3F-932C-4095-A09B-C55E97787D43";
name = "Dec 4 18, 00:23";
paths = (
{
closed = 1;
nodes = (
"209 0 LINE",
"347 446 LINE",
"484 0 LINE",
"687 0 LINE",
"450 670 LINE",
"243 670 LINE",
"6 0 LINE"
);
},
{
closed = 1;
nodes = (
"513 91 LINE",
"513 227 LINE",
"191 227 LINE",
"191 91 LINE"
);
}
);
width = 693;
},
{
anchors = (
{
name = top;
position = "{332, 686}";
}
);
layerId = "061FC23D-6DC8-4BE4-BEC8-2F5AB93B127B";
paths = (
{
closed = 1;
nodes = (
"43 0 LINE",
"162 263 LINE",
"137 247 LINE",
"527 247 LINE",
"502 263 LINE",
"621 0 LINE",
"668 0 LINE",
"356 670 LINE",
"308 670 LINE",
"-4 0 LINE"
);
},
{
closed = 1;
nodes = (
"332 635 LINE",
"497 271 LINE",
"508 287 LINE",
"156 287 LINE",
"167 271 LINE"
);
}
);
width = 664;
},
{
associatedMasterId = "061FC23D-6DC8-4BE4-BEC8-2F5AB93B127B";
layerId = "D702161F-5175-4585-B56B-ECDD9F1A8952";
name = "Mar 23 18, 14:10";
paths = (
{
closed = 1;
nodes = (
"172 0 LINE",
"287 438 LINE",
"400 0 LINE",
"577 0 LINE",
"370 670 LINE",
"203 670 LINE",
"-4 0 LINE"
);
},
{
closed = 1;
nodes = (
"449 135 LINE",
"449 223 LINE",
"135 223 LINE",
"135 135 LINE"
);
}
);
width = 573;
},
{
associatedMasterId = "061FC23D-6DC8-4BE4-BEC8-2F5AB93B127B";
layerId = "281E33DA-2521-4F8F-95BC-C93A70355B46";
name = "Sep 1 18, 21:34";
paths = (
{
closed = 1;
nodes = (
"199 0 LINE",
"297 446 LINE",
"394 0 LINE",
"597 0 LINE",
"400 670 LINE",
"193 670 LINE",
"-4 0 LINE"
);
},
{
closed = 1;
nodes = (
"463 91 LINE",
"463 227 LINE",
"141 227 LINE",
"141 91 LINE"
);
}
);
width = 593;
},
{
associatedMasterId = "061FC23D-6DC8-4BE4-BEC8-2F5AB93B127B";
layerId = "3FE05412-4851-4741-BA41-F5C3F7A4CCA1";
name = "Nov 10 18, 00:49";
paths = (
{
closed = 1;
nodes = (
"209 0 LINE",
"307 446 LINE",
"310 434 LINE",
"404 0 LINE",
"607 0 LINE",
"410 670 LINE",
"203 670 LINE",
"6 0 LINE"
);
},
{
closed = 1;
nodes = (
"473 91 LINE",
"473 227 LINE",
"151 227 LINE",
"151 91 LINE"
);
}
);
width = 613;
},
{
associatedMasterId = "061FC23D-6DC8-4BE4-BEC8-2F5AB93B127B";
layerId = "37D03ACA-03C7-4ADE-9489-278CB3579E3B";
name = "Dec 4 18, 00:23";
paths = (
{
closed = 1;
nodes = (
"209 0 LINE",
"347 446 LINE",
"484 0 LINE",
"687 0 LINE",
"450 670 LINE",
"243 670 LINE",
"6 0 LINE"
);
},
{
closed = 1;
nodes = (
"513 91 LINE",
"513 227 LINE",
"191 227 LINE",
"191 91 LINE"
);
}
);
width = 693;
}
);
leftKerningGroup = A;
leftMetricsKey = V;
rightKerningGroup = A;
rightMetricsKey = V;
unicode = 0041;
},
{
color = 2;
glyphname = B;
lastChange = "2019-02-03 21:22:33 +0000";
layers = (
{
layerId = "FBD32BA2-3DE3-41DC-83E1-8A694E18FAAC";
paths = (
{
closed = 1;
nodes = (
"326 0 LINE SMOOTH",
"525 0 OFFCURVE",
"597 95 OFFCURVE",
"597 183 CURVE SMOOTH",
"597 264 OFFCURVE",
"537 343 OFFCURVE",
"396 343 CURVE SMOOTH",
"175 343 LINE",
"175 0 LINE"
);
},
{
closed = 1;
nodes = (
"244 0 LINE",
"244 670 LINE",
"48 670 LINE",
"48 0 LINE"
);
},
{
closed = 1;
nodes = (
"244 532 LINE",
"280 532 LINE SMOOTH",
"349 532 OFFCURVE",
"375 506 OFFCURVE",
"375 464 CURVE SMOOTH",
"375 424 OFFCURVE",
"351 394 OFFCURVE",
"282 394 CURVE SMOOTH",
"244 394 LINE"
);
},
{
closed = 1;
nodes = (
"361 322 LINE",
"502 322 OFFCURVE",
"565 409 OFFCURVE",
"565 490 CURVE SMOOTH",
"565 585 OFFCURVE",
"479 670 OFFCURVE",
"338 670 CURVE SMOOTH",
"175 670 LINE",
"175 322 LINE"
);
},
{
closed = 1;
nodes = (
"244 281 LINE",
"306 281 LINE SMOOTH",
"366 281 OFFCURVE",
"396 255 OFFCURVE",
"396 213 CURVE SMOOTH",
"396 173 OFFCURVE",
"368 143 OFFCURVE",
"308 143 CURVE SMOOTH",
"244 143 LINE"
);
}
);
width = 607;
},
{
associatedMasterId = "FBD32BA2-3DE3-41DC-83E1-8A694E18FAAC";
layerId = "CADF22C1-BEF1-49D6-8ADB-760B20589203";
name = "Nov 6 18, 22:44";
paths = (
{
closed = 1;
nodes = (
"326 0 LINE SMOOTH",
"525 0 OFFCURVE",
"587 88 OFFCURVE",
"587 177 CURVE SMOOTH",
"587 257 OFFCURVE",
"537 343 OFFCURVE",
"396 343 CURVE SMOOTH",
"175 343 LINE",
"175 0 LINE"
);
},
{
closed = 1;
nodes = (
"244 0 LINE",
"244 670 LINE",
"48 670 LINE",
"48 0 LINE"
);
},
{
closed = 1;
nodes = (
"244 279 LINE",
"313 279 LINE SMOOTH",
"383 279 OFFCURVE",
"406 251 OFFCURVE",
"406 212 CURVE SMOOTH",
"406 177 OFFCURVE",
"386 144 OFFCURVE",
"306 144 CURVE SMOOTH",
"244 144 LINE"
);
},
{
closed = 1;
nodes = (
"244 526 LINE",
"280 526 LINE SMOOTH",
"349 526 OFFCURVE",
"375 498 OFFCURVE",
"375 454 CURVE SMOOTH",
"375 411 OFFCURVE",
"351 379 OFFCURVE",
"282 379 CURVE SMOOTH",
"244 379 LINE"
);
},
{
closed = 1;
nodes = (
"361 322 LINE",
"502 322 OFFCURVE",
"555 409 OFFCURVE",
"555 489 CURVE SMOOTH",
"555 585 OFFCURVE",
"479 670 OFFCURVE",
"338 670 CURVE SMOOTH",
"175 670 LINE",
"175 322 LINE"
);
}
);
width = 607;
},
{
layerId = "061FC23D-6DC8-4BE4-BEC8-2F5AB93B127B";
paths = (
{
closed = 1;
nodes = (
"332 0 LINE SMOOTH",
"481 0 OFFCURVE",
"557 85 OFFCURVE",
"557 174 CURVE SMOOTH",
"557 263 OFFCURVE",
"479 343 OFFCURVE",
"320 343 CURVE SMOOTH",
"65 343 LINE",
"65 0 LINE"
);
},
{
closed = 1;
nodes = (
"90 0 LINE",
"90 670 LINE",
"48 670 LINE",
"48 0 LINE"
);
},
{
closed = 1;
nodes = (
"84 632 LINE",
"310 632 LINE SMOOTH",
"408 632 OFFCURVE",
"480 583 OFFCURVE",
"480 491 CURVE SMOOTH",
"480 420 OFFCURVE",
"438 352 OFFCURVE",
"320 352 CURVE SMOOTH",
"84 352 LINE"
);
},
{
closed = 1;
nodes = (
"320 322 LINE",
"479 322 OFFCURVE",
"522 414 OFFCURVE",
"522 491 CURVE SMOOTH",
"522 590 OFFCURVE",
"452 670 OFFCURVE",
"311 670 CURVE SMOOTH",
"65 670 LINE",
"65 322 LINE"
);
},
{
closed = 1;
nodes = (
"84 314 LINE",
"320 314 LINE SMOOTH",
"438 314 OFFCURVE",
"515 255 OFFCURVE",
"515 174 CURVE SMOOTH",
"515 99 OFFCURVE",
"448 38 OFFCURVE",
"330 38 CURVE SMOOTH",
"84 38 LINE"
);
}
);
width = 567;
},
{
associatedMasterId = "061FC23D-6DC8-4BE4-BEC8-2F5AB93B127B";
layerId = "1A916FC2-908C-4A8A-8939-5A37F0058BCD";
name = "Nov 6 18, 22:44";
paths = (
{
closed = 1;
nodes = (
"326 0 LINE SMOOTH",
"525 0 OFFCURVE",
"587 88 OFFCURVE",
"587 177 CURVE SMOOTH",
"587 257 OFFCURVE",
"537 343 OFFCURVE",
"396 343 CURVE SMOOTH",
"175 343 LINE",
"175 0 LINE"
);
},
{
closed = 1;
nodes = (
"244 0 LINE",
"244 670 LINE",
"48 670 LINE",
"48 0 LINE"
);
},
{
closed = 1;
nodes = (
"244 279 LINE",
"313 279 LINE SMOOTH",
"383 279 OFFCURVE",
"406 251 OFFCURVE",
"406 212 CURVE SMOOTH",
"406 177 OFFCURVE",
"386 144 OFFCURVE",
"306 144 CURVE SMOOTH",
"244 144 LINE"
);
},
{
closed = 1;
nodes = (
"244 526 LINE",
"280 526 LINE SMOOTH",
"349 526 OFFCURVE",
"375 498 OFFCURVE",
"375 454 CURVE SMOOTH",
"375 411 OFFCURVE",
"351 379 OFFCURVE",
"282 379 CURVE SMOOTH",
"244 379 LINE"
);
},
{
closed = 1;
nodes = (
"361 322 LINE",
"502 322 OFFCURVE",
"555 409 OFFCURVE",
"555 489 CURVE SMOOTH",
"555 585 OFFCURVE",
"479 670 OFFCURVE",
"338 670 CURVE SMOOTH",
"175 670 LINE",
"175 322 LINE"
);
}
);
width = 607;
}
);
leftMetricsKey = H;
unicode = 0042;
},
{
color = 1;
glyphname = C;
lastChange = "2019-02-03 21:03:27 +0000";
layers = (
{
layerId = "FBD32BA2-3DE3-41DC-83E1-8A694E18FAAC";
paths = (
{
closed = 1;
nodes = (
"549 274 LINE",
"527 198 OFFCURVE",
"466 150 OFFCURVE",
"386 150 CURVE SMOOTH",
"286 150 OFFCURVE",
"216 225 OFFCURVE",
"216 336 CURVE SMOOTH",
"216 445 OFFCURVE",
"286 518 OFFCURVE",
"386 518 CURVE SMOOTH",
"470 518 OFFCURVE",
"533 466 OFFCURVE",
"551 386 CURVE",
"742 386 LINE",
"720 564 OFFCURVE",
"579 686 OFFCURVE",
"386 686 CURVE",
"175 686 OFFCURVE",
"20 541 OFFCURVE",
"20 336 CURVE SMOOTH",
"20 129 OFFCURVE",
"175 -16 OFFCURVE",
"386 -16 CURVE SMOOTH",
"575 -16 OFFCURVE",
"714 101 OFFCURVE",
"740 274 CURVE"
);
}
);
width = 762;
},
{
associatedMasterId = "FBD32BA2-3DE3-41DC-83E1-8A694E18FAAC";
layerId = "EF7FA5A8-2FB4-40E1-8B9D-C1C4591C58CF";
name = "Aug 5 18, 12:47";
paths = (
{
closed = 1;
nodes = (
"463 -16 OFFCURVE",
"613 71 OFFCURVE",
"613 306 CURVE",
"417 306 LINE",
"417 261 LINE SMOOTH",
"417 181 OFFCURVE",
"380 140 OFFCURVE",
"320 140 CURVE SMOOTH",
"259 140 OFFCURVE",
"222 181 OFFCURVE",
"222 261 CURVE SMOOTH",
"222 409 LINE SMOOTH",
"222 489 OFFCURVE",
"259 530 OFFCURVE",
"320 530 CURVE SMOOTH",
"378 530 OFFCURVE",
"417 492 OFFCURVE",
"417 409 CURVE SMOOTH",
"417 376 LINE",
"613 376 LINE",
"613 603 OFFCURVE",
"462 686 OFFCURVE",
"320 686 CURVE SMOOTH",
"174 686 OFFCURVE",
"26 599 OFFCURVE",
"26 362 CURVE SMOOTH",
"26 310 LINE SMOOTH",
"26 73 OFFCURVE",
"174 -16 OFFCURVE",
"320 -16 CURVE SMOOTH"
);
}
);
width = 639;
},
{
layerId = "061FC23D-6DC8-4BE4-BEC8-2F5AB93B127B";
paths = (
{
closed = 1;
nodes = (
"686 235 LINE",
"655 104 OFFCURVE",
"533 24 OFFCURVE",
"386 24 CURVE SMOOTH",
"204 24 OFFCURVE",
"62 147 OFFCURVE",
"62 336 CURVE SMOOTH",
"62 525 OFFCURVE",
"204 648 OFFCURVE",
"385 648 CURVE SMOOTH",
"531 648 OFFCURVE",
"652 568 OFFCURVE",
"685 439 CURVE",
"729 439 LINE",
"696 589 OFFCURVE",
"560 686 OFFCURVE",
"386 686 CURVE SMOOTH",
"175 686 OFFCURVE",
"20 542 OFFCURVE",
"20 336 CURVE SMOOTH",
"20 130 OFFCURVE",
"175 -16 OFFCURVE",
"386 -16 CURVE SMOOTH",
"561 -16 OFFCURVE",
"698 84 OFFCURVE",
"730 235 CURVE"
);
}
);
width = 750;
},
{
associatedMasterId = "061FC23D-6DC8-4BE4-BEC8-2F5AB93B127B";
layerId = "F7D0BC8B-151B-457A-A32C-B947F9FE0ACB";
name = "Aug 5 18, 12:47";
paths = (
{
closed = 1;
nodes = (
"463 -16 OFFCURVE",
"613 71 OFFCURVE",
"613 306 CURVE",
"417 306 LINE",
"417 261 LINE SMOOTH",
"417 181 OFFCURVE",
"380 140 OFFCURVE",
"320 140 CURVE SMOOTH",
"259 140 OFFCURVE",
"222 181 OFFCURVE",
"222 261 CURVE SMOOTH",
"222 409 LINE SMOOTH",
"222 489 OFFCURVE",
"259 530 OFFCURVE",
"320 530 CURVE SMOOTH",
"378 530 OFFCURVE",
"417 492 OFFCURVE",
"417 409 CURVE SMOOTH",
"417 376 LINE",
"613 376 LINE",
"613 603 OFFCURVE",
"462 686 OFFCURVE",
"320 686 CURVE SMOOTH",
"174 686 OFFCURVE",
"26 599 OFFCURVE",
"26 362 CURVE SMOOTH",
"26 310 LINE SMOOTH",
"26 73 OFFCURVE",
"174 -16 OFFCURVE",
"320 -16 CURVE SMOOTH"
);
}
);
width = 639;
},
{
associatedMasterId = "061FC23D-6DC8-4BE4-BEC8-2F5AB93B127B";
layerId = "35092873-C384-4142-8297-6033EFC83D49";
name = "Jan 29 19, 10:17";
paths = (
{
closed = 1;
nodes = (
"549 274 LINE",
"527 198 OFFCURVE",
"466 150 OFFCURVE",
"386 150 CURVE SMOOTH",
"286 150 OFFCURVE",
"216 225 OFFCURVE",
"216 336 CURVE SMOOTH",
"216 445 OFFCURVE",
"286 518 OFFCURVE",
"386 518 CURVE SMOOTH",
"470 518 OFFCURVE",
"533 466 OFFCURVE",
"551 386 CURVE",
"742 386 LINE",
"720 564 OFFCURVE",
"579 686 OFFCURVE",
"386 686 CURVE",
"175 686 OFFCURVE",
"20 541 OFFCURVE",
"20 336 CURVE SMOOTH",
"20 129 OFFCURVE",
"175 -16 OFFCURVE",
"386 -16 CURVE SMOOTH",
"575 -16 OFFCURVE",
"714 101 OFFCURVE",
"740 274 CURVE"
);
}
);
width = 762;
}
);
leftKerningGroup = upRounded;
leftMetricsKey = O;
rightKerningGroup = upRounded;
rightMetricsKey = O;
unicode = 0043;
},
{
glyphname = D;
lastChange = "2019-01-27 11:59:21 +0000";
layers = (
{
layerId = "FBD32BA2-3DE3-41DC-83E1-8A694E18FAAC";
paths = (
{
closed = 1;
nodes = (
"244 0 LINE",
"244 670 LINE",
"48 670 LINE",
"48 0 LINE"
);
},
{
closed = 1;
nodes = (
"234 514 LINE",
"278 514 LINE SMOOTH",
"407 514 OFFCURVE",
"458 443 OFFCURVE",
"458 337 CURVE SMOOTH",
"458 203 OFFCURVE",
"374 156 OFFCURVE",
"278 156 CURVE SMOOTH",
"234 156 LINE",
"234 0 LINE",
"295 0 LINE SMOOTH",
"516 0 OFFCURVE",
"654 130 OFFCURVE",
"654 338 CURVE SMOOTH",
"654 537 OFFCURVE",
"516 670 OFFCURVE",
"295 670 CURVE SMOOTH",
"234 670 LINE"
);
}
);
width = 674;
},
{
layerId = "061FC23D-6DC8-4BE4-BEC8-2F5AB93B127B";
paths = (
{
closed = 1;
nodes = (
"90 0 LINE",
"90 670 LINE",
"48 670 LINE",
"48 0 LINE"
);
},
{
closed = 1;
nodes = (
"80 630 LINE",
"188 630 LINE SMOOTH",
"474 630 OFFCURVE",
"535 449 OFFCURVE",
"535 329 CURVE SMOOTH",
"535 209 OFFCURVE",
"474 40 OFFCURVE",
"188 40 CURVE SMOOTH",
"80 40 LINE",
"80 0 LINE",
"188 0 LINE SMOOTH",
"496 0 OFFCURVE",
"577 180 OFFCURVE",
"577 329 CURVE SMOOTH",
"577 478 OFFCURVE",
"496 670 OFFCURVE",
"188 670 CURVE SMOOTH",
"80 670 LINE"
);
}
);
width = 597;
}
);
leftMetricsKey = H;
rightKerningGroup = upRounded;
rightMetricsKey = O;
unicode = 0044;
},
{
color = 2;
glyphname = E;
lastChange = "2019-02-05 08:13:10 +0000";
layers = (
{
anchors = (
{
name = top;
position = "{249, 686}";
}
);
layerId = "FBD32BA2-3DE3-41DC-83E1-8A694E18FAAC";
paths = (
{
closed = 1;
nodes = (
"244 0 LINE",
"244 670 LINE",
"48 670 LINE",
"48 0 LINE"
);
},
{
closed = 1;
nodes = (
"469 0 LINE",
"469 156 LINE",
"155 156 LINE",
"155 0 LINE"
);
},
{
closed = 1;
nodes = (
"456 270 LINE",
"456 414 LINE",
"155 414 LINE",
"155 270 LINE"
);
},
{
closed = 1;
nodes = (
"469 514 LINE",
"469 670 LINE",
"155 670 LINE",
"155 514 LINE"
);
}
);
width = 517;
},
{
anchors = (
{
name = top;
position = "{260, 686}";
}
);
layerId = "061FC23D-6DC8-4BE4-BEC8-2F5AB93B127B";
paths = (
{
closed = 1;
nodes = (
"90 0 LINE",
"90 670 LINE",
"48 670 LINE",
"48 0 LINE"
);
},
{
closed = 1;
nodes = (
"469 0 LINE",
"469 40 LINE",
"85 40 LINE",
"85 0 LINE"
);
},
{
closed = 1;
nodes = (
"456 322 LINE",
"456 362 LINE",
"85 362 LINE",
"85 322 LINE"
);
},
{
closed = 1;
nodes = (
"469 630 LINE",
"469 670 LINE",
"85 670 LINE",
"85 630 LINE"
);
}
);
width = 517;
}
);
leftMetricsKey = H;
rightMetricsKey = "=H";
unicode = 0045;
},
{
color = 2;
glyphname = F;
lastChange = "2019-01-27 12:00:45 +0000";
layers = (
{
layerId = "FBD32BA2-3DE3-41DC-83E1-8A694E18FAAC";
paths = (
{
closed = 1;
nodes = (
"244 0 LINE",
"244 670 LINE",
"48 670 LINE",
"48 0 LINE"
);
},
{
closed = 1;
nodes = (
"469 256 LINE",
"469 400 LINE",
"160 400 LINE",
"160 256 LINE"
);
},
{
closed = 1;
nodes = (
"479 514 LINE",
"479 670 LINE",
"155 670 LINE",
"155 514 LINE"
);
}
);
width = 507;
},
{
layerId = "061FC23D-6DC8-4BE4-BEC8-2F5AB93B127B";
paths = (
{
closed = 1;
nodes = (
"88 0 LINE",
"88 670 LINE",
"48 670 LINE",
"48 0 LINE"
);
},
{
closed = 1;
nodes = (
"469 322 LINE",
"469 362 LINE",
"80 362 LINE",
"80 322 LINE"
);
},
{
closed = 1;
nodes = (
"479 630 LINE",
"479 670 LINE",
"75 670 LINE",
"75 630 LINE"
);
}
);
width = 507;
}
);
leftMetricsKey = H;
rightMetricsKey = "=H-20";
unicode = 0046;
},
{
color = 1;
glyphname = G;
lastChange = "2019-02-03 21:03:27 +0000";
layers = (
{
background = {
paths = (
{
closed = 0;
nodes = (
"740 274 LINE SMOOTH"
);
},
{
closed = 0;
nodes = (
"418 258 LINE"
);
}
);
};
layerId = "FBD32BA2-3DE3-41DC-83E1-8A694E18FAAC";
paths = (
{
closed = 1;
nodes = (
"575 -16 OFFCURVE",
"720 129 OFFCURVE",
"720 314 CURVE SMOOTH",
"720 372 LINE",
"365 372 LINE",
"365 170 LINE",
"297 238 LINE",
"622 238 LINE",
"529 276 LINE",
"545 273 OFFCURVE",
"528 150 OFFCURVE",
"389 150 CURVE SMOOTH",
"282 150 OFFCURVE",
"216 225 OFFCURVE",
"216 336 CURVE SMOOTH",
"216 445 OFFCURVE",
"276 518 OFFCURVE",
"376 518 CURVE SMOOTH",
"439 518 OFFCURVE",
"500 489 OFFCURVE",
"517 422 CURVE",
"716 422 LINE",
"688 592 OFFCURVE",
"548 686 OFFCURVE",
"376 686 CURVE SMOOTH",
"165 686 OFFCURVE",
"20 541 OFFCURVE",
"20 336 CURVE SMOOTH",
"20 129 OFFCURVE",
"175 -16 OFFCURVE",
"376 -16 CURVE SMOOTH"
);
}
);
width = 740;
},
{
associatedMasterId = "FBD32BA2-3DE3-41DC-83E1-8A694E18FAAC";
layerId = "9B7D96F4-3583-4B19-9058-4C3DBD230214";
name = "Aug 5 18, 12:52";
paths = (
{
closed = 1;
nodes = (
"465 -16 OFFCURVE",
"600 74 OFFCURVE",
"600 320 CURVE SMOOTH",
"600 371 LINE",
"313 371 LINE",
"313 258 LINE",
"406 258 LINE",
"406 182 OFFCURVE",
"374 140 OFFCURVE",
"313 140 CURVE SMOOTH",
"253 140 OFFCURVE",
"212 181 OFFCURVE",
"212 261 CURVE SMOOTH",
"212 409 LINE SMOOTH",
"212 489 OFFCURVE",
"256 529 OFFCURVE",
"312 529 CURVE SMOOTH",
"367 529 OFFCURVE",
"401 489 OFFCURVE",
"401 427 CURVE",
"588 427 LINE",
"588 595 OFFCURVE",
"455 686 OFFCURVE",
"311 686 CURVE SMOOTH",
"164 686 OFFCURVE",
"16 600 OFFCURVE",
"16 362 CURVE SMOOTH",
"16 310 LINE SMOOTH",
"16 73 OFFCURVE",
"166 -16 OFFCURVE",
"312 -16 CURVE SMOOTH"
);
}
);
width = 612;
},
{
background = {
paths = (
{
closed = 0;
nodes = (
"740 274 LINE SMOOTH"
);
},
{
closed = 0;
nodes = (
"418 258 LINE"
);
}
);
};
layerId = "061FC23D-6DC8-4BE4-BEC8-2F5AB93B127B";
paths = (
{
closed = 1;
nodes = (
"564 -16 OFFCURVE",
"728 88 OFFCURVE",
"728 306 CURVE SMOOTH",
"728 313 LINE",
"386 313 LINE",
"386 253 LINE",
"368 275 LINE",
"703 275 LINE",
"685 284 LINE",
"685 99 OFFCURVE",
"528 24 OFFCURVE",
"386 24 CURVE SMOOTH",
"204 24 OFFCURVE",
"62 147 OFFCURVE",
"62 336 CURVE SMOOTH",
"62 525 OFFCURVE",
"204 648 OFFCURVE",
"385 648 CURVE SMOOTH",
"523 648 OFFCURVE",
"639 576 OFFCURVE",
"677 460 CURVE",
"722 460 LINE",
"683 597 OFFCURVE",
"552 686 OFFCURVE",
"386 686 CURVE SMOOTH",
"175 686 OFFCURVE",
"20 542 OFFCURVE",
"20 336 CURVE SMOOTH",
"20 130 OFFCURVE",
"175 -16 OFFCURVE",
"386 -16 CURVE SMOOTH"
);
}
);
width = 748;
},
{
associatedMasterId = "061FC23D-6DC8-4BE4-BEC8-2F5AB93B127B";
layerId = "59835483-7ECB-4824-8A2B-29440C61FFE1";
name = "Aug 5 18, 12:52";
paths = (
{
closed = 1;
nodes = (
"465 -16 OFFCURVE",
"600 74 OFFCURVE",
"600 320 CURVE SMOOTH",
"600 371 LINE",
"313 371 LINE",
"313 258 LINE",
"406 258 LINE",
"406 182 OFFCURVE",
"374 140 OFFCURVE",
"313 140 CURVE SMOOTH",
"253 140 OFFCURVE",
"212 181 OFFCURVE",
"212 261 CURVE SMOOTH",
"212 409 LINE SMOOTH",
"212 489 OFFCURVE",
"256 529 OFFCURVE",
"312 529 CURVE SMOOTH",
"367 529 OFFCURVE",
"401 489 OFFCURVE",
"401 427 CURVE",
"588 427 LINE",
"588 595 OFFCURVE",
"455 686 OFFCURVE",
"311 686 CURVE SMOOTH",
"164 686 OFFCURVE",
"16 600 OFFCURVE",
"16 362 CURVE SMOOTH",
"16 310 LINE SMOOTH",
"16 73 OFFCURVE",
"166 -16 OFFCURVE",
"312 -16 CURVE SMOOTH"
);
}
);
width = 612;
}
);
leftKerningGroup = upRounded;
leftMetricsKey = O;
rightKerningGroup = upRounded;
rightMetricsKey = "=O";
unicode = 0047;
},
{
color = 2;
glyphname = H;
lastChange = "2019-03-27 20:30:05 +0000";
layers = (
{
layerId = "FBD32BA2-3DE3-41DC-83E1-8A694E18FAAC";
paths = (
{
closed = 1;
nodes = (
"644 0 LINE",
"644 670 LINE",
"448 670 LINE",
"448 0 LINE"
);
},
{
closed = 1;
nodes = (
"244 0 LINE",
"244 670 LINE",
"48 670 LINE",
"48 0 LINE"
);
},
{
closed = 1;
nodes = (
"489 248 LINE",
"489 404 LINE",
"175 404 LINE",
"175 248 LINE"
);
}
);
width = 692;
},
{
layerId = "061FC23D-6DC8-4BE4-BEC8-2F5AB93B127B";
paths = (
{
closed = 1;
nodes = (
"520 0 LINE",
"520 670 LINE",
"476 670 LINE",
"476 0 LINE"
);
},
{
closed = 1;
nodes = (
"90 0 LINE",
"90 670 LINE",
"46 670 LINE",
"46 0 LINE"
);
},
{
closed = 1;
nodes = (
"484 322 LINE",
"484 362 LINE",
"74 362 LINE",
"74 322 LINE"
);
}
);
width = 566;
}
);
unicode = 0048;
},
{
color = 2;
glyphname = I;
lastChange = "2019-02-05 08:13:16 +0000";
layers = (
{
anchors = (
{
name = top;
position = "{148, 686}";
}
);
layerId = "FBD32BA2-3DE3-41DC-83E1-8A694E18FAAC";
paths = (
{
closed = 1;
nodes = (
"244 0 LINE",
"244 670 LINE",
"48 670 LINE",
"48 0 LINE"
);
}
);
width = 292;
},
{
anchors = (
{
name = top;
position = "{66, 686}";
}
);
layerId = "061FC23D-6DC8-4BE4-BEC8-2F5AB93B127B";
paths = (
{
closed = 1;
nodes = (
"88 0 LINE",
"88 670 LINE",
"48 670 LINE",
"48 0 LINE"
);
}
);
width = 136;
}
);
leftMetricsKey = H;
rightMetricsKey = H;
unicode = 0049;
},
{
glyphname = J;
lastChange = "2019-02-03 21:03:27 +0000";
layers = (
{
layerId = "FBD32BA2-3DE3-41DC-83E1-8A694E18FAAC";
paths = (
{
closed = 1;
nodes = (
"-4 0 LINE",
"62 0 OFFCURVE",
"97 0 OFFCURVE",
"102 0 CURVE SMOOTH",
"212 0 OFFCURVE",
"323 68 OFFCURVE",
"323 212 CURVE SMOOTH",
"323 670 LINE",
"127 670 LINE",
"127 204 LINE SMOOTH",
"127 168 OFFCURVE",
"112 156 OFFCURVE",
"73 156 CURVE SMOOTH",
"-4 156 LINE"
);
}
);
width = 371;
},
{
associatedMasterId = "FBD32BA2-3DE3-41DC-83E1-8A694E18FAAC";
layerId = "ADFBFDAB-FB2F-41F2-9E47-8ACB62430F69";
name = "Jul 31 18, 00:10";
paths = (
{
closed = 1;
nodes = (
"327 -16 OFFCURVE",
"438 52 OFFCURVE",
"438 196 CURVE SMOOTH",
"438 670 LINE",
"93 670 LINE",
"93 514 LINE",
"242 514 LINE",
"242 171 LINE SMOOTH",
"242 155 OFFCURVE",
"236 141 OFFCURVE",
"217 141 CURVE SMOOTH",
"199 141 OFFCURVE",
"192 155 OFFCURVE",
"192 171 CURVE SMOOTH",
"192 264 LINE",
"-4 264 LINE",
"-4 208 LINE SMOOTH",
"-4 52 OFFCURVE",
"107 -16 OFFCURVE",
"217 -16 CURVE SMOOTH"
);
}
);
width = 486;
},
{
layerId = "061FC23D-6DC8-4BE4-BEC8-2F5AB93B127B";
paths = (
{
closed = 1;
nodes = (
"-4 0 LINE",
"12 0 OFFCURVE",
"19 0 OFFCURVE",
"24 0 CURVE SMOOTH",
"164 0 OFFCURVE",
"273 48 OFFCURVE",
"273 212 CURVE SMOOTH",
"273 670 LINE",
"231 670 LINE",
"231 212 LINE SMOOTH",
"231 69 OFFCURVE",
"142 40 OFFCURVE",
"23 40 CURVE SMOOTH",
"-4 40 LINE"
);
}
);
width = 321;
},
{
associatedMasterId = "061FC23D-6DC8-4BE4-BEC8-2F5AB93B127B";
layerId = "7FB0A61F-F0B3-474A-BC16-07BBB1BAEA3E";
name = "Jul 31 18, 00:10";
paths = (
{
closed = 1;
nodes = (
"327 -16 OFFCURVE",
"438 52 OFFCURVE",
"438 196 CURVE SMOOTH",
"438 670 LINE",
"93 670 LINE",
"93 514 LINE",
"242 514 LINE",
"242 171 LINE SMOOTH",
"242 155 OFFCURVE",
"236 141 OFFCURVE",
"217 141 CURVE SMOOTH",
"199 141 OFFCURVE",
"192 155 OFFCURVE",
"192 171 CURVE SMOOTH",
"192 264 LINE",
"-4 264 LINE",
"-4 208 LINE SMOOTH",
"-4 52 OFFCURVE",
"107 -16 OFFCURVE",
"217 -16 CURVE SMOOTH"
);
}
);
width = 486;
}
);
leftMetricsKey = V;
rightMetricsKey = H;
unicode = 004A;
},
{
color = 2;
glyphname = K;
lastChange = "2019-02-05 07:59:20 +0000";
layers = (
{
layerId = "FBD32BA2-3DE3-41DC-83E1-8A694E18FAAC";
paths = (
{
closed = 1;
nodes = (
"601 -1 LINE",
"559 164 LINE SMOOTH",
"533 267 OFFCURVE",
"441 335 OFFCURVE",
"326 336 CURVE",
"326 342 LINE",
"440 342 OFFCURVE",
"533 401 OFFCURVE",
"559 505 CURVE SMOOTH",
"601 670 LINE",
"433 670 LINE SMOOTH",
"395 670 OFFCURVE",
"374 653 OFFCURVE",
"367 616 CURVE SMOOTH",
"357 561 LINE SMOOTH",
"337 449 OFFCURVE",
"307 408 OFFCURVE",
"229 408 CURVE",
"229 261 LINE",
"307 261 OFFCURVE",
"337 220 OFFCURVE",
"357 108 CURVE SMOOTH",
"367 53 LINE SMOOTH",
"374 16 OFFCURVE",
"395 -1 OFFCURVE",
"433 -1 CURVE SMOOTH"
);
},
{
closed = 1;
nodes = (
"244 0 LINE",
"244 670 LINE",
"48 670 LINE",
"48 0 LINE"
);
}
);
width = 597;
},
{
associatedMasterId = "FBD32BA2-3DE3-41DC-83E1-8A694E18FAAC";
backgroundImage = {
crop = "{{0, 0}, {190, 287}}";
imagePath = "../../../Screen Shot 2018-09-03 at 22.19.29.png";
transform = "{3.36332, 0, 0, 3.36332, 17, -178.752}";
};
layerId = "CF1C6A33-DEBB-4873-B910-14AA4EC27711";
name = "Sep 3 18, 22:19";
paths = (
{
closed = 1;
nodes = (
"646 0 LINE",
"427 364 LINE",
"624 670 LINE",
"422 670 LINE",
"205 314 LINE",
"246 314 LINE",
"425 0 LINE"
);
},
{
closed = 1;
nodes = (
"244 0 LINE",
"244 670 LINE",
"48 670 LINE",
"48 0 LINE"
);
}
);
width = 642;
},
{
associatedMasterId = "FBD32BA2-3DE3-41DC-83E1-8A694E18FAAC";
backgroundImage = {
crop = "{{0, 0}, {190, 287}}";
imagePath = "../../../Screen Shot 2018-09-03 at 22.19.29.png";
locked = "1";
transform = "{3.36332, 0, 0, 3.36332, 17, -178.752}";
};
layerId = "3DFB5C43-27C5-4DEB-96D5-C10B4DC5DE7A";
name = "Sep 3 18, 22:28";
paths = (
{
closed = 1;
nodes = (
"244 0 LINE",
"244 670 LINE",
"48 670 LINE",
"48 0 LINE"
);
},
{
closed = 1;
nodes = (
"318 670 OFFCURVE",
"348 517 OFFCURVE",
"327 443 CURVE SMOOTH",
"320 418 OFFCURVE",
"303 408 OFFCURVE",
"280 408 CURVE SMOOTH",
"226 408 LINE",
"226 285 LINE",
"302 285 OFFCURVE",
"327 272 OFFCURVE",
"330 176 CURVE SMOOTH",
"332 95 OFFCURVE",
"330 16 OFFCURVE",
"363 0 CURVE",
"611 0 LINE",
"612 20 LINE",
"577 36 OFFCURVE",
"561 89 OFFCURVE",
"564 165 CURVE SMOOTH",
"567 240 OFFCURVE",
"549 352 OFFCURVE",
"326 352 CURVE",
"326 360 LINE",
"490 359 OFFCURVE",
"547 399 OFFCURVE",
"554 466 CURVE SMOOTH",
"561 524 OFFCURVE",
"547 625 OFFCURVE",
"603 647 CURVE",
"603 670 LINE",
"520 670 OFFCURVE",
"437 670 OFFCURVE",
"381 670 CURVE SMOOTH"
);
}
);
width = 608;
},
{
associatedMasterId = "FBD32BA2-3DE3-41DC-83E1-8A694E18FAAC";
backgroundImage = {
crop = "{{0, 0}, {190, 287}}";
imagePath = "../../../Screen Shot 2018-09-03 at 22.19.29.png";
locked = "1";
transform = "{3.36332, 0, 0, 3.36332, 17, -178.752}";
};
layerId = "DBE409F3-FD82-4D20-9C02-84A5FCB7F735";
name = "Sep 3 18, 22:46";
paths = (
{
closed = 1;
nodes = (
"244 0 LINE",
"244 670 LINE",
"48 670 LINE",
"48 0 LINE"
);
},
{
closed = 1;
nodes = (
"318 670 OFFCURVE",
"348 517 OFFCURVE",
"327 443 CURVE SMOOTH",
"320 418 OFFCURVE",
"303 408 OFFCURVE",
"280 408 CURVE SMOOTH",
"226 408 LINE",
"226 285 LINE",
"302 285 OFFCURVE",
"327 272 OFFCURVE",
"330 176 CURVE SMOOTH",
"332 95 OFFCURVE",
"330 16 OFFCURVE",
"363 0 CURVE",
"591 0 LINE",
"592 20 LINE",
"557 36 OFFCURVE",
"541 89 OFFCURVE",
"544 165 CURVE SMOOTH",
"547 240 OFFCURVE",
"529 352 OFFCURVE",
"326 352 CURVE",
"326 360 LINE",
"470 359 OFFCURVE",
"527 399 OFFCURVE",
"534 466 CURVE SMOOTH",
"540 524 OFFCURVE",
"527 625 OFFCURVE",
"583 647 CURVE",
"583 670 LINE",
"500 670 OFFCURVE",
"437 670 OFFCURVE",
"381 670 CURVE SMOOTH"
);
}
);
width = 588;
},
{
associatedMasterId = "FBD32BA2-3DE3-41DC-83E1-8A694E18FAAC";
backgroundImage = {
crop = "{{0, 0}, {190, 287}}";
imagePath = "../../../Screen Shot 2018-09-03 at 22.19.29.png";
locked = "1";
transform = "{3.36332, 0, 0, 3.36332, 17, -178.752}";
};
layerId = "7EA1D9A6-AE90-4EC1-82EF-4D4F5C4CD625";
name = "Sep 3 18, 22:52";
paths = (
{
closed = 1;
nodes = (
"244 0 LINE",
"244 670 LINE",
"48 670 LINE",
"48 0 LINE"
);
},
{
closed = 1;
nodes = (
"347 561 LINE SMOOTH",
"327 449 OFFCURVE",
"297 408 OFFCURVE",
"226 408 CURVE",
"226 285 LINE",
"272 285 OFFCURVE",
"304 268 OFFCURVE",
"329 177 CURVE SMOOTH",
"346 114 LINE SMOOTH",
"370 24 OFFCURVE",
"428 0 OFFCURVE",
"472 0 CURVE SMOOTH",
"591 0 LINE",
"534 156 LINE SMOOTH",
"505 235 OFFCURVE",
"449 342 OFFCURVE",
"366 342 CURVE",
"366 350 LINE",
"430 349 OFFCURVE",
"513 401 OFFCURVE",
"539 505 CURVE SMOOTH",
"581 670 LINE",
"423 670 LINE SMOOTH",
"385 670 OFFCURVE",
"363 653 OFFCURVE",
"357 616 CURVE SMOOTH"
);
}
);
width = 587;
},
{
layerId = "061FC23D-6DC8-4BE4-BEC8-2F5AB93B127B";
paths = (
{
closed = 1;
nodes = (
"536 -1 LINE",
"371 255 LINE SMOOTH",
"324 327 OFFCURVE",
"264 355 OFFCURVE",
"129 361 CURVE",
"129 366 LINE",
"264 370 OFFCURVE",
"319 409 OFFCURVE",
"354 460 CURVE SMOOTH",
"501 670 LINE",
"500 670 LINE SMOOTH",
"466 670 OFFCURVE",
"442 658 OFFCURVE",
"419 626 CURVE SMOOTH",
"318 484 LINE SMOOTH",
"265 410 OFFCURVE",
"198 388 OFFCURVE",
"70 388 CURVE",
"70 337 LINE",
"201 337 OFFCURVE",
"274 323 OFFCURVE",
"328 237 CURVE SMOOTH",
"447 47 LINE SMOOTH",
"470 10 OFFCURVE",
"504 -1 OFFCURVE",
"529 -1 CURVE SMOOTH"
);
},
{
closed = 1;
nodes = (
"90 0 LINE",
"90 670 LINE",
"48 670 LINE",
"48 0 LINE"
);
}
);
width = 532;
},
{
associatedMasterId = "061FC23D-6DC8-4BE4-BEC8-2F5AB93B127B";
layerId = "0236DF97-0192-49F2-9ED6-6973859526C4";
name = "Intermediate {100, 100}";
paths = (
{
closed = 1;
nodes = (
"561 -1 LINE",
"443 220 LINE SMOOTH",
"399 302 OFFCURVE",
"332 347 OFFCURVE",
"205 351 CURVE",
"205 357 LINE",
"332 359 OFFCURVE",
"395 408 OFFCURVE",
"433 477 CURVE SMOOTH",
"539 670 LINE",
"474 670 LINE SMOOTH",
"439 670 OFFCURVE",
"418 654 OFFCURVE",
"399 622 CURVE SMOOTH",
"336 514 LINE SMOOTH",
"286 429 OFFCURVE",
"240 396 OFFCURVE",
"131 396 CURVE",
"131 308 LINE",
"242 308 OFFCURVE",
"293 279 OFFCURVE",
"342 187 CURVE SMOOTH",
"416 49 LINE SMOOTH",
"435 13 OFFCURVE",
"462 -1 OFFCURVE",
"492 -1 CURVE SMOOTH"
);
},
{
closed = 1;
nodes = (
"149 0 LINE",
"149 670 LINE",
"48 670 LINE",
"48 0 LINE"
);
}
);
width = 557;
}
);
leftMetricsKey = H;
rightMetricsKey = V;
unicode = 004B;
},
{
color = 2;
glyphname = L;
lastChange = "2019-01-27 12:02:19 +0000";
layers = (
{
layerId = "FBD32BA2-3DE3-41DC-83E1-8A694E18FAAC";
paths = (
{
closed = 1;
nodes = (
"244 0 LINE",
"244 670 LINE",
"48 670 LINE",
"48 0 LINE"
);
},
{
closed = 1;
nodes = (
"499 0 LINE",
"499 156 LINE",
"135 156 LINE",
"135 0 LINE"
);
}
);
width = 504;
},
{
layerId = "061FC23D-6DC8-4BE4-BEC8-2F5AB93B127B";
paths = (
{
closed = 1;
nodes = (
"88 0 LINE",
"88 670 LINE",
"48 670 LINE",
"48 0 LINE"
);
},
{
closed = 1;
nodes = (
"499 0 LINE",
"499 40 LINE",
"66 40 LINE",
"66 0 LINE"
);
}
);
width = 504;
}
);
leftMetricsKey = H;
rightMetricsKey = "=V+9";
unicode = 004C;
},
{
color = 2;
glyphname = M;
lastChange = "2019-05-08 13:23:21 +0000";
layers = (
{
layerId = "FBD32BA2-3DE3-41DC-83E1-8A694E18FAAC";
paths = (
{
closed = 1;
nodes = (
"220 0 LINE",
"220 370 LINE",
"365 0 LINE",
"481 0 LINE",
"626 360 LINE",
"626 0 LINE",
"798 0 LINE",
"798 670 LINE",
"591 670 LINE",
"425 230 LINE",
"275 670 LINE",
"48 670 LINE",
"48 0 LINE"
);
}
);
width = 846;
},
{
layerId = "061FC23D-6DC8-4BE4-BEC8-2F5AB93B127B";
paths = (
{
closed = 1;
nodes = (
"90 0 LINE",
"90 593 LINE",
"375 70 LINE",
"396 70 LINE",
"681 593 LINE",
"681 0 LINE",
"723 0 LINE",
"723 670 LINE",
"677 670 LINE",
"386 131 LINE",
"94 670 LINE",
"48 670 LINE",
"48 0 LINE"
);
}
);
width = 771;
}
);
leftMetricsKey = H;
rightMetricsKey = H;
unicode = 004D;
},
{
glyphname = N;
lastChange = "2019-05-08 13:23:01 +0000";
layers = (
{
layerId = "FBD32BA2-3DE3-41DC-83E1-8A694E18FAAC";
paths = (
{
closed = 1;
nodes = (
"239 670 LINE",
"48 670 LINE",
"48 0 LINE",
"229 0 LINE",
"229 357 LINE",
"452 0 LINE",
"643 0 LINE",
"643 670 LINE",
"462 670 LINE",
"462 278 LINE"
);
}
);
width = 691;
},
{
associatedMasterId = "FBD32BA2-3DE3-41DC-83E1-8A694E18FAAC";
layerId = "299A0FFA-D631-4A80-A463-AB7A38B6E55C";
name = "Apr 12 18, 15:42";
paths = (
{
closed = 1;
nodes = (
"643 670 LINE",
"447 670 LINE",
"447 303 LINE",
"241 670 LINE",
"48 669 LINE",
"48 -1 LINE",
"244 0 LINE",
"244 345 LINE",
"441 0 LINE",
"643 0 LINE"
);
}
);
width = 691;
},
{
associatedMasterId = "FBD32BA2-3DE3-41DC-83E1-8A694E18FAAC";
layerId = "6C696198-37E2-4FF9-B36D-8F3D38710D36";
name = "Aug 5 18, 15:31";
paths = (
{
closed = 1;
nodes = (
"224 0 LINE",
"224 415 LINE",
"411 0 LINE",
"643 0 LINE",
"643 670 LINE",
"467 670 LINE",
"467 233 LINE",
"271 670 LINE",
"48 670 LINE",
"48 0 LINE"
);
}
);
width = 691;
},
{
associatedMasterId = "FBD32BA2-3DE3-41DC-83E1-8A694E18FAAC";
layerId = "E93B893D-A6C4-40DF-A019-55E05C7CB802";
name = "Sep 1 18, 21:36";
paths = (
{
closed = 1;
nodes = (
"224 0 LINE",
"224 415 LINE",
"411 0 LINE",
"643 0 LINE",
"643 670 LINE",
"467 670 LINE",
"467 233 LINE",
"271 670 LINE",
"48 670 LINE",
"48 0 LINE"
);
}
);
width = 691;
},
{
layerId = "061FC23D-6DC8-4BE4-BEC8-2F5AB93B127B";
paths = (
{
closed = 1;
nodes = (
"86 670 LINE",
"48 670 LINE",
"48 0 LINE",
"90 0 LINE",
"90 606 LINE",
"605 0 LINE",
"643 0 LINE",
"643 670 LINE",
"601 670 LINE",
"601 64 LINE"
);
}
);
width = 691;
},
{
associatedMasterId = "061FC23D-6DC8-4BE4-BEC8-2F5AB93B127B";
layerId = "E7B6A143-98E7-4225-BEEE-6A11DA06D2F5";
name = "Apr 12 18, 15:42";
paths = (
{
closed = 1;
nodes = (
"643 670 LINE",
"447 670 LINE",
"447 303 LINE",
"241 670 LINE",
"48 669 LINE",
"48 -1 LINE",
"244 0 LINE",
"244 345 LINE",
"441 0 LINE",
"643 0 LINE"
);
}
);
width = 691;
},
{
associatedMasterId = "061FC23D-6DC8-4BE4-BEC8-2F5AB93B127B";
layerId = "9B59FCE6-2FE3-4DD0-AD49-BB2235799667";
name = "Aug 5 18, 15:31";
paths = (
{
closed = 1;
nodes = (
"224 0 LINE",
"224 415 LINE",
"411 0 LINE",
"643 0 LINE",
"643 670 LINE",
"467 670 LINE",
"467 233 LINE",
"271 670 LINE",
"48 670 LINE",
"48 0 LINE"
);
}
);
width = 691;
},
{
associatedMasterId = "061FC23D-6DC8-4BE4-BEC8-2F5AB93B127B";
layerId = "221690F5-B956-4975-92E0-5E7F56CA476C";
name = "Sep 1 18, 21:36";
paths = (
{
closed = 1;
nodes = (
"224 0 LINE",
"224 415 LINE",
"411 0 LINE",
"643 0 LINE",
"643 670 LINE",
"467 670 LINE",
"467 233 LINE",
"271 670 LINE",
"48 670 LINE",
"48 0 LINE"
);
}
);
width = 691;
},
{
associatedMasterId = "FBD32BA2-3DE3-41DC-83E1-8A694E18FAAC";
layerId = "3CA27F41-E3D5-4350-9F30-3381F56209C0";
name = "May 8 19, 15:22";
paths = (
{
closed = 1;
nodes = (
"239 670 LINE",
"48 670 LINE",
"48 0 LINE",
"239 0 LINE",
"239 357 LINE",
"452 0 LINE",
"643 0 LINE",
"643 670 LINE",
"452 670 LINE",
"452 278 LINE"
);
}
);
width = 691;
}
);
leftMetricsKey = H;
rightMetricsKey = H;
unicode = 004E;
},
{
color = 1;
glyphname = O;
lastChange = "2019-01-27 11:53:10 +0000";
layers = (
{
anchors = (
{
name = top;
position = "{386, 686}";
}
);
layerId = "FBD32BA2-3DE3-41DC-83E1-8A694E18FAAC";
paths = (
{
closed = 1;
nodes = (
"597 -16 OFFCURVE",
"753 129 OFFCURVE",
"753 336 CURVE SMOOTH",
"753 541 OFFCURVE",
"597 686 OFFCURVE",
"386 686 CURVE SMOOTH",
"175 686 OFFCURVE",
"20 541 OFFCURVE",
"20 336 CURVE SMOOTH",
"20 129 OFFCURVE",
"175 -16 OFFCURVE",
"386 -16 CURVE SMOOTH"
);
},
{
closed = 1;
nodes = (
"286 150 OFFCURVE",
"216 225 OFFCURVE",
"216 336 CURVE SMOOTH",
"216 445 OFFCURVE",
"286 518 OFFCURVE",
"386 518 CURVE SMOOTH",
"486 518 OFFCURVE",
"557 444 OFFCURVE",
"557 336 CURVE SMOOTH",
"557 225 OFFCURVE",
"486 150 OFFCURVE",
"386 150 CURVE SMOOTH"
);
}
);
width = 773;
},
{
associatedMasterId = "FBD32BA2-3DE3-41DC-83E1-8A694E18FAAC";
layerId = "4E792A1B-E7EB-4548-A914-84C83F06F3CB";
name = "Apr 27 18, 23:33";
paths = (
{
closed = 1;
nodes = (
"465 -16 OFFCURVE",
"613 73 OFFCURVE",
"613 310 CURVE SMOOTH",
"613 362 LINE SMOOTH",
"613 599 OFFCURVE",
"465 686 OFFCURVE",
"320 686 CURVE SMOOTH",
"174 686 OFFCURVE",
"26 599 OFFCURVE",
"26 362 CURVE SMOOTH",
"26 310 LINE SMOOTH",
"26 73 OFFCURVE",
"174 -16 OFFCURVE",
"320 -16 CURVE SMOOTH"
);
},
{
closed = 1;
nodes = (
"269 140 OFFCURVE",
"222 171 OFFCURVE",
"222 261 CURVE SMOOTH",
"222 409 LINE SMOOTH",
"222 499 OFFCURVE",
"269 530 OFFCURVE",
"320 530 CURVE SMOOTH",
"370 530 OFFCURVE",
"417 499 OFFCURVE",
"417 409 CURVE SMOOTH",
"417 261 LINE SMOOTH",
"417 171 OFFCURVE",
"370 140 OFFCURVE",
"320 140 CURVE SMOOTH"
);
}
);
width = 639;
},
{
associatedMasterId = "FBD32BA2-3DE3-41DC-83E1-8A694E18FAAC";
layerId = "A6592EB4-D643-49C2-88F8-B3E3789B8749";
name = "Aug 5 18, 12:45";
paths = (
{
closed = 1;
nodes = (
"465 -16 OFFCURVE",
"613 73 OFFCURVE",
"613 310 CURVE SMOOTH",
"613 362 LINE SMOOTH",
"613 599 OFFCURVE",
"465 686 OFFCURVE",
"320 686 CURVE SMOOTH",
"174 686 OFFCURVE",
"26 599 OFFCURVE",
"26 362 CURVE SMOOTH",
"26 310 LINE SMOOTH",
"26 73 OFFCURVE",
"174 -16 OFFCURVE",
"320 -16 CURVE SMOOTH"
);
},
{
closed = 1;
nodes = (
"313 144 LINE SMOOTH",
"260 144 OFFCURVE",
"222 181 OFFCURVE",
"222 261 CURVE SMOOTH",
"222 409 LINE SMOOTH",
"222 499 OFFCURVE",
"269 526 OFFCURVE",
"313 526 CURVE SMOOTH",
"332 526 LINE SMOOTH",
"381 526 OFFCURVE",
"417 488 OFFCURVE",
"417 409 CURVE SMOOTH",
"417 261 LINE SMOOTH",
"417 171 OFFCURVE",
"370 144 OFFCURVE",
"329 144 CURVE SMOOTH"
);
}
);
width = 639;
},
{
anchors = (
{
name = top;
position = "{386, 686}";
}
);
layerId = "061FC23D-6DC8-4BE4-BEC8-2F5AB93B127B";
paths = (
{
closed = 1;
nodes = (
"597 -16 OFFCURVE",
"753 130 OFFCURVE",
"753 336 CURVE SMOOTH",
"753 542 OFFCURVE",
"597 686 OFFCURVE",
"386 686 CURVE SMOOTH",
"175 686 OFFCURVE",
"20 542 OFFCURVE",
"20 336 CURVE SMOOTH",
"20 130 OFFCURVE",
"175 -16 OFFCURVE",
"386 -16 CURVE SMOOTH"
);
},
{
closed = 1;
nodes = (
"204 24 OFFCURVE",
"62 147 OFFCURVE",
"62 336 CURVE SMOOTH",
"62 525 OFFCURVE",
"204 648 OFFCURVE",
"385 648 CURVE SMOOTH",
"567 648 OFFCURVE",
"711 523 OFFCURVE",
"711 335 CURVE SMOOTH",
"711 146 OFFCURVE",
"567 24 OFFCURVE",
"386 24 CURVE SMOOTH"
);
}
);
width = 773;
},
{
associatedMasterId = "061FC23D-6DC8-4BE4-BEC8-2F5AB93B127B";
layerId = "6F4E738C-0595-404C-95F4-86172A687B2F";
name = "Apr 27 18, 23:33";
paths = (
{
closed = 1;
nodes = (
"465 -16 OFFCURVE",
"613 73 OFFCURVE",
"613 310 CURVE SMOOTH",
"613 362 LINE SMOOTH",
"613 599 OFFCURVE",
"465 686 OFFCURVE",
"320 686 CURVE SMOOTH",
"174 686 OFFCURVE",
"26 599 OFFCURVE",
"26 362 CURVE SMOOTH",
"26 310 LINE SMOOTH",
"26 73 OFFCURVE",
"174 -16 OFFCURVE",
"320 -16 CURVE SMOOTH"
);
},
{
closed = 1;
nodes = (
"269 140 OFFCURVE",
"222 171 OFFCURVE",
"222 261 CURVE SMOOTH",
"222 409 LINE SMOOTH",
"222 499 OFFCURVE",
"269 530 OFFCURVE",
"320 530 CURVE SMOOTH",
"370 530 OFFCURVE",
"417 499 OFFCURVE",
"417 409 CURVE SMOOTH",
"417 261 LINE SMOOTH",
"417 171 OFFCURVE",
"370 140 OFFCURVE",
"320 140 CURVE SMOOTH"
);
}
);
width = 639;
},
{
associatedMasterId = "061FC23D-6DC8-4BE4-BEC8-2F5AB93B127B";
layerId = "74DC61E4-F4C9-4F62-AAAE-9C408C4D8703";
name = "Aug 5 18, 12:45";
paths = (
{
closed = 1;
nodes = (
"465 -16 OFFCURVE",
"613 73 OFFCURVE",
"613 310 CURVE SMOOTH",
"613 362 LINE SMOOTH",
"613 599 OFFCURVE",
"465 686 OFFCURVE",
"320 686 CURVE SMOOTH",
"174 686 OFFCURVE",
"26 599 OFFCURVE",
"26 362 CURVE SMOOTH",
"26 310 LINE SMOOTH",
"26 73 OFFCURVE",
"174 -16 OFFCURVE",
"320 -16 CURVE SMOOTH"
);
},
{
closed = 1;
nodes = (
"313 144 LINE SMOOTH",
"260 144 OFFCURVE",
"222 181 OFFCURVE",
"222 261 CURVE SMOOTH",
"222 409 LINE SMOOTH",
"222 499 OFFCURVE",
"269 526 OFFCURVE",
"313 526 CURVE SMOOTH",
"332 526 LINE SMOOTH",
"381 526 OFFCURVE",
"417 488 OFFCURVE",
"417 409 CURVE SMOOTH",
"417 261 LINE SMOOTH",
"417 171 OFFCURVE",
"370 144 OFFCURVE",
"329 144 CURVE SMOOTH"
);
}
);
width = 639;
}
);
leftKerningGroup = upRounded;
rightKerningGroup = upRounded;
unicode = 004F;
},
{
color = 2;
glyphname = P;
lastChange = "2019-02-05 08:07:57 +0000";
layers = (
{
layerId = "FBD32BA2-3DE3-41DC-83E1-8A694E18FAAC";
paths = (
{
closed = 1;
nodes = (
"311 159 LINE SMOOTH",
"522 159 OFFCURVE",
"597 291 OFFCURVE",
"597 414 CURVE SMOOTH",
"597 538 OFFCURVE",
"522 670 OFFCURVE",
"291 670 CURVE SMOOTH",
"137 670 LINE",
"137 159 LINE"
);
},
{
closed = 1;
nodes = (
"244 0 LINE",
"244 670 LINE",
"48 670 LINE",
"48 0 LINE"
);
},
{
closed = 1;
nodes = (
"180 514 LINE",
"294 514 LINE SMOOTH",
"355 514 OFFCURVE",
"401 484 OFFCURVE",
"401 418 CURVE SMOOTH",
"401 353 OFFCURVE",
"355 315 OFFCURVE",
"294 315 CURVE SMOOTH",
"180 315 LINE"
);
}
);
width = 617;
},
{
associatedMasterId = "FBD32BA2-3DE3-41DC-83E1-8A694E18FAAC";
layerId = "5E036F24-C3A1-45D8-B041-479DD726DE53";
name = "Mar 22 18, 13:20";
paths = (
{
closed = 1;
nodes = (
"337 261 LINE",
"478 262 OFFCURVE",
"528 363 OFFCURVE",
"528 476 CURVE SMOOTH",
"528 569 OFFCURVE",
"478 670 OFFCURVE",
"337 671 CURVE",
"123 670 LINE",
"123 261 LINE"
);
},
{
closed = 1;
nodes = (
"220 0 LINE",
"220 670 LINE",
"44 670 LINE",
"44 0 LINE"
);
},
{
closed = 1;
nodes = (
"166 564 LINE",
"270 564 LINE",
"324 566 OFFCURVE",
"352 517 OFFCURVE",
"352 472 CURVE SMOOTH",
"352 418 OFFCURVE",
"327 370 OFFCURVE",
"270 370 CURVE",
"166 370 LINE"
);
}
);
width = 544;
},
{
associatedMasterId = "FBD32BA2-3DE3-41DC-83E1-8A694E18FAAC";
layerId = "B3047C86-9415-4096-80A4-49858B142D13";
name = "Apr 10 18, 00:29";
paths = (
{
closed = 1;
nodes = (
"329 203 LINE SMOOTH",
"470 203 OFFCURVE",
"520 334 OFFCURVE",
"520 457 CURVE SMOOTH",
"520 559 OFFCURVE",
"470 670 OFFCURVE",
"329 670 CURVE SMOOTH",
"115 670 LINE",
"115 203 LINE"
);
},
{
closed = 1;
nodes = (
"212 0 LINE",
"212 670 LINE",
"36 670 LINE",
"36 0 LINE"
);
},
{
closed = 1;
nodes = (
"158 534 LINE",
"282 534 LINE SMOOTH",
"346 534 OFFCURVE",
"349 481 OFFCURVE",
"349 421 CURVE SMOOTH",
"349 363 OFFCURVE",
"319 303 OFFCURVE",
"252 303 CURVE SMOOTH",
"158 303 LINE"
);
}
);
width = 528;
},
{
layerId = "061FC23D-6DC8-4BE4-BEC8-2F5AB93B127B";
paths = (
{
closed = 1;
nodes = (
"197 219 LINE SMOOTH",
"408 219 OFFCURVE",
"500 321 OFFCURVE",
"500 444 CURVE SMOOTH",
"500 568 OFFCURVE",
"428 670 OFFCURVE",
"197 670 CURVE SMOOTH",
"60 670 LINE",
"60 219 LINE"
);
},
{
closed = 1;
nodes = (
"88 0 LINE",
"88 670 LINE",
"48 670 LINE",
"48 0 LINE"
);
},
{
closed = 1;
nodes = (
"83 632 LINE",
"197 632 LINE SMOOTH",
"358 632 OFFCURVE",
"460 591 OFFCURVE",
"460 443 CURVE SMOOTH",
"460 301 OFFCURVE",
"358 256 OFFCURVE",
"197 256 CURVE SMOOTH",
"83 256 LINE"
);
}
);
width = 520;
},
{
associatedMasterId = "061FC23D-6DC8-4BE4-BEC8-2F5AB93B127B";
layerId = "8A2B369B-A040-4FBB-8DB1-4C85454BC3C8";
name = "Mar 22 18, 13:20";
paths = (
{
closed = 1;
nodes = (
"337 261 LINE",
"478 262 OFFCURVE",
"528 363 OFFCURVE",
"528 476 CURVE SMOOTH",
"528 569 OFFCURVE",
"478 670 OFFCURVE",
"337 671 CURVE",
"123 670 LINE",
"123 261 LINE"
);
},
{
closed = 1;
nodes = (
"220 0 LINE",
"220 670 LINE",
"44 670 LINE",
"44 0 LINE"
);
},
{
closed = 1;
nodes = (
"166 564 LINE",
"270 564 LINE",
"324 566 OFFCURVE",
"352 517 OFFCURVE",
"352 472 CURVE SMOOTH",
"352 418 OFFCURVE",
"327 370 OFFCURVE",
"270 370 CURVE",
"166 370 LINE"
);
}
);
width = 544;
},
{
associatedMasterId = "061FC23D-6DC8-4BE4-BEC8-2F5AB93B127B";
layerId = "2E7B5681-3BFA-458A-B442-A1870BF8CA85";
name = "Apr 10 18, 00:29";
paths = (
{
closed = 1;
nodes = (
"329 203 LINE SMOOTH",
"470 203 OFFCURVE",
"520 334 OFFCURVE",
"520 457 CURVE SMOOTH",
"520 559 OFFCURVE",
"470 670 OFFCURVE",
"329 670 CURVE SMOOTH",
"115 670 LINE",
"115 203 LINE"
);
},
{
closed = 1;
nodes = (
"212 0 LINE",
"212 670 LINE",
"36 670 LINE",
"36 0 LINE"
);
},
{
closed = 1;
nodes = (
"158 534 LINE",
"282 534 LINE SMOOTH",
"346 534 OFFCURVE",
"349 481 OFFCURVE",
"349 421 CURVE SMOOTH",
"349 363 OFFCURVE",
"319 303 OFFCURVE",
"252 303 CURVE SMOOTH",
"158 303 LINE"
);
}
);
width = 528;
}
);
leftMetricsKey = H;
rightKerningGroup = upRounded;
rightMetricsKey = O;
unicode = 0050;
},
{
color = 1;
glyphname = Q;
lastChange = "2019-01-28 21:55:13 +0000";
layers = (
{
layerId = "FBD32BA2-3DE3-41DC-83E1-8A694E18FAAC";
paths = (
{
closed = 1;
nodes = (
"589 -16 OFFCURVE",
"737 129 OFFCURVE",
"737 336 CURVE SMOOTH",
"737 541 OFFCURVE",
"589 686 OFFCURVE",
"378 686 CURVE",
"167 686 OFFCURVE",
"20 541 OFFCURVE",
"20 336 CURVE SMOOTH",
"20 129 OFFCURVE",
"167 -16 OFFCURVE",
"378 -16 CURVE SMOOTH"
);
},
{
closed = 1;
nodes = (
"692 -26 LINE",
"583 141 LINE",
"433 54 LINE",
"538 -115 LINE"
);
},
{
closed = 1;
nodes = (
"278 150 OFFCURVE",
"208 225 OFFCURVE",
"208 336 CURVE SMOOTH",
"208 445 OFFCURVE",
"278 518 OFFCURVE",
"378 518 CURVE SMOOTH",
"478 518 OFFCURVE",
"549 444 OFFCURVE",
"549 336 CURVE SMOOTH",
"549 225 OFFCURVE",
"478 150 OFFCURVE",
"378 150 CURVE SMOOTH"
);
}
);
width = 757;
},
{
associatedMasterId = "FBD32BA2-3DE3-41DC-83E1-8A694E18FAAC";
layerId = "218E87CE-107C-4266-8BBA-2F50A2534F85";
name = "Aug 5 18, 12:48";
paths = (
{
closed = 1;
nodes = (
"465 -16 OFFCURVE",
"613 73 OFFCURVE",
"613 310 CURVE SMOOTH",
"613 362 LINE SMOOTH",
"613 599 OFFCURVE",
"465 686 OFFCURVE",
"320 686 CURVE SMOOTH",
"174 686 OFFCURVE",
"26 599 OFFCURVE",
"26 362 CURVE SMOOTH",
"26 310 LINE SMOOTH",
"26 73 OFFCURVE",
"174 -16 OFFCURVE",
"320 -16 CURVE SMOOTH"
);
},
{
closed = 1;
nodes = (
"549 -42 LINE",
"371 258 LINE",
"280 258 LINE",
"375 112 LINE",
"364 97 LINE",
"448 -42 LINE"
);
},
{
closed = 1;
nodes = (
"259 140 OFFCURVE",
"222 181 OFFCURVE",
"222 261 CURVE SMOOTH",
"222 409 LINE SMOOTH",
"222 489 OFFCURVE",
"259 530 OFFCURVE",
"320 530 CURVE SMOOTH",
"380 530 OFFCURVE",
"417 489 OFFCURVE",
"417 409 CURVE SMOOTH",
"417 261 LINE SMOOTH",
"417 181 OFFCURVE",
"380 140 OFFCURVE",
"320 140 CURVE SMOOTH"
);
}
);
width = 639;
},
{
layerId = "061FC23D-6DC8-4BE4-BEC8-2F5AB93B127B";
paths = (
{
closed = 1;
nodes = (
"597 -16 OFFCURVE",
"753 130 OFFCURVE",
"753 336 CURVE SMOOTH",
"753 542 OFFCURVE",
"597 686 OFFCURVE",
"386 686 CURVE SMOOTH",
"175 686 OFFCURVE",
"20 542 OFFCURVE",
"20 336 CURVE SMOOTH",
"20 130 OFFCURVE",
"175 -16 OFFCURVE",
"386 -16 CURVE SMOOTH"
);
},
{
closed = 1;
nodes = (
"717 -67 LINE",
"607 84 LINE",
"574 61 LINE",
"684 -91 LINE"
);
},
{
closed = 1;
nodes = (
"204 24 OFFCURVE",
"62 147 OFFCURVE",
"62 336 CURVE SMOOTH",
"62 525 OFFCURVE",
"204 648 OFFCURVE",
"385 648 CURVE SMOOTH",
"567 648 OFFCURVE",
"711 523 OFFCURVE",
"711 335 CURVE SMOOTH",
"711 146 OFFCURVE",
"567 24 OFFCURVE",
"386 24 CURVE SMOOTH"
);
}
);
width = 773;
},
{
associatedMasterId = "061FC23D-6DC8-4BE4-BEC8-2F5AB93B127B";
layerId = "53F17944-C11F-4559-BF34-E89C00DB57F7";
name = "Aug 5 18, 12:48";
paths = (
{
closed = 1;
nodes = (
"465 -16 OFFCURVE",
"613 73 OFFCURVE",
"613 310 CURVE SMOOTH",
"613 362 LINE SMOOTH",
"613 599 OFFCURVE",
"465 686 OFFCURVE",
"320 686 CURVE SMOOTH",
"174 686 OFFCURVE",
"26 599 OFFCURVE",
"26 362 CURVE SMOOTH",
"26 310 LINE SMOOTH",
"26 73 OFFCURVE",
"174 -16 OFFCURVE",
"320 -16 CURVE SMOOTH"
);
},
{
closed = 1;
nodes = (
"549 -42 LINE",
"371 258 LINE",
"280 258 LINE",
"375 112 LINE",
"364 97 LINE",
"448 -42 LINE"
);
},
{
closed = 1;
nodes = (
"259 140 OFFCURVE",
"222 181 OFFCURVE",
"222 261 CURVE SMOOTH",
"222 409 LINE SMOOTH",
"222 489 OFFCURVE",
"259 530 OFFCURVE",
"320 530 CURVE SMOOTH",
"380 530 OFFCURVE",
"417 489 OFFCURVE",
"417 409 CURVE SMOOTH",
"417 261 LINE SMOOTH",
"417 181 OFFCURVE",
"380 140 OFFCURVE",
"320 140 CURVE SMOOTH"
);
}
);
width = 639;
}
);
leftKerningGroup = upRounded;
leftMetricsKey = O;
rightKerningGroup = upRounded;
rightMetricsKey = O;
unicode = 0051;
},
{
color = 2;
glyphname = R;
lastChange = "2019-03-11 10:21:03 +0000";
layers = (
{
layerId = "FBD32BA2-3DE3-41DC-83E1-8A694E18FAAC";
paths = (
{
closed = 1;
nodes = (
"244 0 LINE",
"244 228 LINE",
"331 222 OFFCURVE",
"356 206 OFFCURVE",
"374 103 CURVE SMOOTH",
"383 51 LINE SMOOTH",
"389 16 OFFCURVE",
"410 0 OFFCURVE",
"447 0 CURVE SMOOTH",
"613 0 LINE",
"588 98 LINE SMOOTH",
"560 206 OFFCURVE",
"520 265 OFFCURVE",
"359 303 CURVE",
"359 308 LINE",
"532 309 OFFCURVE",
"582 408 OFFCURVE",
"582 489 CURVE SMOOTH",
"582 578 OFFCURVE",
"522 670 OFFCURVE",
"361 670 CURVE SMOOTH",
"48 670 LINE",
"48 0 LINE"
);
},
{
closed = 1;
nodes = (
"244 514 LINE",
"321 514 LINE SMOOTH",
"365 514 OFFCURVE",
"387 479 OFFCURVE",
"387 449 CURVE SMOOTH",
"387 418 OFFCURVE",
"365 384 OFFCURVE",
"321 384 CURVE SMOOTH",
"244 384 LINE"
);
}
);
width = 617;
},
{
associatedMasterId = "FBD32BA2-3DE3-41DC-83E1-8A694E18FAAC";
layerId = "DDF745C1-FF60-4CEA-9E31-F37F84919818";
name = "Mar 22 18, 10:37";
paths = (
{
closed = 1;
nodes = (
"585 0 LINE",
"379 354 LINE",
"193 317 LINE",
"234 317 LINE",
"399 0 LINE"
);
},
{
closed = 1;
nodes = (
"234 0 LINE",
"234 670 LINE",
"58 670 LINE",
"58 0 LINE"
);
},
{
closed = 1;
nodes = (
"180 559 LINE",
"284 559 LINE",
"340 559 OFFCURVE",
"366 527 OFFCURVE",
"366 497 CURVE SMOOTH",
"366 461 OFFCURVE",
"340 429 OFFCURVE",
"284 429 CURVE",
"180 428 LINE"
);
},
{
closed = 1;
nodes = (
"351 317 LINE",
"492 318 OFFCURVE",
"542 405 OFFCURVE",
"542 503 CURVE SMOOTH",
"542 583 OFFCURVE",
"492 670 OFFCURVE",
"351 671 CURVE",
"137 670 LINE",
"137 317 LINE"
);
}
);
width = 575;
},
{
associatedMasterId = "FBD32BA2-3DE3-41DC-83E1-8A694E18FAAC";
layerId = "532F121A-C006-493E-B1C5-78D014B66867";
name = "Apr 10 18, 00:33";
paths = (
{
closed = 1;
nodes = (
"329 261 LINE",
"470 262 OFFCURVE",
"520 363 OFFCURVE",
"520 476 CURVE SMOOTH",
"520 569 OFFCURVE",
"470 670 OFFCURVE",
"329 670 CURVE SMOOTH",
"115 670 LINE",
"115 261 LINE"
);
},
{
closed = 1;
nodes = (
"212 0 LINE",
"212 670 LINE",
"36 670 LINE",
"36 0 LINE"
);
},
{
closed = 1;
nodes = (
"563 0 LINE",
"382 303 LINE",
"212 317 LINE",
"377 0 LINE"
);
},
{
closed = 1;
nodes = (
"158 534 LINE",
"269 534 LINE SMOOTH",
"319 534 OFFCURVE",
"344 485 OFFCURVE",
"344 441 CURVE SMOOTH",
"344 387 OFFCURVE",
"332 341 OFFCURVE",
"282 341 CURVE SMOOTH",
"158 341 LINE"
);
}
);
width = 545;
},
{
associatedMasterId = "FBD32BA2-3DE3-41DC-83E1-8A694E18FAAC";
layerId = "5F875250-C036-4B3C-9F2E-17973F446701";
name = "Apr 10 18, 00:45";
paths = (
{
closed = 1;
nodes = (
"329 261 LINE",
"470 262 OFFCURVE",
"520 363 OFFCURVE",
"520 476 CURVE SMOOTH",
"520 569 OFFCURVE",
"470 670 OFFCURVE",
"329 670 CURVE SMOOTH",
"115 670 LINE",
"115 261 LINE"
);
},
{
closed = 1;
nodes = (
"212 0 LINE",
"212 670 LINE",
"36 670 LINE",
"36 0 LINE"
);
},
{
closed = 1;
nodes = (
"538 0 LINE",
"357 303 LINE",
"187 317 LINE",
"352 0 LINE"
);
},
{
closed = 1;
nodes = (
"158 534 LINE",
"262 534 LINE SMOOTH",
"322 534 OFFCURVE",
"344 500 OFFCURVE",
"344 444 CURVE SMOOTH",
"344 387 OFFCURVE",
"322 350 OFFCURVE",
"262 350 CURVE SMOOTH",
"158 350 LINE"
);
}
);
width = 545;
},
{
associatedMasterId = "FBD32BA2-3DE3-41DC-83E1-8A694E18FAAC";
layerId = "2C408EFB-6C15-40FE-9281-9972B04FE1C9";
name = "Sep 3 18, 22:29";
paths = (
{
closed = 1;
nodes = (
"341 238 LINE",
"482 239 OFFCURVE",
"542 337 OFFCURVE",
"542 446 CURVE SMOOTH",
"542 554 OFFCURVE",
"482 670 OFFCURVE",
"321 670 CURVE SMOOTH",
"127 670 LINE",
"127 238 LINE"
);
},
{
closed = 1;
nodes = (
"234 0 LINE",
"234 670 LINE",
"48 670 LINE",
"48 0 LINE"
);
},
{
closed = 1;
nodes = (
"582 0 LINE",
"381 303 LINE",
"195 317 LINE",
"366 0 LINE"
);
},
{
closed = 1;
nodes = (
"170 534 LINE",
"274 534 LINE SMOOTH",
"324 534 OFFCURVE",
"356 500 OFFCURVE",
"356 444 CURVE SMOOTH",
"356 387 OFFCURVE",
"324 350 OFFCURVE",
"274 350 CURVE SMOOTH",
"170 350 LINE"
);
}
);
width = 569;
},
{
associatedMasterId = "FBD32BA2-3DE3-41DC-83E1-8A694E18FAAC";
layerId = "407C6782-7938-41E5-B3C8-C36FF2416730";
name = "Sep 3 18, 22:30";
paths = (
{
closed = 1;
nodes = (
"341 238 LINE",
"482 239 OFFCURVE",
"542 337 OFFCURVE",
"542 446 CURVE SMOOTH",
"542 554 OFFCURVE",
"482 670 OFFCURVE",
"321 670 CURVE SMOOTH",
"127 670 LINE",
"127 238 LINE"
);
},
{
closed = 1;
nodes = (
"234 0 LINE",
"234 670 LINE",
"48 670 LINE",
"48 0 LINE"
);
},
{
closed = 1;
nodes = (
"170 534 LINE",
"274 534 LINE SMOOTH",
"324 534 OFFCURVE",
"356 500 OFFCURVE",
"356 444 CURVE SMOOTH",
"356 387 OFFCURVE",
"324 350 OFFCURVE",
"274 350 CURVE SMOOTH",
"170 350 LINE"
);
},
{
closed = 1;
nodes = (
"284 337 LINE",
"234 337 LINE",
"234 235 LINE",
"304 235 OFFCURVE",
"326 225 OFFCURVE",
"330 145 CURVE SMOOTH",
"333 78 OFFCURVE",
"330 13 OFFCURVE",
"360 0 CURVE",
"570 0 LINE",
"571 17 LINE",
"539 30 OFFCURVE",
"524 74 OFFCURVE",
"527 136 CURVE SMOOTH",
"530 197 OFFCURVE",
"514 290 OFFCURVE",
"326 291 CURVE",
"326 297 LINE"
);
}
);
width = 569;
},
{
associatedMasterId = "FBD32BA2-3DE3-41DC-83E1-8A694E18FAAC";
layerId = "28840C45-B6A7-4278-8E3A-5FCCB7A27702";
name = "Sep 3 18, 22:41";
paths = (
{
closed = 1;
nodes = (
"234 0 LINE",
"234 235 LINE",
"305 235 OFFCURVE",
"326 224 OFFCURVE",
"330 145 CURVE SMOOTH",
"333 85 OFFCURVE",
"329 13 OFFCURVE",
"360 0 CURVE",
"590 0 LINE",
"591 17 LINE",
"549 37 OFFCURVE",
"548 78 OFFCURVE",
"547 136 CURVE SMOOTH",
"546 185 OFFCURVE",
"505 283 OFFCURVE",
"385 292 CURVE",
"385 297 LINE",
"505 304 OFFCURVE",
"542 381 OFFCURVE",
"542 458 CURVE SMOOTH",
"542 557 OFFCURVE",
"482 670 OFFCURVE",
"321 670 CURVE SMOOTH",
"48 670 LINE",
"48 0 LINE"
);
},
{
closed = 1;
nodes = (
"234 534 LINE",
"274 534 LINE SMOOTH",
"324 534 OFFCURVE",
"356 500 OFFCURVE",
"356 444 CURVE SMOOTH",
"356 387 OFFCURVE",
"324 350 OFFCURVE",
"274 350 CURVE SMOOTH",
"234 350 LINE"
);
}
);
width = 587;
},
{
associatedMasterId = "FBD32BA2-3DE3-41DC-83E1-8A694E18FAAC";
layerId = "219D5CCA-AE16-4798-9FB1-66AE40167B11";
name = "Sep 3 18, 22:54";
paths = (
{
closed = 1;
nodes = (
"234 0 LINE",
"234 284 LINE",
"266 284 LINE SMOOTH",
"305 284 OFFCURVE",
"329 268 OFFCURVE",
"329 226 CURVE SMOOTH",
"329 0 LINE",
"535 0 LINE",
"536 17 LINE",
"522 30 OFFCURVE",
"516 64 OFFCURVE",
"516 146 CURVE SMOOTH",
"516 201 OFFCURVE",
"505 324 OFFCURVE",
"385 332 CURVE",
"385 337 LINE",
"485 345 OFFCURVE",
"542 412 OFFCURVE",
"542 500 CURVE SMOOTH",
"542 590 OFFCURVE",
"482 670 OFFCURVE",
"321 670 CURVE SMOOTH",
"48 670 LINE",
"48 0 LINE"
);
},
{
closed = 1;
nodes = (
"234 534 LINE",
"274 534 LINE SMOOTH",
"334 534 OFFCURVE",
"356 509 OFFCURVE",
"356 468 CURVE SMOOTH",
"356 427 OFFCURVE",
"334 399 OFFCURVE",
"274 399 CURVE SMOOTH",
"234 399 LINE"
);
}
);
width = 538;
},
{
associatedMasterId = "FBD32BA2-3DE3-41DC-83E1-8A694E18FAAC";
layerId = "CD6D3500-0FDC-4C78-B9C0-1D5717ED7AF9";
name = "Sep 3 18, 23:01";
paths = (
{
closed = 1;
nodes = (
"294 279 OFFCURVE",
"324 210 OFFCURVE",
"344 103 CURVE SMOOTH",
"353 51 LINE SMOOTH",
"359 16 OFFCURVE",
"380 0 OFFCURVE",
"417 0 CURVE SMOOTH",
"569 0 LINE",
"544 98 LINE SMOOTH",
"504 255 OFFCURVE",
"423 310 OFFCURVE",
"362 309 CURVE",
"226 279 LINE"
);
},
{
closed = 1;
nodes = (
"341 279 LINE",
"482 280 OFFCURVE",
"542 368 OFFCURVE",
"542 467 CURVE SMOOTH",
"542 565 OFFCURVE",
"482 670 OFFCURVE",
"321 670 CURVE SMOOTH",
"127 670 LINE",
"127 279 LINE"
);
},
{
closed = 1;
nodes = (
"234 0 LINE",
"234 670 LINE",
"48 670 LINE",
"48 0 LINE"
);
},
{
closed = 1;
nodes = (
"170 547 LINE",
"274 547 LINE SMOOTH",
"324 547 OFFCURVE",
"356 516 OFFCURVE",
"356 465 CURVE SMOOTH",
"356 414 OFFCURVE",
"324 380 OFFCURVE",
"274 380 CURVE SMOOTH",
"170 380 LINE"
);
}
);
width = 565;
},
{
associatedMasterId = "FBD32BA2-3DE3-41DC-83E1-8A694E18FAAC";
layerId = "2F8C6C2B-613A-44AC-9545-B4F46E1E061D";
name = "Oct 21 18, 19:03";
paths = (
{
closed = 1;
nodes = (
"234 0 LINE",
"234 279 LINE",
"326 273 OFFCURVE",
"356 206 OFFCURVE",
"374 103 CURVE SMOOTH",
"383 51 LINE SMOOTH",
"389 16 OFFCURVE",
"410 0 OFFCURVE",
"447 0 CURVE SMOOTH",
"599 0 LINE",
"574 98 LINE SMOOTH",
"546 206 OFFCURVE",
"520 285 OFFCURVE",
"379 323 CURVE",
"379 328 LINE",
"522 329 OFFCURVE",
"572 410 OFFCURVE",
"572 491 CURVE SMOOTH",
"572 580 OFFCURVE",
"512 670 OFFCURVE",
"351 670 CURVE SMOOTH",
"48 670 LINE",
"48 0 LINE"
);
},
{
closed = 1;
nodes = (
"304 547 LINE SMOOTH",
"354 547 OFFCURVE",
"386 516 OFFCURVE",
"386 465 CURVE SMOOTH",
"386 414 OFFCURVE",
"354 380 OFFCURVE",
"304 380 CURVE SMOOTH",
"234 380 LINE",
"234 547 LINE"
);
}
);
width = 595;
},
{
associatedMasterId = "FBD32BA2-3DE3-41DC-83E1-8A694E18FAAC";
layerId = "F5BB32EE-DEB1-4AD2-AC16-5D4CB8A9D509";
name = "Nov 6 18, 22:24";
paths = (
{
closed = 1;
nodes = (
"234 0 LINE",
"234 279 LINE",
"326 273 OFFCURVE",
"356 206 OFFCURVE",
"374 103 CURVE SMOOTH",
"383 51 LINE SMOOTH",
"389 16 OFFCURVE",
"410 0 OFFCURVE",
"447 0 CURVE SMOOTH",
"599 0 LINE",
"574 98 LINE SMOOTH",
"546 206 OFFCURVE",
"520 285 OFFCURVE",
"379 323 CURVE",
"379 328 LINE",
"522 329 OFFCURVE",
"572 410 OFFCURVE",
"572 491 CURVE SMOOTH",
"572 580 OFFCURVE",
"512 670 OFFCURVE",
"351 670 CURVE SMOOTH",
"48 670 LINE",
"48 0 LINE"
);
},
{
closed = 1;
nodes = (
"295 535 LINE SMOOTH",
"339 535 OFFCURVE",
"367 511 OFFCURVE",
"367 474 CURVE SMOOTH",
"367 436 OFFCURVE",
"339 410 OFFCURVE",
"295 410 CURVE SMOOTH",
"234 410 LINE",
"234 535 LINE"
);
}
);
width = 603;
},
{
layerId = "061FC23D-6DC8-4BE4-BEC8-2F5AB93B127B";
paths = (
{
closed = 1;
nodes = (
"90 0 LINE",
"90 288 LINE",
"267 288 OFFCURVE",
"343 188 OFFCURVE",
"395 123 CURVE SMOOTH",
"447 58 LINE SMOOTH",
"472 26 OFFCURVE",
"503 0 OFFCURVE",
"546 0 CURVE SMOOTH",
"553 0 LINE",
"439 141 LINE SMOOTH",
"390 201 OFFCURVE",
"318 288 OFFCURVE",
"187 308 CURVE",
"187 312 LINE",
"399 308 OFFCURVE",
"502 355 OFFCURVE",
"502 490 CURVE SMOOTH",
"502 625 OFFCURVE",
"399 670 OFFCURVE",
"188 670 CURVE SMOOTH",
"48 670 LINE",
"48 0 LINE"
);
},
{
closed = 1;
nodes = (
"90 630 LINE",
"188 630 LINE SMOOTH",
"375 630 OFFCURVE",
"462 604 OFFCURVE",
"462 490 CURVE SMOOTH",
"462 376 OFFCURVE",
"375 339 OFFCURVE",
"188 339 CURVE SMOOTH",
"90 339 LINE"
);
}
);
width = 557;
},
{
associatedMasterId = "061FC23D-6DC8-4BE4-BEC8-2F5AB93B127B";
layerId = "94834046-0FF1-4BC7-A97C-BC866B3F63C9";
name = "Mar 22 18, 10:37";
paths = (
{
closed = 1;
nodes = (
"585 0 LINE",
"379 354 LINE",
"193 317 LINE",
"234 317 LINE",
"399 0 LINE"
);
},
{
closed = 1;
nodes = (
"234 0 LINE",
"234 670 LINE",
"58 670 LINE",
"58 0 LINE"
);
},
{
closed = 1;
nodes = (
"180 559 LINE",
"284 559 LINE",
"340 559 OFFCURVE",
"366 527 OFFCURVE",
"366 497 CURVE SMOOTH",
"366 461 OFFCURVE",
"340 429 OFFCURVE",
"284 429 CURVE",
"180 428 LINE"
);
},
{
closed = 1;
nodes = (
"351 317 LINE",
"492 318 OFFCURVE",
"542 405 OFFCURVE",
"542 503 CURVE SMOOTH",
"542 583 OFFCURVE",
"492 670 OFFCURVE",
"351 671 CURVE",
"137 670 LINE",
"137 317 LINE"
);
}
);
width = 575;
},
{
associatedMasterId = "061FC23D-6DC8-4BE4-BEC8-2F5AB93B127B";
layerId = "1B7DB759-5CBA-40CD-9E49-0C3A81E38B5C";
name = "Apr 10 18, 00:33";
paths = (
{
closed = 1;
nodes = (
"329 261 LINE",
"470 262 OFFCURVE",
"520 363 OFFCURVE",
"520 476 CURVE SMOOTH",
"520 569 OFFCURVE",
"470 670 OFFCURVE",
"329 670 CURVE SMOOTH",
"115 670 LINE",
"115 261 LINE"
);
},
{
closed = 1;
nodes = (
"212 0 LINE",
"212 670 LINE",
"36 670 LINE",
"36 0 LINE"
);
},
{
closed = 1;
nodes = (
"563 0 LINE",
"382 303 LINE",
"212 317 LINE",
"377 0 LINE"
);
},
{
closed = 1;
nodes = (
"158 534 LINE",
"269 534 LINE SMOOTH",
"319 534 OFFCURVE",
"344 485 OFFCURVE",
"344 441 CURVE SMOOTH",
"344 387 OFFCURVE",
"332 341 OFFCURVE",
"282 341 CURVE SMOOTH",
"158 341 LINE"
);
}
);
width = 545;
},
{
associatedMasterId = "061FC23D-6DC8-4BE4-BEC8-2F5AB93B127B";
layerId = "62F82220-3CF1-410E-8CDF-85265B7D1A1C";
name = "Apr 10 18, 00:45";
paths = (
{
closed = 1;
nodes = (
"329 261 LINE",
"470 262 OFFCURVE",
"520 363 OFFCURVE",
"520 476 CURVE SMOOTH",
"520 569 OFFCURVE",
"470 670 OFFCURVE",
"329 670 CURVE SMOOTH",
"115 670 LINE",
"115 261 LINE"
);
},
{
closed = 1;
nodes = (
"212 0 LINE",
"212 670 LINE",
"36 670 LINE",
"36 0 LINE"
);
},
{
closed = 1;
nodes = (
"538 0 LINE",
"357 303 LINE",
"187 317 LINE",
"352 0 LINE"
);
},
{
closed = 1;
nodes = (
"158 534 LINE",
"262 534 LINE SMOOTH",
"322 534 OFFCURVE",
"344 500 OFFCURVE",
"344 444 CURVE SMOOTH",
"344 387 OFFCURVE",
"322 350 OFFCURVE",
"262 350 CURVE SMOOTH",
"158 350 LINE"
);
}
);
width = 545;
},
{
associatedMasterId = "061FC23D-6DC8-4BE4-BEC8-2F5AB93B127B";
layerId = "18B08313-B661-4016-ABB4-8608F14956CA";
name = "Sep 3 18, 22:29";
paths = (
{
closed = 1;
nodes = (
"341 238 LINE",
"482 239 OFFCURVE",
"542 337 OFFCURVE",
"542 446 CURVE SMOOTH",
"542 554 OFFCURVE",
"482 670 OFFCURVE",
"321 670 CURVE SMOOTH",
"127 670 LINE",
"127 238 LINE"
);
},
{
closed = 1;
nodes = (
"234 0 LINE",
"234 670 LINE",
"48 670 LINE",
"48 0 LINE"
);
},
{
closed = 1;
nodes = (
"582 0 LINE",
"381 303 LINE",
"195 317 LINE",
"366 0 LINE"
);
},
{
closed = 1;
nodes = (
"170 534 LINE",
"274 534 LINE SMOOTH",
"324 534 OFFCURVE",
"356 500 OFFCURVE",
"356 444 CURVE SMOOTH",
"356 387 OFFCURVE",
"324 350 OFFCURVE",
"274 350 CURVE SMOOTH",
"170 350 LINE"
);
}
);
width = 569;
},
{
associatedMasterId = "061FC23D-6DC8-4BE4-BEC8-2F5AB93B127B";
layerId = "FDB2DDE2-6125-4B7A-83DE-BCC8FEBFDB37";
name = "Sep 3 18, 22:30";
paths = (
{
closed = 1;
nodes = (
"341 238 LINE",
"482 239 OFFCURVE",
"542 337 OFFCURVE",
"542 446 CURVE SMOOTH",
"542 554 OFFCURVE",
"482 670 OFFCURVE",
"321 670 CURVE SMOOTH",
"127 670 LINE",
"127 238 LINE"
);
},
{
closed = 1;
nodes = (
"234 0 LINE",
"234 670 LINE",
"48 670 LINE",
"48 0 LINE"
);
},
{
closed = 1;
nodes = (
"170 534 LINE",
"274 534 LINE SMOOTH",
"324 534 OFFCURVE",
"356 500 OFFCURVE",
"356 444 CURVE SMOOTH",
"356 387 OFFCURVE",
"324 350 OFFCURVE",
"274 350 CURVE SMOOTH",
"170 350 LINE"
);
},
{
closed = 1;
nodes = (
"284 337 LINE",
"234 337 LINE",
"234 235 LINE",
"304 235 OFFCURVE",
"326 225 OFFCURVE",
"330 145 CURVE SMOOTH",
"333 78 OFFCURVE",
"330 13 OFFCURVE",
"360 0 CURVE",
"570 0 LINE",
"571 17 LINE",
"539 30 OFFCURVE",
"524 74 OFFCURVE",
"527 136 CURVE SMOOTH",
"530 197 OFFCURVE",
"514 290 OFFCURVE",
"326 291 CURVE",
"326 297 LINE"
);
}
);
width = 569;
},
{
associatedMasterId = "061FC23D-6DC8-4BE4-BEC8-2F5AB93B127B";
layerId = "C201EE7C-4EF7-496D-9824-A5D0D4534CEB";
name = "Sep 3 18, 22:41";
paths = (
{
closed = 1;
nodes = (
"234 0 LINE",
"234 235 LINE",
"305 235 OFFCURVE",
"326 224 OFFCURVE",
"330 145 CURVE SMOOTH",
"333 85 OFFCURVE",
"329 13 OFFCURVE",
"360 0 CURVE",
"590 0 LINE",
"591 17 LINE",
"549 37 OFFCURVE",
"548 78 OFFCURVE",
"547 136 CURVE SMOOTH",
"546 185 OFFCURVE",
"505 283 OFFCURVE",
"385 292 CURVE",
"385 297 LINE",
"505 304 OFFCURVE",
"542 381 OFFCURVE",
"542 458 CURVE SMOOTH",
"542 557 OFFCURVE",
"482 670 OFFCURVE",
"321 670 CURVE SMOOTH",
"48 670 LINE",
"48 0 LINE"
);
},
{
closed = 1;
nodes = (
"234 534 LINE",
"274 534 LINE SMOOTH",
"324 534 OFFCURVE",
"356 500 OFFCURVE",
"356 444 CURVE SMOOTH",
"356 387 OFFCURVE",
"324 350 OFFCURVE",
"274 350 CURVE SMOOTH",
"234 350 LINE"
);
}
);
width = 587;
},
{
associatedMasterId = "061FC23D-6DC8-4BE4-BEC8-2F5AB93B127B";
layerId = "AD8948BB-DCBB-421D-9DE6-13E2C02264F8";
name = "Sep 3 18, 22:54";
paths = (
{
closed = 1;
nodes = (
"234 0 LINE",
"234 284 LINE",
"266 284 LINE SMOOTH",
"305 284 OFFCURVE",
"329 268 OFFCURVE",
"329 226 CURVE SMOOTH",
"329 0 LINE",
"535 0 LINE",
"536 17 LINE",
"522 30 OFFCURVE",
"516 64 OFFCURVE",
"516 146 CURVE SMOOTH",
"516 201 OFFCURVE",
"505 324 OFFCURVE",
"385 332 CURVE",
"385 337 LINE",
"485 345 OFFCURVE",
"542 412 OFFCURVE",
"542 500 CURVE SMOOTH",
"542 590 OFFCURVE",
"482 670 OFFCURVE",
"321 670 CURVE SMOOTH",
"48 670 LINE",
"48 0 LINE"
);
},
{
closed = 1;
nodes = (
"234 534 LINE",
"274 534 LINE SMOOTH",
"334 534 OFFCURVE",
"356 509 OFFCURVE",
"356 468 CURVE SMOOTH",
"356 427 OFFCURVE",
"334 399 OFFCURVE",
"274 399 CURVE SMOOTH",
"234 399 LINE"
);
}
);
width = 538;
},
{
associatedMasterId = "061FC23D-6DC8-4BE4-BEC8-2F5AB93B127B";
layerId = "63A75374-115D-421E-BA01-9E8B3C23E4BB";
name = "Sep 3 18, 23:01";
paths = (
{
closed = 1;
nodes = (
"294 279 OFFCURVE",
"324 210 OFFCURVE",
"344 103 CURVE SMOOTH",
"353 51 LINE SMOOTH",
"359 16 OFFCURVE",
"380 0 OFFCURVE",
"417 0 CURVE SMOOTH",
"569 0 LINE",
"544 98 LINE SMOOTH",
"504 255 OFFCURVE",
"423 310 OFFCURVE",
"362 309 CURVE",
"226 279 LINE"
);
},
{
closed = 1;
nodes = (
"341 279 LINE",
"482 280 OFFCURVE",
"542 368 OFFCURVE",
"542 467 CURVE SMOOTH",
"542 565 OFFCURVE",
"482 670 OFFCURVE",
"321 670 CURVE SMOOTH",
"127 670 LINE",
"127 279 LINE"
);
},
{
closed = 1;
nodes = (
"234 0 LINE",
"234 670 LINE",
"48 670 LINE",
"48 0 LINE"
);
},
{
closed = 1;
nodes = (
"170 547 LINE",
"274 547 LINE SMOOTH",
"324 547 OFFCURVE",
"356 516 OFFCURVE",
"356 465 CURVE SMOOTH",
"356 414 OFFCURVE",
"324 380 OFFCURVE",
"274 380 CURVE SMOOTH",
"170 380 LINE"
);
}
);
width = 565;
},
{
associatedMasterId = "061FC23D-6DC8-4BE4-BEC8-2F5AB93B127B";
layerId = "E1EC4AD9-2810-4B60-81C3-FC0C2DABB991";
name = "Oct 21 18, 19:03";
paths = (
{
closed = 1;
nodes = (
"234 0 LINE",
"234 279 LINE",
"326 273 OFFCURVE",
"356 206 OFFCURVE",
"374 103 CURVE SMOOTH",
"383 51 LINE SMOOTH",
"389 16 OFFCURVE",
"410 0 OFFCURVE",
"447 0 CURVE SMOOTH",
"599 0 LINE",
"574 98 LINE SMOOTH",
"546 206 OFFCURVE",
"520 285 OFFCURVE",
"379 323 CURVE",
"379 328 LINE",
"522 329 OFFCURVE",
"572 410 OFFCURVE",
"572 491 CURVE SMOOTH",
"572 580 OFFCURVE",
"512 670 OFFCURVE",
"351 670 CURVE SMOOTH",
"48 670 LINE",
"48 0 LINE"
);
},
{
closed = 1;
nodes = (
"304 547 LINE SMOOTH",
"354 547 OFFCURVE",
"386 516 OFFCURVE",
"386 465 CURVE SMOOTH",
"386 414 OFFCURVE",
"354 380 OFFCURVE",
"304 380 CURVE SMOOTH",
"234 380 LINE",
"234 547 LINE"
);
}
);
width = 595;
},
{
associatedMasterId = "061FC23D-6DC8-4BE4-BEC8-2F5AB93B127B";
layerId = "1AA5F6E2-DF4B-495D-86D2-D5C3C94106FB";
name = "Nov 6 18, 22:24";
paths = (
{
closed = 1;
nodes = (
"234 0 LINE",
"234 279 LINE",
"326 273 OFFCURVE",
"356 206 OFFCURVE",
"374 103 CURVE SMOOTH",
"383 51 LINE SMOOTH",
"389 16 OFFCURVE",
"410 0 OFFCURVE",
"447 0 CURVE SMOOTH",
"599 0 LINE",
"574 98 LINE SMOOTH",
"546 206 OFFCURVE",
"520 285 OFFCURVE",
"379 323 CURVE",
"379 328 LINE",
"522 329 OFFCURVE",
"572 410 OFFCURVE",
"572 491 CURVE SMOOTH",
"572 580 OFFCURVE",
"512 670 OFFCURVE",
"351 670 CURVE SMOOTH",
"48 670 LINE",
"48 0 LINE"
);
},
{
closed = 1;
nodes = (
"295 535 LINE SMOOTH",
"339 535 OFFCURVE",
"367 511 OFFCURVE",
"367 474 CURVE SMOOTH",
"367 436 OFFCURVE",
"339 410 OFFCURVE",
"295 410 CURVE SMOOTH",
"234 410 LINE",
"234 535 LINE"
);
}
);
width = 603;
},
{
annotations = (
{
position = "{305, 647}";
text = "Too Thick";
type = Text;
width = 118;
},
{
position = "{285, 546}";
type = Text;
}
);
associatedMasterId = "061FC23D-6DC8-4BE4-BEC8-2F5AB93B127B";
layerId = "FC4A563C-12EE-403C-880D-F5F35CF77FAD";
name = "Feb 3 19, 21:46";
paths = (
{
closed = 1;
nodes = (
"496 -1 LINE",
"381 175 LINE SMOOTH",
"318 271 OFFCURVE",
"236 286 OFFCURVE",
"168 300 CURVE",
"168 305 LINE",
"366 301 OFFCURVE",
"467 345 OFFCURVE",
"467 475 CURVE SMOOTH",
"467 605 OFFCURVE",
"376 670 OFFCURVE",
"168 670 CURVE SMOOTH",
"48 670 LINE",
"48 0 LINE",
"90 0 LINE",
"90 287 LINE",
"207 284 OFFCURVE",
"277 238 OFFCURVE",
"328 157 CURVE SMOOTH",
"397 47 LINE SMOOTH",
"420 11 OFFCURVE",
"464 -1 OFFCURVE",
"489 -1 CURVE SMOOTH"
);
},
{
closed = 1;
nodes = (
"90 632 LINE",
"168 632 LINE SMOOTH",
"296 632 OFFCURVE",
"427 620 OFFCURVE",
"427 475 CURVE SMOOTH",
"427 330 OFFCURVE",
"286 329 OFFCURVE",
"168 329 CURVE SMOOTH",
"90 329 LINE"
);
}
);
width = 500;
}
);
leftMetricsKey = H;
rightMetricsKey = "=V+8";
unicode = 0052;
},
{
glyphname = S;
lastChange = "2019-02-05 08:09:21 +0000";
layers = (
{
layerId = "FBD32BA2-3DE3-41DC-83E1-8A694E18FAAC";
paths = (
{
closed = 1;
nodes = (
"23 233 LINE",
"21 222 OFFCURVE",
"20 202 OFFCURVE",
"20 189 CURVE SMOOTH",
"20 35 OFFCURVE",
"161 -16 OFFCURVE",
"288 -16 CURVE SMOOTH",
"434 -16 OFFCURVE",
"555 52 OFFCURVE",
"555 186 CURVE SMOOTH",
"555 292 OFFCURVE",
"483 345 OFFCURVE",
"359 395 CURVE SMOOTH",
"290 423 LINE SMOOTH",
"258 436 OFFCURVE",
"221 457 OFFCURVE",
"221 497 CURVE SMOOTH",
"221 528 OFFCURVE",
"244 552 OFFCURVE",
"281 552 CURVE SMOOTH",
"321 552 OFFCURVE",
"347 523 OFFCURVE",
"347 490 CURVE SMOOTH",
"347 479 OFFCURVE",
"344 467 OFFCURVE",
"342 460 CURVE",
"541 460 LINE",
"543 474 OFFCURVE",
"545 491 OFFCURVE",
"545 509 CURVE SMOOTH",
"545 636 OFFCURVE",
"417 686 OFFCURVE",
"288 686 CURVE SMOOTH",
"146 686 OFFCURVE",
"33 627 OFFCURVE",
"33 498 CURVE SMOOTH",
"33 383 OFFCURVE",
"116 327 OFFCURVE",
"238 282 CURVE SMOOTH",
"306 257 LINE SMOOTH",
"335 246 OFFCURVE",
"363 226 OFFCURVE",
"363 189 CURVE SMOOTH",
"363 153 OFFCURVE",
"336 129 OFFCURVE",
"292 129 CURVE SMOOTH",
"249 129 OFFCURVE",
"220 152 OFFCURVE",
"220 206 CURVE SMOOTH",
"220 216 OFFCURVE",
"221 225 OFFCURVE",
"223 233 CURVE"
);
}
);
width = 575;
},
{
associatedMasterId = "FBD32BA2-3DE3-41DC-83E1-8A694E18FAAC";
layerId = "B871D088-CF70-4918-9D4D-14173B5A02F8";
name = "Mar 22 18, 14:27";
paths = (
{
closed = 1;
nodes = (
"16 212 OFFCURVE",
"16 208 OFFCURVE",
"16 199 CURVE SMOOTH",
"16 52 OFFCURVE",
"135 -16 OFFCURVE",
"275 -16 CURVE SMOOTH",
"406 -16 OFFCURVE",
"511 43 OFFCURVE",
"511 188 CURVE SMOOTH",
"511 296 OFFCURVE",
"454 357 OFFCURVE",
"325 385 CURVE SMOOTH",
"256 400 LINE SMOOTH",
"227 406 OFFCURVE",
"187 423 OFFCURVE",
"187 468 CURVE SMOOTH",
"187 507 OFFCURVE",
"215 532 OFFCURVE",
"258 532 CURVE SMOOTH",
"311 532 OFFCURVE",
"335 494 OFFCURVE",
"335 449 CURVE",
"500 449 LINE",
"501 459 OFFCURVE",
"501 463 OFFCURVE",
"501 471 CURVE SMOOTH",
"501 618 OFFCURVE",
"397 686 OFFCURVE",
"255 686 CURVE SMOOTH",
"125 686 OFFCURVE",
"17 628 OFFCURVE",
"17 481 CURVE SMOOTH",
"17 374 OFFCURVE",
"75 314 OFFCURVE",
"204 286 CURVE SMOOTH",
"272 271 LINE SMOOTH",
"302 264 OFFCURVE",
"342 247 OFFCURVE",
"342 202 CURVE SMOOTH",
"342 163 OFFCURVE",
"312 139 OFFCURVE",
"268 139 CURVE SMOOTH",
"206 139 OFFCURVE",
"187 183 OFFCURVE",
"187 222 CURVE",
"17 222 LINE"
);
}
);
width = 527;
},
{
associatedMasterId = "FBD32BA2-3DE3-41DC-83E1-8A694E18FAAC";
layerId = "AF2B480D-87A6-4D51-A4D0-A6C0B5740C04";
name = "Apr 11 18, 09:36";
paths = (
{
closed = 1;
nodes = (
"25 55 OFFCURVE",
"129 -13 OFFCURVE",
"271 -13 CURVE SMOOTH",
"401 -13 OFFCURVE",
"509 43 OFFCURVE",
"509 190 CURVE SMOOTH",
"509 288 OFFCURVE",
"463 343 OFFCURVE",
"354 376 CURVE SMOOTH",
"264 403 LINE SMOOTH",
"234 412 OFFCURVE",
"195 426 OFFCURVE",
"195 468 CURVE SMOOTH",
"195 507 OFFCURVE",
"223 532 OFFCURVE",
"266 532 CURVE SMOOTH",
"319 532 OFFCURVE",
"343 494 OFFCURVE",
"343 449 CURVE",
"508 449 LINE",
"509 459 OFFCURVE",
"509 463 OFFCURVE",
"509 471 CURVE SMOOTH",
"509 618 OFFCURVE",
"405 686 OFFCURVE",
"263 686 CURVE SMOOTH",
"133 686 OFFCURVE",
"25 630 OFFCURVE",
"25 483 CURVE SMOOTH",
"25 385 OFFCURVE",
"71 330 OFFCURVE",
"179 297 CURVE SMOOTH",
"270 269 LINE SMOOTH",
"300 260 OFFCURVE",
"339 246 OFFCURVE",
"339 205 CURVE SMOOTH",
"339 166 OFFCURVE",
"311 141 OFFCURVE",
"268 141 CURVE SMOOTH",
"215 141 OFFCURVE",
"191 179 OFFCURVE",
"191 224 CURVE",
"26 224 LINE",
"25 214 OFFCURVE",
"25 210 OFFCURVE",
"25 202 CURVE SMOOTH"
);
}
);
width = 545;
},
{
associatedMasterId = "FBD32BA2-3DE3-41DC-83E1-8A694E18FAAC";
layerId = "E268AEEC-1B8A-4B86-BF4E-A9C6E831BDC3";
name = "Apr 12 18, 11:08";
paths = (
{
closed = 1;
nodes = (
"25 55 OFFCURVE",
"129 -13 OFFCURVE",
"271 -13 CURVE SMOOTH",
"401 -13 OFFCURVE",
"509 43 OFFCURVE",
"509 190 CURVE SMOOTH",
"509 288 OFFCURVE",
"465 343 OFFCURVE",
"354 381 CURVE SMOOTH",
"264 412 LINE SMOOTH",
"235 422 OFFCURVE",
"195 438 OFFCURVE",
"195 477 CURVE SMOOTH",
"195 509 OFFCURVE",
"223 532 OFFCURVE",
"265 532 CURVE SMOOTH",
"319 532 OFFCURVE",
"343 494 OFFCURVE",
"343 449 CURVE",
"508 449 LINE",
"509 459 OFFCURVE",
"509 463 OFFCURVE",
"509 471 CURVE SMOOTH",
"509 618 OFFCURVE",
"405 686 OFFCURVE",
"263 686 CURVE SMOOTH",
"133 686 OFFCURVE",
"25 630 OFFCURVE",
"25 483 CURVE SMOOTH",
"25 385 OFFCURVE",
"71 329 OFFCURVE",
"179 292 CURVE SMOOTH",
"270 261 LINE SMOOTH",
"300 251 OFFCURVE",
"339 234 OFFCURVE",
"339 196 CURVE SMOOTH",
"339 164 OFFCURVE",
"311 141 OFFCURVE",
"269 141 CURVE SMOOTH",
"215 141 OFFCURVE",
"191 179 OFFCURVE",
"191 224 CURVE",
"26 224 LINE",
"25 214 OFFCURVE",
"25 210 OFFCURVE",
"25 202 CURVE SMOOTH"
);
}
);
width = 545;
},
{
associatedMasterId = "FBD32BA2-3DE3-41DC-83E1-8A694E18FAAC";
layerId = "AF6379E2-958B-4778-B8B4-7C562B8BE16F";
name = "Apr 12 18, 14:03";
paths = (
{
closed = 1;
nodes = (
"26 55 OFFCURVE",
"130 -13 OFFCURVE",
"272 -13 CURVE SMOOTH",
"402 -13 OFFCURVE",
"510 43 OFFCURVE",
"510 190 CURVE SMOOTH",
"510 288 OFFCURVE",
"466 343 OFFCURVE",
"355 382 CURVE SMOOTH",
"266 413 LINE SMOOTH",
"243 421 OFFCURVE",
"213 436 OFFCURVE",
"213 472 CURVE SMOOTH",
"213 502 OFFCURVE",
"235 522 OFFCURVE",
"267 522 CURVE SMOOTH",
"303 522 OFFCURVE",
"326 496 OFFCURVE",
"326 449 CURVE",
"509 449 LINE",
"510 459 OFFCURVE",
"510 463 OFFCURVE",
"510 471 CURVE SMOOTH",
"510 618 OFFCURVE",
"406 686 OFFCURVE",
"264 686 CURVE SMOOTH",
"134 686 OFFCURVE",
"26 630 OFFCURVE",
"26 483 CURVE SMOOTH",
"26 385 OFFCURVE",
"72 328 OFFCURVE",
"180 291 CURVE SMOOTH",
"270 260 LINE SMOOTH",
"294 252 OFFCURVE",
"323 236 OFFCURVE",
"323 201 CURVE SMOOTH",
"323 171 OFFCURVE",
"301 151 OFFCURVE",
"269 151 CURVE SMOOTH",
"233 151 OFFCURVE",
"210 177 OFFCURVE",
"210 224 CURVE",
"27 224 LINE",
"26 214 OFFCURVE",
"26 210 OFFCURVE",
"26 202 CURVE SMOOTH"
);
}
);
width = 536;
},
{
associatedMasterId = "FBD32BA2-3DE3-41DC-83E1-8A694E18FAAC";
layerId = "A5A87F33-42E7-48F1-97F9-5D3D16971A3E";
name = "Apr 22 18, 21:44";
paths = (
{
closed = 1;
nodes = (
"26 55 OFFCURVE",
"130 -13 OFFCURVE",
"272 -13 CURVE SMOOTH",
"402 -13 OFFCURVE",
"510 43 OFFCURVE",
"510 190 CURVE SMOOTH",
"510 288 OFFCURVE",
"466 341 OFFCURVE",
"354 381 CURVE SMOOTH",
"265 413 LINE SMOOTH",
"239 422 OFFCURVE",
"204 438 OFFCURVE",
"204 475 CURVE SMOOTH",
"204 507 OFFCURVE",
"229 527 OFFCURVE",
"265 527 CURVE SMOOTH",
"311 527 OFFCURVE",
"335 495 OFFCURVE",
"335 449 CURVE",
"509 449 LINE",
"510 459 OFFCURVE",
"510 463 OFFCURVE",
"510 471 CURVE SMOOTH",
"510 618 OFFCURVE",
"406 686 OFFCURVE",
"264 686 CURVE SMOOTH",
"134 686 OFFCURVE",
"26 630 OFFCURVE",
"26 483 CURVE SMOOTH",
"26 385 OFFCURVE",
"72 330 OFFCURVE",
"180 292 CURVE SMOOTH",
"270 260 LINE SMOOTH",
"298 250 OFFCURVE",
"331 235 OFFCURVE",
"331 199 CURVE SMOOTH",
"331 168 OFFCURVE",
"306 146 OFFCURVE",
"269 146 CURVE SMOOTH",
"224 146 OFFCURVE",
"201 178 OFFCURVE",
"201 224 CURVE",
"27 224 LINE",
"26 214 OFFCURVE",
"26 210 OFFCURVE",
"26 202 CURVE SMOOTH"
);
}
);
width = 536;
},
{
associatedMasterId = "FBD32BA2-3DE3-41DC-83E1-8A694E18FAAC";
layerId = "860FE1D4-A172-4A36-83C1-BB50FD450120";
name = "Aug 5 18, 15:01";
paths = (
{
closed = 1;
nodes = (
"390 -13 OFFCURVE",
"500 43 OFFCURVE",
"500 190 CURVE SMOOTH",
"500 288 OFFCURVE",
"456 341 OFFCURVE",
"344 381 CURVE SMOOTH",
"255 413 LINE SMOOTH",
"229 422 OFFCURVE",
"194 438 OFFCURVE",
"194 476 CURVE SMOOTH",
"194 507 OFFCURVE",
"218 527 OFFCURVE",
"258 527 CURVE SMOOTH",
"300 527 OFFCURVE",
"325 505 OFFCURVE",
"325 459 CURVE",
"500 459 LINE",
"502 473 OFFCURVE",
"503 489 OFFCURVE",
"503 500 CURVE SMOOTH",
"503 625 OFFCURVE",
"390 686 OFFCURVE",
"257 686 CURVE SMOOTH",
"127 686 OFFCURVE",
"16 630 OFFCURVE",
"16 483 CURVE SMOOTH",
"16 385 OFFCURVE",
"62 330 OFFCURVE",
"170 292 CURVE SMOOTH",
"260 260 LINE SMOOTH",
"288 250 OFFCURVE",
"321 235 OFFCURVE",
"321 199 CURVE SMOOTH",
"321 168 OFFCURVE",
"296 146 OFFCURVE",
"259 146 CURVE SMOOTH",
"214 146 OFFCURVE",
"191 178 OFFCURVE",
"191 224 CURVE",
"17 224 LINE",
"16 214 OFFCURVE",
"16 210 OFFCURVE",
"16 202 CURVE SMOOTH",
"16 55 OFFCURVE",
"118 -13 OFFCURVE",
"260 -13 CURVE SMOOTH"
);
}
);
width = 519;
},
{
associatedMasterId = "FBD32BA2-3DE3-41DC-83E1-8A694E18FAAC";
layerId = "B14EA9AD-9773-44D9-B52A-7B02B03C9593";
name = "Aug 5 18, 15:01";
paths = (
{
closed = 1;
nodes = (
"390 -13 OFFCURVE",
"500 43 OFFCURVE",
"500 190 CURVE SMOOTH",
"500 288 OFFCURVE",
"456 341 OFFCURVE",
"344 381 CURVE SMOOTH",
"255 413 LINE SMOOTH",
"229 422 OFFCURVE",
"194 438 OFFCURVE",
"194 476 CURVE SMOOTH",
"194 507 OFFCURVE",
"218 527 OFFCURVE",
"258 527 CURVE SMOOTH",
"300 527 OFFCURVE",
"325 505 OFFCURVE",
"325 459 CURVE",
"500 459 LINE",
"502 473 OFFCURVE",
"503 489 OFFCURVE",
"503 500 CURVE SMOOTH",
"503 625 OFFCURVE",
"390 686 OFFCURVE",
"257 686 CURVE SMOOTH",
"127 686 OFFCURVE",
"16 630 OFFCURVE",
"16 483 CURVE SMOOTH",
"16 385 OFFCURVE",
"62 330 OFFCURVE",
"170 292 CURVE SMOOTH",
"260 260 LINE SMOOTH",
"288 250 OFFCURVE",
"321 235 OFFCURVE",
"321 199 CURVE SMOOTH",
"321 168 OFFCURVE",
"296 146 OFFCURVE",
"259 146 CURVE SMOOTH",
"214 146 OFFCURVE",
"191 178 OFFCURVE",
"191 224 CURVE",
"17 224 LINE",
"16 214 OFFCURVE",
"16 210 OFFCURVE",
"16 202 CURVE SMOOTH",
"16 55 OFFCURVE",
"118 -13 OFFCURVE",
"260 -13 CURVE SMOOTH"
);
}
);
width = 519;
},
{
associatedMasterId = "FBD32BA2-3DE3-41DC-83E1-8A694E18FAAC";
layerId = "6F62F4D0-030F-4417-BDEC-A2D95209B9A3";
name = "Sep 1 18, 22:00";
paths = (
{
closed = 1;
nodes = (
"16 212 OFFCURVE",
"16 208 OFFCURVE",
"16 199 CURVE SMOOTH",
"16 52 OFFCURVE",
"135 -16 OFFCURVE",
"275 -16 CURVE SMOOTH",
"406 -16 OFFCURVE",
"511 43 OFFCURVE",
"511 188 CURVE SMOOTH",
"511 296 OFFCURVE",
"454 357 OFFCURVE",
"325 385 CURVE SMOOTH",
"256 400 LINE SMOOTH",
"226 406 OFFCURVE",
"187 423 OFFCURVE",
"187 468 CURVE SMOOTH",
"187 507 OFFCURVE",
"215 532 OFFCURVE",
"258 532 CURVE SMOOTH",
"311 532 OFFCURVE",
"335 494 OFFCURVE",
"335 449 CURVE",
"499 449 LINE",
"500 457 OFFCURVE",
"501 464 OFFCURVE",
"501 483 CURVE SMOOTH",
"501 619 OFFCURVE",
"397 686 OFFCURVE",
"255 686 CURVE SMOOTH",
"125 686 OFFCURVE",
"17 628 OFFCURVE",
"17 481 CURVE SMOOTH",
"17 374 OFFCURVE",
"75 314 OFFCURVE",
"204 286 CURVE SMOOTH",
"272 271 LINE SMOOTH",
"302 264 OFFCURVE",
"342 247 OFFCURVE",
"342 202 CURVE SMOOTH",
"342 163 OFFCURVE",
"312 139 OFFCURVE",
"268 139 CURVE SMOOTH",
"206 139 OFFCURVE",
"187 183 OFFCURVE",
"187 222 CURVE",
"17 222 LINE"
);
}
);
width = 527;
},
{
associatedMasterId = "FBD32BA2-3DE3-41DC-83E1-8A694E18FAAC";
layerId = "C7AB17EF-B056-4004-8F26-2A1CFDF764E3";
name = "Sep 1 18, 22:17";
paths = (
{
closed = 1;
nodes = (
"16 212 OFFCURVE",
"16 208 OFFCURVE",
"16 199 CURVE SMOOTH",
"16 52 OFFCURVE",
"135 -16 OFFCURVE",
"275 -16 CURVE SMOOTH",
"406 -16 OFFCURVE",
"511 43 OFFCURVE",
"511 188 CURVE SMOOTH",
"511 296 OFFCURVE",
"454 357 OFFCURVE",
"325 385 CURVE SMOOTH",
"256 400 LINE SMOOTH",
"226 406 OFFCURVE",
"187 423 OFFCURVE",
"187 468 CURVE SMOOTH",
"187 507 OFFCURVE",
"215 532 OFFCURVE",
"258 532 CURVE SMOOTH",
"311 532 OFFCURVE",
"335 494 OFFCURVE",
"335 449 CURVE",
"499 449 LINE",
"500 457 OFFCURVE",
"501 464 OFFCURVE",
"501 483 CURVE SMOOTH",
"501 619 OFFCURVE",
"397 686 OFFCURVE",
"255 686 CURVE SMOOTH",
"125 686 OFFCURVE",
"17 628 OFFCURVE",
"17 481 CURVE SMOOTH",
"17 374 OFFCURVE",
"75 314 OFFCURVE",
"204 286 CURVE SMOOTH",
"272 271 LINE SMOOTH",
"302 264 OFFCURVE",
"342 247 OFFCURVE",
"342 202 CURVE SMOOTH",
"342 163 OFFCURVE",
"312 139 OFFCURVE",
"268 139 CURVE SMOOTH",
"206 139 OFFCURVE",
"187 183 OFFCURVE",
"187 222 CURVE",
"17 222 LINE"
);
}
);
width = 527;
},
{
associatedMasterId = "FBD32BA2-3DE3-41DC-83E1-8A694E18FAAC";
backgroundImage = {
crop = "{{0, 0}, {519, 654}}";
imagePath = "../../../Screenshot 2018-10-21 at 18.23.19.png";
};
layerId = "FB1D06CA-5F90-4E5C-AC26-864193E4221E";
name = "Sep 1 18, 22:17";
paths = (
{
closed = 1;
nodes = (
"353 -16 OFFCURVE",
"454 13 OFFCURVE",
"524 69 OFFCURVE",
"562 151 OFFCURVE",
"562 202 QCURVE SMOOTH",
"562 253 OFFCURVE",
"519 325 OFFCURVE",
"450 374 OFFCURVE",
"363 408 OFFCURVE",
"320 424 QCURVE SMOOTH",
"275 440 OFFCURVE",
"229 474 OFFCURVE",
"229 500 QCURVE SMOOTH",
"229 527 OFFCURVE",
"265 552 OFFCURVE",
"290 552 QCURVE SMOOTH",
"356 552 OFFCURVE",
"356 469 QCURVE",
"554 469 LINE",
"554 508 OFFCURVE",
"527 586 OFFCURVE",
"466 648 OFFCURVE",
"367 686 OFFCURVE",
"294 686 QCURVE SMOOTH",
"243 686 OFFCURVE",
"149 664 OFFCURVE",
"75 618 OFFCURVE",
"30 544 OFFCURVE",
"30 493 QCURVE SMOOTH",
"30 442 OFFCURVE",
"68 373 OFFCURVE",
"132 324 OFFCURVE",
"217 288 OFFCURVE",
"262 269 QCURVE SMOOTH",
"315 249 OFFCURVE",
"363 217 OFFCURVE",
"363 190 QCURVE SMOOTH",
"363 163 OFFCURVE",
"328 132 OFFCURVE",
"298 132 QCURVE SMOOTH",
"260 132 OFFCURVE",
"214 181 OFFCURVE",
"214 227 QCURVE",
"16 227 LINE",
"16 168 OFFCURVE",
"55 77 OFFCURVE",
"126 16 OFFCURVE",
"227 -16 OFFCURVE",
"290 -16 QCURVE SMOOTH"
);
}
);
width = 578;
},
{
associatedMasterId = "FBD32BA2-3DE3-41DC-83E1-8A694E18FAAC";
layerId = "9E2A51E8-72F1-4952-812C-2C0916678D61";
name = "Oct 21 18, 18:22";
paths = (
{
closed = 1;
nodes = (
"16 212 OFFCURVE",
"16 208 OFFCURVE",
"16 199 CURVE SMOOTH",
"16 52 OFFCURVE",
"135 -16 OFFCURVE",
"270 -16 CURVE SMOOTH",
"406 -16 OFFCURVE",
"511 53 OFFCURVE",
"511 194 CURVE SMOOTH",
"511 306 OFFCURVE",
"449 340 OFFCURVE",
"325 385 CURVE SMOOTH",
"256 410 LINE SMOOTH",
"227 420 OFFCURVE",
"187 436 OFFCURVE",
"187 476 CURVE SMOOTH",
"187 510 OFFCURVE",
"215 532 OFFCURVE",
"256 532 CURVE SMOOTH",
"311 532 OFFCURVE",
"335 494 OFFCURVE",
"335 449 CURVE",
"499 449 LINE",
"500 457 OFFCURVE",
"501 464 OFFCURVE",
"501 483 CURVE SMOOTH",
"501 619 OFFCURVE",
"397 686 OFFCURVE",
"255 686 CURVE SMOOTH",
"125 686 OFFCURVE",
"17 628 OFFCURVE",
"17 484 CURVE SMOOTH",
"17 374 OFFCURVE",
"80 332 OFFCURVE",
"204 286 CURVE SMOOTH",
"272 261 LINE SMOOTH",
"301 250 OFFCURVE",
"342 235 OFFCURVE",
"342 195 CURVE SMOOTH",
"342 161 OFFCURVE",
"312 139 OFFCURVE",
"268 139 CURVE SMOOTH",
"206 139 OFFCURVE",
"187 183 OFFCURVE",
"187 222 CURVE",
"17 222 LINE"
);
}
);
width = 527;
},
{
associatedMasterId = "FBD32BA2-3DE3-41DC-83E1-8A694E18FAAC";
backgroundImage = {
crop = "{{0, 0}, {519, 654}}";
imagePath = "../../../Screenshot 2018-10-21 at 18.23.19.png";
transform = "{1.15617, 0, 0, 1.15617, -20, -49}";
};
layerId = "CE04E257-F434-4D2F-98A4-1E5296D8F183";
name = "Oct 21 18, 18:40";
paths = (
{
closed = 1;
nodes = (
"19 233 LINE",
"17 222 OFFCURVE",
"16 202 OFFCURVE",
"16 189 CURVE SMOOTH",
"16 35 OFFCURVE",
"157 -16 OFFCURVE",
"281 -16 CURVE SMOOTH",
"430 -16 OFFCURVE",
"551 57 OFFCURVE",
"551 201 CURVE SMOOTH",
"551 307 OFFCURVE",
"479 345 OFFCURVE",
"355 395 CURVE SMOOTH",
"286 423 LINE SMOOTH",
"254 436 OFFCURVE",
"217 457 OFFCURVE",
"217 497 CURVE SMOOTH",
"217 528 OFFCURVE",
"240 552 OFFCURVE",
"277 552 CURVE SMOOTH",
"317 552 OFFCURVE",
"343 523 OFFCURVE",
"343 490 CURVE SMOOTH",
"343 479 OFFCURVE",
"340 467 OFFCURVE",
"338 460 CURVE",
"537 460 LINE",
"539 474 OFFCURVE",
"541 491 OFFCURVE",
"541 509 CURVE SMOOTH",
"541 645 OFFCURVE",
"413 686 OFFCURVE",
"284 686 CURVE SMOOTH",
"142 686 OFFCURVE",
"19 636 OFFCURVE",
"19 498 CURVE SMOOTH",
"19 380 OFFCURVE",
"112 327 OFFCURVE",
"234 282 CURVE SMOOTH",
"302 257 LINE SMOOTH",
"331 246 OFFCURVE",
"359 226 OFFCURVE",
"359 189 CURVE SMOOTH",
"359 153 OFFCURVE",
"332 129 OFFCURVE",
"288 129 CURVE SMOOTH",
"245 129 OFFCURVE",
"216 152 OFFCURVE",
"216 206 CURVE SMOOTH",
"216 216 OFFCURVE",
"217 225 OFFCURVE",
"219 233 CURVE"
);
}
);
width = 567;
},
{
associatedMasterId = "FBD32BA2-3DE3-41DC-83E1-8A694E18FAAC";
backgroundImage = {
crop = "{{0, 0}, {519, 654}}";
imagePath = "../../../Screenshot 2018-10-21 at 18.23.19.png";
transform = "{1.15617, 0, 0, 1.15617, -20, -49}";
};
guideLines = (
{
angle = 157.9128;
position = "{240, 279}";
}
);
layerId = "8AE1701B-EEEF-4F38-BE53-6C1C7F2DE7DA";
name = "Nov 4 18, 21:08";
paths = (
{
closed = 1;
nodes = (
"16 43 OFFCURVE",
"148 -16 OFFCURVE",
"279 -16 CURVE SMOOTH",
"419 -16 OFFCURVE",
"544 52 OFFCURVE",
"544 190 CURVE SMOOTH",
"544 296 OFFCURVE",
"470 349 OFFCURVE",
"355 395 CURVE SMOOTH",
"286 423 LINE SMOOTH",
"254 436 OFFCURVE",
"217 457 OFFCURVE",
"217 496 CURVE SMOOTH",
"217 528 OFFCURVE",
"241 552 OFFCURVE",
"278 552 CURVE SMOOTH",
"318 552 OFFCURVE",
"343 523 OFFCURVE",
"343 490 CURVE SMOOTH",
"343 479 OFFCURVE",
"340 467 OFFCURVE",
"338 460 CURVE",
"537 460 LINE",
"539 474 OFFCURVE",
"541 491 OFFCURVE",
"541 509 CURVE SMOOTH",
"541 645 OFFCURVE",
"412 686 OFFCURVE",
"281 686 CURVE SMOOTH",
"141 686 OFFCURVE",
"19 636 OFFCURVE",
"19 498 CURVE SMOOTH",
"19 392 OFFCURVE",
"90 339 OFFCURVE",
"205 293 CURVE SMOOTH",
"274 265 LINE SMOOTH",
"306 252 OFFCURVE",
"346 231 OFFCURVE",
"346 192 CURVE SMOOTH",
"346 160 OFFCURVE",
"319 136 OFFCURVE",
"282 136 CURVE SMOOTH",
"242 136 OFFCURVE",
"213 165 OFFCURVE",
"213 198 CURVE SMOOTH",
"213 209 OFFCURVE",
"216 221 OFFCURVE",
"218 228 CURVE",
"20 228 LINE",
"18 214 OFFCURVE",
"16 197 OFFCURVE",
"16 179 CURVE SMOOTH"
);
}
);
width = 560;
},
{
associatedMasterId = "FBD32BA2-3DE3-41DC-83E1-8A694E18FAAC";
guideLines = (
{
angle = 157.9128;
position = "{240, 279}";
}
);
layerId = "1FBCFBE8-7156-4FC9-A833-6D9E4F1144AD";
name = "Nov 4 18, 21:45";
paths = (
{
closed = 1;
nodes = (
"16 43 OFFCURVE",
"148 -16 OFFCURVE",
"279 -16 CURVE SMOOTH",
"419 -16 OFFCURVE",
"544 45 OFFCURVE",
"544 183 CURVE SMOOTH",
"544 289 OFFCURVE",
"470 351 OFFCURVE",
"355 398 CURVE SMOOTH",
"286 426 LINE SMOOTH",
"254 439 OFFCURVE",
"217 457 OFFCURVE",
"217 496 CURVE SMOOTH",
"217 528 OFFCURVE",
"241 552 OFFCURVE",
"283 552 CURVE SMOOTH",
"318 552 OFFCURVE",
"354 535 OFFCURVE",
"354 475 CURVE",
"536 475 LINE",
"531 645 OFFCURVE",
"412 686 OFFCURVE",
"281 686 CURVE SMOOTH",
"141 686 OFFCURVE",
"29 636 OFFCURVE",
"29 497 CURVE SMOOTH",
"29 392 OFFCURVE",
"90 340 OFFCURVE",
"205 293 CURVE SMOOTH",
"274 265 LINE SMOOTH",
"306 252 OFFCURVE",
"356 232 OFFCURVE",
"356 189 CURVE SMOOTH",
"356 157 OFFCURVE",
"327 136 OFFCURVE",
"289 136 CURVE SMOOTH",
"245 136 OFFCURVE",
"209 165 OFFCURVE",
"209 220 CURVE",
"16 220 LINE"
);
}
);
width = 560;
},
{
associatedMasterId = "FBD32BA2-3DE3-41DC-83E1-8A694E18FAAC";
guideLines = (
{
angle = 157.9128;
position = "{244, 279}";
}
);
layerId = "9E5A0653-74FE-4ACD-B467-866A4C5B9DA8";
name = "Nov 10 18, 20:48";
paths = (
{
closed = 1;
nodes = (
"30 53 OFFCURVE",
"170 -16 OFFCURVE",
"292 -16 CURVE SMOOTH",
"418 -16 OFFCURVE",
"548 57 OFFCURVE",
"548 190 CURVE SMOOTH",
"548 291 OFFCURVE",
"474 351 OFFCURVE",
"359 398 CURVE SMOOTH",
"290 426 LINE SMOOTH",
"258 439 OFFCURVE",
"221 459 OFFCURVE",
"221 493 CURVE SMOOTH",
"221 521 OFFCURVE",
"245 543 OFFCURVE",
"286 543 CURVE SMOOTH",
"322 543 OFFCURVE",
"358 526 OFFCURVE",
"358 475 CURVE",
"540 475 LINE",
"525 645 OFFCURVE",
"385 686 OFFCURVE",
"279 686 CURVE SMOOTH",
"151 686 OFFCURVE",
"33 626 OFFCURVE",
"33 502 CURVE SMOOTH",
"33 402 OFFCURVE",
"111 333 OFFCURVE",
"209 293 CURVE SMOOTH",
"278 265 LINE SMOOTH",
"310 252 OFFCURVE",
"360 231 OFFCURVE",
"360 195 CURVE SMOOTH",
"360 166 OFFCURVE",
"329 146 OFFCURVE",
"292 146 CURVE SMOOTH",
"247 146 OFFCURVE",
"213 175 OFFCURVE",
"213 220 CURVE",
"20 220 LINE"
);
}
);
width = 568;
},
{
associatedMasterId = "FBD32BA2-3DE3-41DC-83E1-8A694E18FAAC";
layerId = "9C14E296-D0C7-4226-A335-C744E4CCCDAB";
name = "Nov 10 18, 21:19";
paths = (
{
closed = 1;
nodes = (
"21 208 LINE",
"0 70 OFFCURVE",
"96 -16 OFFCURVE",
"252 -16 CURVE SMOOTH",
"395 -16 OFFCURVE",
"484 46 OFFCURVE",
"484 147 CURVE SMOOTH",
"484 212 OFFCURVE",
"448 273 OFFCURVE",
"400 327 CURVE SMOOTH",
"354 378 LINE SMOOTH",
"334 401 OFFCURVE",
"285 447 OFFCURVE",
"285 490 CURVE SMOOTH",
"285 520 OFFCURVE",
"309 544 OFFCURVE",
"346 544 CURVE SMOOTH",
"382 544 OFFCURVE",
"406 522 OFFCURVE",
"412 487 CURVE",
"529 556 LINE",
"498 646 OFFCURVE",
"422 686 OFFCURVE",
"315 686 CURVE SMOOTH",
"196 686 OFFCURVE",
"109 611 OFFCURVE",
"109 500 CURVE SMOOTH",
"109 418 OFFCURVE",
"157 366 OFFCURVE",
"188 328 CURVE SMOOTH",
"271 226 LINE SMOOTH",
"290 202 OFFCURVE",
"300 183 OFFCURVE",
"300 163 CURVE SMOOTH",
"300 135 OFFCURVE",
"279 118 OFFCURVE",
"247 118 CURVE SMOOTH",
"188 118 OFFCURVE",
"172 171 OFFCURVE",
"183 208 CURVE"
);
}
);
width = 535;
},
{
associatedMasterId = "FBD32BA2-3DE3-41DC-83E1-8A694E18FAAC";
layerId = "7646DC0C-76E5-496D-919F-14D03856AC88";
name = "Dec 2 18, 21:54";
paths = (
{
closed = 1;
nodes = (
"30 53 OFFCURVE",
"170 -16 OFFCURVE",
"292 -16 CURVE SMOOTH",
"418 -16 OFFCURVE",
"548 57 OFFCURVE",
"548 190 CURVE SMOOTH",
"548 291 OFFCURVE",
"474 351 OFFCURVE",
"359 398 CURVE SMOOTH",
"290 426 LINE SMOOTH",
"258 439 OFFCURVE",
"221 459 OFFCURVE",
"221 493 CURVE SMOOTH",
"221 521 OFFCURVE",
"245 543 OFFCURVE",
"286 543 CURVE SMOOTH",
"322 543 OFFCURVE",
"358 526 OFFCURVE",
"358 475 CURVE",
"540 475 LINE",
"525 645 OFFCURVE",
"385 686 OFFCURVE",
"279 686 CURVE SMOOTH",
"151 686 OFFCURVE",
"33 626 OFFCURVE",
"33 502 CURVE SMOOTH",
"33 402 OFFCURVE",
"111 333 OFFCURVE",
"209 293 CURVE SMOOTH",
"278 265 LINE SMOOTH",
"310 252 OFFCURVE",
"360 231 OFFCURVE",
"360 195 CURVE SMOOTH",
"360 166 OFFCURVE",
"329 146 OFFCURVE",
"292 146 CURVE SMOOTH",
"247 146 OFFCURVE",
"213 175 OFFCURVE",
"213 220 CURVE",
"20 220 LINE"
);
}
);
width = 568;
},
{
associatedMasterId = "FBD32BA2-3DE3-41DC-83E1-8A694E18FAAC";
layerId = "B6D1EC16-0AA5-4653-806A-A78B646BC20B";
name = "Dec 4 18, 01:03";
paths = (
{
closed = 1;
nodes = (
"23 233 LINE",
"21 222 OFFCURVE",
"20 202 OFFCURVE",
"20 189 CURVE SMOOTH",
"20 35 OFFCURVE",
"161 -16 OFFCURVE",
"285 -16 CURVE SMOOTH",
"434 -16 OFFCURVE",
"555 57 OFFCURVE",
"555 201 CURVE SMOOTH",
"555 307 OFFCURVE",
"483 345 OFFCURVE",
"359 395 CURVE SMOOTH",
"290 423 LINE SMOOTH",
"258 436 OFFCURVE",
"221 457 OFFCURVE",
"221 497 CURVE SMOOTH",
"221 528 OFFCURVE",
"244 552 OFFCURVE",
"281 552 CURVE SMOOTH",
"321 552 OFFCURVE",
"347 523 OFFCURVE",
"347 490 CURVE SMOOTH",
"347 479 OFFCURVE",
"344 467 OFFCURVE",
"342 460 CURVE",
"541 460 LINE",
"543 474 OFFCURVE",
"545 491 OFFCURVE",
"545 509 CURVE SMOOTH",
"545 645 OFFCURVE",
"417 686 OFFCURVE",
"288 686 CURVE SMOOTH",
"146 686 OFFCURVE",
"23 636 OFFCURVE",
"23 498 CURVE SMOOTH",
"23 380 OFFCURVE",
"116 327 OFFCURVE",
"238 282 CURVE SMOOTH",
"306 257 LINE SMOOTH",
"335 246 OFFCURVE",
"363 226 OFFCURVE",
"363 189 CURVE SMOOTH",
"363 153 OFFCURVE",
"336 129 OFFCURVE",
"292 129 CURVE SMOOTH",
"249 129 OFFCURVE",
"220 152 OFFCURVE",
"220 206 CURVE SMOOTH",
"220 216 OFFCURVE",
"221 225 OFFCURVE",
"223 233 CURVE"
);
}
);
width = 575;
},
{
layerId = "061FC23D-6DC8-4BE4-BEC8-2F5AB93B127B";
paths = (
{
closed = 1;
nodes = (
"23 233 LINE",
"21 222 OFFCURVE",
"20 202 OFFCURVE",
"20 189 CURVE SMOOTH",
"20 35 OFFCURVE",
"161 -16 OFFCURVE",
"288 -16 CURVE SMOOTH",
"434 -16 OFFCURVE",
"555 52 OFFCURVE",
"555 186 CURVE SMOOTH",
"555 273 OFFCURVE",
"491 325 OFFCURVE",
"359 351 CURVE SMOOTH",
"287 365 LINE SMOOTH",
"170 388 OFFCURVE",
"73 400 OFFCURVE",
"73 497 CURVE SMOOTH",
"73 598 OFFCURVE",
"139 648 OFFCURVE",
"288 648 CURVE SMOOTH",
"410 648 OFFCURVE",
"503 606 OFFCURVE",
"503 495 CURVE SMOOTH",
"503 479 OFFCURVE",
"501 467 OFFCURVE",
"499 460 CURVE",
"541 460 LINE",
"543 474 OFFCURVE",
"545 491 OFFCURVE",
"545 508 CURVE SMOOTH",
"545 636 OFFCURVE",
"417 686 OFFCURVE",
"288 686 CURVE SMOOTH",
"146 686 OFFCURVE",
"33 627 OFFCURVE",
"33 498 CURVE SMOOTH",
"33 383 OFFCURVE",
"112 356 OFFCURVE",
"239 333 CURVE SMOOTH",
"310 320 LINE SMOOTH",
"464 292 OFFCURVE",
"514 254 OFFCURVE",
"514 186 CURVE SMOOTH",
"514 90 OFFCURVE",
"424 22 OFFCURVE",
"288 22 CURVE SMOOTH",
"180 22 OFFCURVE",
"60 65 OFFCURVE",
"60 189 CURVE SMOOTH",
"60 207 OFFCURVE",
"62 223 OFFCURVE",
"64 233 CURVE"
);
}
);
width = 575;
},
{
associatedMasterId = "061FC23D-6DC8-4BE4-BEC8-2F5AB93B127B";
layerId = "D9E81ABA-81C3-47E3-B7B0-62CBD791B32D";
name = "Apr 11 18, 09:36";
paths = (
{
closed = 1;
nodes = (
"25 55 OFFCURVE",
"129 -13 OFFCURVE",
"271 -13 CURVE SMOOTH",
"401 -13 OFFCURVE",
"509 43 OFFCURVE",
"509 190 CURVE SMOOTH",
"509 288 OFFCURVE",
"463 343 OFFCURVE",
"354 376 CURVE SMOOTH",
"264 403 LINE SMOOTH",
"234 412 OFFCURVE",
"195 426 OFFCURVE",
"195 468 CURVE SMOOTH",
"195 507 OFFCURVE",
"223 532 OFFCURVE",
"266 532 CURVE SMOOTH",
"319 532 OFFCURVE",
"343 494 OFFCURVE",
"343 449 CURVE",
"508 449 LINE",
"509 459 OFFCURVE",
"509 463 OFFCURVE",
"509 471 CURVE SMOOTH",
"509 618 OFFCURVE",
"405 686 OFFCURVE",
"263 686 CURVE SMOOTH",
"133 686 OFFCURVE",
"25 630 OFFCURVE",
"25 483 CURVE SMOOTH",
"25 385 OFFCURVE",
"71 330 OFFCURVE",
"179 297 CURVE SMOOTH",
"270 269 LINE SMOOTH",
"300 260 OFFCURVE",
"339 246 OFFCURVE",
"339 205 CURVE SMOOTH",
"339 166 OFFCURVE",
"311 141 OFFCURVE",
"268 141 CURVE SMOOTH",
"215 141 OFFCURVE",
"191 179 OFFCURVE",
"191 224 CURVE",
"26 224 LINE",
"25 214 OFFCURVE",
"25 210 OFFCURVE",
"25 202 CURVE SMOOTH"
);
}
);
width = 545;
},
{
associatedMasterId = "061FC23D-6DC8-4BE4-BEC8-2F5AB93B127B";
layerId = "A6EC8A3C-F3B0-4C18-AB27-08F308E6413A";
name = "Apr 12 18, 11:08";
paths = (
{
closed = 1;
nodes = (
"25 55 OFFCURVE",
"129 -13 OFFCURVE",
"271 -13 CURVE SMOOTH",
"401 -13 OFFCURVE",
"509 43 OFFCURVE",
"509 190 CURVE SMOOTH",
"509 288 OFFCURVE",
"465 343 OFFCURVE",
"354 381 CURVE SMOOTH",
"264 412 LINE SMOOTH",
"235 422 OFFCURVE",
"195 438 OFFCURVE",
"195 477 CURVE SMOOTH",
"195 509 OFFCURVE",
"223 532 OFFCURVE",
"265 532 CURVE SMOOTH",
"319 532 OFFCURVE",
"343 494 OFFCURVE",
"343 449 CURVE",
"508 449 LINE",
"509 459 OFFCURVE",
"509 463 OFFCURVE",
"509 471 CURVE SMOOTH",
"509 618 OFFCURVE",
"405 686 OFFCURVE",
"263 686 CURVE SMOOTH",
"133 686 OFFCURVE",
"25 630 OFFCURVE",
"25 483 CURVE SMOOTH",
"25 385 OFFCURVE",
"71 329 OFFCURVE",
"179 292 CURVE SMOOTH",
"270 261 LINE SMOOTH",
"300 251 OFFCURVE",
"339 234 OFFCURVE",
"339 196 CURVE SMOOTH",
"339 164 OFFCURVE",
"311 141 OFFCURVE",
"269 141 CURVE SMOOTH",
"215 141 OFFCURVE",
"191 179 OFFCURVE",
"191 224 CURVE",
"26 224 LINE",
"25 214 OFFCURVE",
"25 210 OFFCURVE",
"25 202 CURVE SMOOTH"
);
}
);
width = 545;
},
{
associatedMasterId = "061FC23D-6DC8-4BE4-BEC8-2F5AB93B127B";
layerId = "4F0ACA20-9C16-4BC8-B7FD-224D19AEBECA";
name = "Apr 12 18, 14:03";
paths = (
{
closed = 1;
nodes = (
"26 55 OFFCURVE",
"130 -13 OFFCURVE",
"272 -13 CURVE SMOOTH",
"402 -13 OFFCURVE",
"510 43 OFFCURVE",
"510 190 CURVE SMOOTH",
"510 288 OFFCURVE",
"466 343 OFFCURVE",
"355 382 CURVE SMOOTH",
"266 413 LINE SMOOTH",
"243 421 OFFCURVE",
"213 436 OFFCURVE",
"213 472 CURVE SMOOTH",
"213 502 OFFCURVE",
"235 522 OFFCURVE",
"267 522 CURVE SMOOTH",
"303 522 OFFCURVE",
"326 496 OFFCURVE",
"326 449 CURVE",
"509 449 LINE",
"510 459 OFFCURVE",
"510 463 OFFCURVE",
"510 471 CURVE SMOOTH",
"510 618 OFFCURVE",
"406 686 OFFCURVE",
"264 686 CURVE SMOOTH",
"134 686 OFFCURVE",
"26 630 OFFCURVE",
"26 483 CURVE SMOOTH",
"26 385 OFFCURVE",
"72 328 OFFCURVE",
"180 291 CURVE SMOOTH",
"270 260 LINE SMOOTH",
"294 252 OFFCURVE",
"323 236 OFFCURVE",
"323 201 CURVE SMOOTH",
"323 171 OFFCURVE",
"301 151 OFFCURVE",
"269 151 CURVE SMOOTH",
"233 151 OFFCURVE",
"210 177 OFFCURVE",
"210 224 CURVE",
"27 224 LINE",
"26 214 OFFCURVE",
"26 210 OFFCURVE",
"26 202 CURVE SMOOTH"
);
}
);
width = 536;
},
{
associatedMasterId = "061FC23D-6DC8-4BE4-BEC8-2F5AB93B127B";
layerId = "6210CAA9-E977-40B7-9C9B-042D5BE04ADD";
name = "Apr 22 18, 21:44";
paths = (
{
closed = 1;
nodes = (
"26 55 OFFCURVE",
"130 -13 OFFCURVE",
"272 -13 CURVE SMOOTH",
"402 -13 OFFCURVE",
"510 43 OFFCURVE",
"510 190 CURVE SMOOTH",
"510 288 OFFCURVE",
"466 341 OFFCURVE",
"354 381 CURVE SMOOTH",
"265 413 LINE SMOOTH",
"239 422 OFFCURVE",
"204 438 OFFCURVE",
"204 475 CURVE SMOOTH",
"204 507 OFFCURVE",
"229 527 OFFCURVE",
"265 527 CURVE SMOOTH",
"311 527 OFFCURVE",
"335 495 OFFCURVE",
"335 449 CURVE",
"509 449 LINE",
"510 459 OFFCURVE",
"510 463 OFFCURVE",
"510 471 CURVE SMOOTH",
"510 618 OFFCURVE",
"406 686 OFFCURVE",
"264 686 CURVE SMOOTH",
"134 686 OFFCURVE",
"26 630 OFFCURVE",
"26 483 CURVE SMOOTH",
"26 385 OFFCURVE",
"72 330 OFFCURVE",
"180 292 CURVE SMOOTH",
"270 260 LINE SMOOTH",
"298 250 OFFCURVE",
"331 235 OFFCURVE",
"331 199 CURVE SMOOTH",
"331 168 OFFCURVE",
"306 146 OFFCURVE",
"269 146 CURVE SMOOTH",
"224 146 OFFCURVE",
"201 178 OFFCURVE",
"201 224 CURVE",
"27 224 LINE",
"26 214 OFFCURVE",
"26 210 OFFCURVE",
"26 202 CURVE SMOOTH"
);
}
);
width = 536;
},
{
associatedMasterId = "061FC23D-6DC8-4BE4-BEC8-2F5AB93B127B";
layerId = "B99CA7A1-6535-4370-A5C8-021B0F44896C";
name = "Sep 1 18, 22:00";
paths = (
{
closed = 1;
nodes = (
"16 212 OFFCURVE",
"16 208 OFFCURVE",
"16 199 CURVE SMOOTH",
"16 52 OFFCURVE",
"135 -16 OFFCURVE",
"275 -16 CURVE SMOOTH",
"406 -16 OFFCURVE",
"511 43 OFFCURVE",
"511 188 CURVE SMOOTH",
"511 296 OFFCURVE",
"454 357 OFFCURVE",
"325 385 CURVE SMOOTH",
"256 400 LINE SMOOTH",
"226 406 OFFCURVE",
"187 423 OFFCURVE",
"187 468 CURVE SMOOTH",
"187 507 OFFCURVE",
"215 532 OFFCURVE",
"258 532 CURVE SMOOTH",
"311 532 OFFCURVE",
"335 494 OFFCURVE",
"335 449 CURVE",
"499 449 LINE",
"500 457 OFFCURVE",
"501 464 OFFCURVE",
"501 483 CURVE SMOOTH",
"501 619 OFFCURVE",
"397 686 OFFCURVE",
"255 686 CURVE SMOOTH",
"125 686 OFFCURVE",
"17 628 OFFCURVE",
"17 481 CURVE SMOOTH",
"17 374 OFFCURVE",
"75 314 OFFCURVE",
"204 286 CURVE SMOOTH",
"272 271 LINE SMOOTH",
"302 264 OFFCURVE",
"342 247 OFFCURVE",
"342 202 CURVE SMOOTH",
"342 163 OFFCURVE",
"312 139 OFFCURVE",
"268 139 CURVE SMOOTH",
"206 139 OFFCURVE",
"187 183 OFFCURVE",
"187 222 CURVE",
"17 222 LINE"
);
}
);
width = 527;
},
{
associatedMasterId = "061FC23D-6DC8-4BE4-BEC8-2F5AB93B127B";
layerId = "CD2957E4-25B1-4EC4-A7D0-7C407940059E";
name = "Sep 1 18, 22:17";
paths = (
{
closed = 1;
nodes = (
"16 212 OFFCURVE",
"16 208 OFFCURVE",
"16 199 CURVE SMOOTH",
"16 52 OFFCURVE",
"135 -16 OFFCURVE",
"275 -16 CURVE SMOOTH",
"406 -16 OFFCURVE",
"511 43 OFFCURVE",
"511 188 CURVE SMOOTH",
"511 296 OFFCURVE",
"454 357 OFFCURVE",
"325 385 CURVE SMOOTH",
"256 400 LINE SMOOTH",
"226 406 OFFCURVE",
"187 423 OFFCURVE",
"187 468 CURVE SMOOTH",
"187 507 OFFCURVE",
"215 532 OFFCURVE",
"258 532 CURVE SMOOTH",
"311 532 OFFCURVE",
"335 494 OFFCURVE",
"335 449 CURVE",
"499 449 LINE",
"500 457 OFFCURVE",
"501 464 OFFCURVE",
"501 483 CURVE SMOOTH",
"501 619 OFFCURVE",
"397 686 OFFCURVE",
"255 686 CURVE SMOOTH",
"125 686 OFFCURVE",
"17 628 OFFCURVE",
"17 481 CURVE SMOOTH",
"17 374 OFFCURVE",
"75 314 OFFCURVE",
"204 286 CURVE SMOOTH",
"272 271 LINE SMOOTH",
"302 264 OFFCURVE",
"342 247 OFFCURVE",
"342 202 CURVE SMOOTH",
"342 163 OFFCURVE",
"312 139 OFFCURVE",
"268 139 CURVE SMOOTH",
"206 139 OFFCURVE",
"187 183 OFFCURVE",
"187 222 CURVE",
"17 222 LINE"
);
}
);
width = 527;
},
{
associatedMasterId = "061FC23D-6DC8-4BE4-BEC8-2F5AB93B127B";
backgroundImage = {
crop = "{{0, 0}, {519, 654}}";
imagePath = "../../../Screenshot 2018-10-21 at 18.23.19.png";
};
layerId = "5B6C9AFB-E36D-4B63-B922-376E9FFD98FC";
name = "Sep 1 18, 22:17";
paths = (
{
closed = 1;
nodes = (
"353 -16 OFFCURVE",
"454 13 OFFCURVE",
"524 69 OFFCURVE",
"562 151 OFFCURVE",
"562 202 QCURVE SMOOTH",
"562 253 OFFCURVE",
"519 325 OFFCURVE",
"450 374 OFFCURVE",
"363 408 OFFCURVE",
"320 424 QCURVE SMOOTH",
"275 440 OFFCURVE",
"229 474 OFFCURVE",
"229 500 QCURVE SMOOTH",
"229 527 OFFCURVE",
"265 552 OFFCURVE",
"290 552 QCURVE SMOOTH",
"356 552 OFFCURVE",
"356 469 QCURVE",
"554 469 LINE",
"554 508 OFFCURVE",
"527 586 OFFCURVE",
"466 648 OFFCURVE",
"367 686 OFFCURVE",
"294 686 QCURVE SMOOTH",
"243 686 OFFCURVE",
"149 664 OFFCURVE",
"75 618 OFFCURVE",
"30 544 OFFCURVE",
"30 493 QCURVE SMOOTH",
"30 442 OFFCURVE",
"68 373 OFFCURVE",
"132 324 OFFCURVE",
"217 288 OFFCURVE",
"262 269 QCURVE SMOOTH",
"315 249 OFFCURVE",
"363 217 OFFCURVE",
"363 190 QCURVE SMOOTH",
"363 163 OFFCURVE",
"328 132 OFFCURVE",
"298 132 QCURVE SMOOTH",
"260 132 OFFCURVE",
"214 181 OFFCURVE",
"214 227 QCURVE",
"16 227 LINE",
"16 168 OFFCURVE",
"55 77 OFFCURVE",
"126 16 OFFCURVE",
"227 -16 OFFCURVE",
"290 -16 QCURVE SMOOTH"
);
}
);
width = 578;
},
{
associatedMasterId = "061FC23D-6DC8-4BE4-BEC8-2F5AB93B127B";
layerId = "38B392F3-B4A6-4379-9206-7BB038324533";
name = "Oct 21 18, 18:22";
paths = (
{
closed = 1;
nodes = (
"16 212 OFFCURVE",
"16 208 OFFCURVE",
"16 199 CURVE SMOOTH",
"16 52 OFFCURVE",
"135 -16 OFFCURVE",
"270 -16 CURVE SMOOTH",
"406 -16 OFFCURVE",
"511 53 OFFCURVE",
"511 194 CURVE SMOOTH",
"511 306 OFFCURVE",
"449 340 OFFCURVE",
"325 385 CURVE SMOOTH",
"256 410 LINE SMOOTH",
"227 420 OFFCURVE",
"187 436 OFFCURVE",
"187 476 CURVE SMOOTH",
"187 510 OFFCURVE",
"215 532 OFFCURVE",
"256 532 CURVE SMOOTH",
"311 532 OFFCURVE",
"335 494 OFFCURVE",
"335 449 CURVE",
"499 449 LINE",
"500 457 OFFCURVE",
"501 464 OFFCURVE",
"501 483 CURVE SMOOTH",
"501 619 OFFCURVE",
"397 686 OFFCURVE",
"255 686 CURVE SMOOTH",
"125 686 OFFCURVE",
"17 628 OFFCURVE",
"17 484 CURVE SMOOTH",
"17 374 OFFCURVE",
"80 332 OFFCURVE",
"204 286 CURVE SMOOTH",
"272 261 LINE SMOOTH",
"301 250 OFFCURVE",
"342 235 OFFCURVE",
"342 195 CURVE SMOOTH",
"342 161 OFFCURVE",
"312 139 OFFCURVE",
"268 139 CURVE SMOOTH",
"206 139 OFFCURVE",
"187 183 OFFCURVE",
"187 222 CURVE",
"17 222 LINE"
);
}
);
width = 527;
},
{
associatedMasterId = "061FC23D-6DC8-4BE4-BEC8-2F5AB93B127B";
backgroundImage = {
crop = "{{0, 0}, {519, 654}}";
imagePath = "../../../Screenshot 2018-10-21 at 18.23.19.png";
transform = "{1.15617, 0, 0, 1.15617, -20, -49}";
};
layerId = "17A9BED9-7A96-4F15-86A5-A73AB9DFF60D";
name = "Oct 21 18, 18:40";
paths = (
{
closed = 1;
nodes = (
"19 233 LINE",
"17 222 OFFCURVE",
"16 202 OFFCURVE",
"16 189 CURVE SMOOTH",
"16 35 OFFCURVE",
"157 -16 OFFCURVE",
"281 -16 CURVE SMOOTH",
"430 -16 OFFCURVE",
"551 57 OFFCURVE",
"551 201 CURVE SMOOTH",
"551 307 OFFCURVE",
"479 345 OFFCURVE",
"355 395 CURVE SMOOTH",
"286 423 LINE SMOOTH",
"254 436 OFFCURVE",
"217 457 OFFCURVE",
"217 497 CURVE SMOOTH",
"217 528 OFFCURVE",
"240 552 OFFCURVE",
"277 552 CURVE SMOOTH",
"317 552 OFFCURVE",
"343 523 OFFCURVE",
"343 490 CURVE SMOOTH",
"343 479 OFFCURVE",
"340 467 OFFCURVE",
"338 460 CURVE",
"537 460 LINE",
"539 474 OFFCURVE",
"541 491 OFFCURVE",
"541 509 CURVE SMOOTH",
"541 645 OFFCURVE",
"413 686 OFFCURVE",
"284 686 CURVE SMOOTH",
"142 686 OFFCURVE",
"19 636 OFFCURVE",
"19 498 CURVE SMOOTH",
"19 380 OFFCURVE",
"112 327 OFFCURVE",
"234 282 CURVE SMOOTH",
"302 257 LINE SMOOTH",
"331 246 OFFCURVE",
"359 226 OFFCURVE",
"359 189 CURVE SMOOTH",
"359 153 OFFCURVE",
"332 129 OFFCURVE",
"288 129 CURVE SMOOTH",
"245 129 OFFCURVE",
"216 152 OFFCURVE",
"216 206 CURVE SMOOTH",
"216 216 OFFCURVE",
"217 225 OFFCURVE",
"219 233 CURVE"
);
}
);
width = 567;
},
{
associatedMasterId = "061FC23D-6DC8-4BE4-BEC8-2F5AB93B127B";
backgroundImage = {
crop = "{{0, 0}, {519, 654}}";
imagePath = "../../../Screenshot 2018-10-21 at 18.23.19.png";
transform = "{1.15617, 0, 0, 1.15617, -20, -49}";
};
guideLines = (
{
angle = 157.9128;
position = "{240, 279}";
}
);
layerId = "A52E956A-9AF8-428A-859D-F641039F1466";
name = "Nov 4 18, 21:08";
paths = (
{
closed = 1;
nodes = (
"16 43 OFFCURVE",
"148 -16 OFFCURVE",
"279 -16 CURVE SMOOTH",
"419 -16 OFFCURVE",
"544 52 OFFCURVE",
"544 190 CURVE SMOOTH",
"544 296 OFFCURVE",
"470 349 OFFCURVE",
"355 395 CURVE SMOOTH",
"286 423 LINE SMOOTH",
"254 436 OFFCURVE",
"217 457 OFFCURVE",
"217 496 CURVE SMOOTH",
"217 528 OFFCURVE",
"241 552 OFFCURVE",
"278 552 CURVE SMOOTH",
"318 552 OFFCURVE",
"343 523 OFFCURVE",
"343 490 CURVE SMOOTH",
"343 479 OFFCURVE",
"340 467 OFFCURVE",
"338 460 CURVE",
"537 460 LINE",
"539 474 OFFCURVE",
"541 491 OFFCURVE",
"541 509 CURVE SMOOTH",
"541 645 OFFCURVE",
"412 686 OFFCURVE",
"281 686 CURVE SMOOTH",
"141 686 OFFCURVE",
"19 636 OFFCURVE",
"19 498 CURVE SMOOTH",
"19 392 OFFCURVE",
"90 339 OFFCURVE",
"205 293 CURVE SMOOTH",
"274 265 LINE SMOOTH",
"306 252 OFFCURVE",
"346 231 OFFCURVE",
"346 192 CURVE SMOOTH",
"346 160 OFFCURVE",
"319 136 OFFCURVE",
"282 136 CURVE SMOOTH",
"242 136 OFFCURVE",
"213 165 OFFCURVE",
"213 198 CURVE SMOOTH",
"213 209 OFFCURVE",
"216 221 OFFCURVE",
"218 228 CURVE",
"20 228 LINE",
"18 214 OFFCURVE",
"16 197 OFFCURVE",
"16 179 CURVE SMOOTH"
);
}
);
width = 560;
},
{
associatedMasterId = "061FC23D-6DC8-4BE4-BEC8-2F5AB93B127B";
guideLines = (
{
angle = 157.9128;
position = "{240, 279}";
}
);
layerId = "F60AE740-BE6F-4B23-AB5A-CDB93D279C43";
name = "Nov 4 18, 21:45";
paths = (
{
closed = 1;
nodes = (
"16 43 OFFCURVE",
"148 -16 OFFCURVE",
"279 -16 CURVE SMOOTH",
"419 -16 OFFCURVE",
"544 45 OFFCURVE",
"544 183 CURVE SMOOTH",
"544 289 OFFCURVE",
"470 351 OFFCURVE",
"355 398 CURVE SMOOTH",
"286 426 LINE SMOOTH",
"254 439 OFFCURVE",
"217 457 OFFCURVE",
"217 496 CURVE SMOOTH",
"217 528 OFFCURVE",
"241 552 OFFCURVE",
"283 552 CURVE SMOOTH",
"318 552 OFFCURVE",
"354 535 OFFCURVE",
"354 475 CURVE",
"536 475 LINE",
"531 645 OFFCURVE",
"412 686 OFFCURVE",
"281 686 CURVE SMOOTH",
"141 686 OFFCURVE",
"29 636 OFFCURVE",
"29 497 CURVE SMOOTH",
"29 392 OFFCURVE",
"90 340 OFFCURVE",
"205 293 CURVE SMOOTH",
"274 265 LINE SMOOTH",
"306 252 OFFCURVE",
"356 232 OFFCURVE",
"356 189 CURVE SMOOTH",
"356 157 OFFCURVE",
"327 136 OFFCURVE",
"289 136 CURVE SMOOTH",
"245 136 OFFCURVE",
"209 165 OFFCURVE",
"209 220 CURVE",
"16 220 LINE"
);
}
);
width = 560;
},
{
associatedMasterId = "061FC23D-6DC8-4BE4-BEC8-2F5AB93B127B";
guideLines = (
{
angle = 157.9128;
position = "{244, 279}";
}
);
layerId = "9A13639E-7185-45FD-B2BE-A2963A0ADCC8";
name = "Nov 10 18, 20:48";
paths = (
{
closed = 1;
nodes = (
"30 53 OFFCURVE",
"170 -16 OFFCURVE",
"292 -16 CURVE SMOOTH",
"418 -16 OFFCURVE",
"548 57 OFFCURVE",
"548 190 CURVE SMOOTH",
"548 291 OFFCURVE",
"474 351 OFFCURVE",
"359 398 CURVE SMOOTH",
"290 426 LINE SMOOTH",
"258 439 OFFCURVE",
"221 459 OFFCURVE",
"221 493 CURVE SMOOTH",
"221 521 OFFCURVE",
"245 543 OFFCURVE",
"286 543 CURVE SMOOTH",
"322 543 OFFCURVE",
"358 526 OFFCURVE",
"358 475 CURVE",
"540 475 LINE",
"525 645 OFFCURVE",
"385 686 OFFCURVE",
"279 686 CURVE SMOOTH",
"151 686 OFFCURVE",
"33 626 OFFCURVE",
"33 502 CURVE SMOOTH",
"33 402 OFFCURVE",
"111 333 OFFCURVE",
"209 293 CURVE SMOOTH",
"278 265 LINE SMOOTH",
"310 252 OFFCURVE",
"360 231 OFFCURVE",
"360 195 CURVE SMOOTH",
"360 166 OFFCURVE",
"329 146 OFFCURVE",
"292 146 CURVE SMOOTH",
"247 146 OFFCURVE",
"213 175 OFFCURVE",
"213 220 CURVE",
"20 220 LINE"
);
}
);
width = 568;
},
{
associatedMasterId = "061FC23D-6DC8-4BE4-BEC8-2F5AB93B127B";
layerId = "14AE3CE1-EDE2-4A54-BE07-04CFA802BCD5";
name = "Nov 10 18, 21:19";
paths = (
{
closed = 1;
nodes = (
"21 208 LINE",
"0 70 OFFCURVE",
"96 -16 OFFCURVE",
"252 -16 CURVE SMOOTH",
"395 -16 OFFCURVE",
"484 46 OFFCURVE",
"484 147 CURVE SMOOTH",
"484 212 OFFCURVE",
"448 273 OFFCURVE",
"400 327 CURVE SMOOTH",
"354 378 LINE SMOOTH",
"334 401 OFFCURVE",
"285 447 OFFCURVE",
"285 490 CURVE SMOOTH",
"285 520 OFFCURVE",
"309 544 OFFCURVE",
"346 544 CURVE SMOOTH",
"382 544 OFFCURVE",
"406 522 OFFCURVE",
"412 487 CURVE",
"529 556 LINE",
"498 646 OFFCURVE",
"422 686 OFFCURVE",
"315 686 CURVE SMOOTH",
"196 686 OFFCURVE",
"109 611 OFFCURVE",
"109 500 CURVE SMOOTH",
"109 418 OFFCURVE",
"157 366 OFFCURVE",
"188 328 CURVE SMOOTH",
"271 226 LINE SMOOTH",
"290 202 OFFCURVE",
"300 183 OFFCURVE",
"300 163 CURVE SMOOTH",
"300 135 OFFCURVE",
"279 118 OFFCURVE",
"247 118 CURVE SMOOTH",
"188 118 OFFCURVE",
"172 171 OFFCURVE",
"183 208 CURVE"
);
}
);
width = 535;
},
{
associatedMasterId = "061FC23D-6DC8-4BE4-BEC8-2F5AB93B127B";
layerId = "AA4B6696-6D3B-4CFC-B116-6C6A9D8B475A";
name = "Dec 2 18, 21:54";
paths = (
{
closed = 1;
nodes = (
"30 53 OFFCURVE",
"170 -16 OFFCURVE",
"292 -16 CURVE SMOOTH",
"418 -16 OFFCURVE",
"548 57 OFFCURVE",
"548 190 CURVE SMOOTH",
"548 291 OFFCURVE",
"474 351 OFFCURVE",
"359 398 CURVE SMOOTH",
"290 426 LINE SMOOTH",
"258 439 OFFCURVE",
"221 459 OFFCURVE",
"221 493 CURVE SMOOTH",
"221 521 OFFCURVE",
"245 543 OFFCURVE",
"286 543 CURVE SMOOTH",
"322 543 OFFCURVE",
"358 526 OFFCURVE",
"358 475 CURVE",
"540 475 LINE",
"525 645 OFFCURVE",
"385 686 OFFCURVE",
"279 686 CURVE SMOOTH",
"151 686 OFFCURVE",
"33 626 OFFCURVE",
"33 502 CURVE SMOOTH",
"33 402 OFFCURVE",
"111 333 OFFCURVE",
"209 293 CURVE SMOOTH",
"278 265 LINE SMOOTH",
"310 252 OFFCURVE",
"360 231 OFFCURVE",
"360 195 CURVE SMOOTH",
"360 166 OFFCURVE",
"329 146 OFFCURVE",
"292 146 CURVE SMOOTH",
"247 146 OFFCURVE",
"213 175 OFFCURVE",
"213 220 CURVE",
"20 220 LINE"
);
}
);
width = 568;
}
);
leftMetricsKey = O;
rightMetricsKey = O;
unicode = 0053;
},
{
glyphname = T;
lastChange = "2019-03-27 20:29:56 +0000";
layers = (
{
layerId = "FBD32BA2-3DE3-41DC-83E1-8A694E18FAAC";
paths = (
{
closed = 1;
nodes = (
"393 0 LINE",
"393 670 LINE",
"197 670 LINE",
"197 0 LINE"
);
},
{
closed = 1;
nodes = (
"594 514 LINE",
"594 670 LINE",
"-4 670 LINE",
"-4 514 LINE"
);
}
);
width = 590;
},
{
layerId = "061FC23D-6DC8-4BE4-BEC8-2F5AB93B127B";
paths = (
{
closed = 1;
nodes = (
"317 0 LINE",
"317 670 LINE",
"273 670 LINE",
"273 0 LINE"
);
},
{
closed = 1;
nodes = (
"594 630 LINE",
"594 670 LINE",
"-4 670 LINE",
"-4 630 LINE"
);
}
);
width = 590;
}
);
leftKerningGroup = V;
leftMetricsKey = V;
rightKerningGroup = V;
rightMetricsKey = V;
unicode = 0054;
},
{
color = 2;
glyphname = U;
lastChange = "2019-02-05 08:13:45 +0000";
layers = (
{
anchors = (
{
name = top;
position = "{328, 686}";
}
);
annotations = (
{
position = "{205, 419}";
text = "Awkward width";
type = Text;
}
);
layerId = "FBD32BA2-3DE3-41DC-83E1-8A694E18FAAC";
paths = (
{
closed = 1;
nodes = (
"433 -16 OFFCURVE",
"600 36 OFFCURVE",
"600 222 CURVE SMOOTH",
"600 670 LINE",
"404 670 LINE",
"404 210 LINE SMOOTH",
"404 172 OFFCURVE",
"371 140 OFFCURVE",
"324 140 CURVE SMOOTH",
"277 140 OFFCURVE",
"244 172 OFFCURVE",
"244 210 CURVE SMOOTH",
"244 670 LINE",
"48 670 LINE",
"48 222 LINE SMOOTH",
"48 36 OFFCURVE",
"215 -16 OFFCURVE",
"324 -16 CURVE SMOOTH"
);
}
);
width = 648;
},
{
anchors = (
{
name = top;
position = "{324, 670}";
}
);
layerId = "061FC23D-6DC8-4BE4-BEC8-2F5AB93B127B";
paths = (
{
closed = 1;
nodes = (
"489 -16 OFFCURVE",
"600 76 OFFCURVE",
"600 272 CURVE SMOOTH",
"600 670 LINE",
"558 670 LINE",
"558 272 LINE SMOOTH",
"558 107 OFFCURVE",
"473 24 OFFCURVE",
"324 24 CURVE SMOOTH",
"175 24 OFFCURVE",
"90 107 OFFCURVE",
"90 272 CURVE SMOOTH",
"90 670 LINE",
"48 670 LINE",
"48 272 LINE SMOOTH",
"48 76 OFFCURVE",
"159 -16 OFFCURVE",
"324 -16 CURVE SMOOTH"
);
}
);
width = 648;
}
);
leftMetricsKey = H;
rightMetricsKey = H;
unicode = 0055;
},
{
glyphname = V;
lastChange = "2019-01-28 21:50:58 +0000";
layers = (
{
layerId = "FBD32BA2-3DE3-41DC-83E1-8A694E18FAAC";
paths = (
{
closed = 1;
nodes = (
"200 670 LINE",
"348 192 LINE",
"506 670 LINE",
"710 670 LINE",
"459 0 LINE",
"231 0 LINE",
"-4 670 LINE"
);
}
);
width = 706;
},
{
layerId = "061FC23D-6DC8-4BE4-BEC8-2F5AB93B127B";
paths = (
{
closed = 1;
nodes = (
"43 670 LINE",
"332 35 LINE",
"621 670 LINE",
"668 670 LINE",
"356 0 LINE",
"308 0 LINE",
"-4 670 LINE"
);
}
);
width = 664;
}
);
leftKerningGroup = V;
rightKerningGroup = V;
unicode = 0056;
},
{
glyphname = W;
lastChange = "2019-05-08 13:31:16 +0000";
layers = (
{
anchors = (
{
name = top;
position = "{495, 686}";
}
);
layerId = "FBD32BA2-3DE3-41DC-83E1-8A694E18FAAC";
paths = (
{
closed = 1;
nodes = (
"311 0 LINE",
"408 374 LINE",
"505 0 LINE",
"691 0 LINE",
"840 670 LINE",
"653 670 LINE",
"584 292 LINE",
"467 670 LINE",
"339 670 LINE",
"242 292 LINE",
"173 670 LINE",
"-4 670 LINE",
"145 0 LINE"
);
}
);
width = 836;
},
{
associatedMasterId = "FBD32BA2-3DE3-41DC-83E1-8A694E18FAAC";
layerId = "D04EDEC6-8C57-4079-B0D3-89585A4FCFEE";
name = "Apr 10 18, 00:36";
paths = (
{
closed = 1;
nodes = (
"311 0 LINE",
"408 374 LINE",
"505 0 LINE",
"671 0 LINE",
"820 670 LINE",
"653 670 LINE",
"584 252 LINE",
"467 670 LINE",
"339 670 LINE",
"242 252 LINE",
"173 670 LINE",
"-4 670 LINE",
"145 0 LINE"
);
}
);
width = 816;
},
{
associatedMasterId = "FBD32BA2-3DE3-41DC-83E1-8A694E18FAAC";
backgroundImage = {
crop = "{{0, 0}, {143, 107}}";
imagePath = "../.Trash/Screen Shot 2018-04-12 at 11.36.12.png";
transform = "{7.88909, 0, 0, 7.88909, -120, -79}";
};
layerId = "55BD973E-0D2A-48C9-81D1-247BE65BB468";
name = "Apr 12 18, 11:25";
paths = (
{
closed = 1;
nodes = (
"165 0 LINE",
"374 0 LINE",
"453 413 LINE",
"533 0 LINE",
"742 0 LINE",
"905 670 LINE",
"697 670 LINE",
"635 261 LINE",
"560 668 LINE",
"347 668 LINE",
"272 261 LINE",
"210 670 LINE",
"2 670 LINE"
);
}
);
width = 907;
},
{
anchors = (
{
name = top;
position = "{428, 670}";
}
);
layerId = "061FC23D-6DC8-4BE4-BEC8-2F5AB93B127B";
paths = (
{
closed = 1;
nodes = (
"236 -10 LINE",
"428 620 LINE",
"620 0 LINE",
"653 0 LINE",
"860 670 LINE",
"817 670 LINE",
"637 65 LINE",
"447 670 LINE",
"409 670 LINE",
"219 65 LINE",
"39 670 LINE",
"-4 670 LINE",
"203 0 LINE"
);
}
);
width = 856;
},
{
associatedMasterId = "061FC23D-6DC8-4BE4-BEC8-2F5AB93B127B";
layerId = "0740FB54-0F48-484F-ABCD-F2F1B0A95D6A";
name = "Apr 10 18, 00:36";
paths = (
{
closed = 1;
nodes = (
"311 0 LINE",
"408 374 LINE",
"505 0 LINE",
"671 0 LINE",
"820 670 LINE",
"653 670 LINE",
"584 252 LINE",
"467 670 LINE",
"339 670 LINE",
"242 252 LINE",
"173 670 LINE",
"-4 670 LINE",
"145 0 LINE"
);
}
);
width = 816;
},
{
associatedMasterId = "061FC23D-6DC8-4BE4-BEC8-2F5AB93B127B";
backgroundImage = {
crop = "{{0, 0}, {143, 107}}";
imagePath = "../.Trash/Screen Shot 2018-04-12 at 11.36.12.png";
transform = "{7.88909, 0, 0, 7.88909, -120, -79}";
};
layerId = "3EDBD02D-7A2C-4720-9B15-2EA92A7C0F23";
name = "Apr 12 18, 11:25";
paths = (
{
closed = 1;
nodes = (
"165 0 LINE",
"374 0 LINE",
"453 413 LINE",
"533 0 LINE",
"742 0 LINE",
"905 670 LINE",
"697 670 LINE",
"635 261 LINE",
"560 668 LINE",
"347 668 LINE",
"272 261 LINE",
"210 670 LINE",
"2 670 LINE"
);
}
);
width = 907;
},
{
anchors = (
{
name = top;
position = "{451, 686}";
}
);
associatedMasterId = "061FC23D-6DC8-4BE4-BEC8-2F5AB93B127B";
layerId = "413FAABD-E81A-4482-9B7C-B015D1CF2569";
name = "Feb 3 19, 19:12";
paths = (
{
closed = 1;
nodes = (
"375 0 LINE",
"451 413 LINE",
"528 0 LINE",
"729 0 LINE",
"906 670 LINE",
"706 670 LINE",
"620 261 LINE",
"554 670 LINE",
"348 670 LINE",
"282 261 LINE",
"197 670 LINE",
"-4 670 LINE",
"173 0 LINE"
);
}
);
width = 902;
},
{
anchors = (
{
name = top;
position = "{451, 686}";
}
);
associatedMasterId = "FBD32BA2-3DE3-41DC-83E1-8A694E18FAAC";
layerId = "CB46DFD9-E7B6-42EF-A3D6-B84727B2301D";
name = "May 8 19, 15:23";
paths = (
{
closed = 1;
nodes = (
"375 0 LINE",
"451 413 LINE",
"528 0 LINE",
"729 0 LINE",
"906 670 LINE",
"706 670 LINE",
"620 261 LINE",
"554 670 LINE",
"348 670 LINE",
"282 261 LINE",
"197 670 LINE",
"-4 670 LINE",
"173 0 LINE"
);
}
);
width = 902;
}
);
leftKerningGroup = V;
leftMetricsKey = V;
rightKerningGroup = V;
rightMetricsKey = V;
unicode = 0057;
},
{
glyphname = X;
lastChange = "2019-02-05 07:58:54 +0000";
layers = (
{
background = {
paths = (
{
closed = 0;
nodes = (
"251 670 LINE"
);
},
{
closed = 0;
nodes = (
"54 670 LINE"
);
}
);
};
layerId = "FBD32BA2-3DE3-41DC-83E1-8A694E18FAAC";
paths = (
{
closed = 1;
nodes = (
"164 -1 LINE SMOOTH",
"202 -1 OFFCURVE",
"223 16 OFFCURVE",
"230 53 CURVE SMOOTH",
"240 108 LINE SMOOTH",
"256 195 OFFCURVE",
"277 267 OFFCURVE",
"323 267 CURVE",
"369 267 OFFCURVE",
"390 195 OFFCURVE",
"406 108 CURVE SMOOTH",
"416 53 LINE SMOOTH",
"423 16 OFFCURVE",
"444 -1 OFFCURVE",
"482 -1 CURVE SMOOTH",
"650 -1 LINE",
"608 164 LINE SMOOTH",
"582 267 OFFCURVE",
"490 355 OFFCURVE",
"395 356 CURVE",
"395 362 LINE",
"489 362 OFFCURVE",
"572 401 OFFCURVE",
"598 505 CURVE SMOOTH",
"640 670 LINE",
"472 670 LINE SMOOTH",
"434 670 OFFCURVE",
"413 653 OFFCURVE",
"406 616 CURVE SMOOTH",
"396 561 LINE SMOOTH",
"380 474 OFFCURVE",
"369 432 OFFCURVE",
"323 432 CURVE",
"277 432 OFFCURVE",
"266 474 OFFCURVE",
"250 561 CURVE SMOOTH",
"240 616 LINE SMOOTH",
"233 653 OFFCURVE",
"212 670 OFFCURVE",
"174 670 CURVE SMOOTH",
"6 670 LINE",
"48 505 LINE SMOOTH",
"74 401 OFFCURVE",
"157 362 OFFCURVE",
"251 362 CURVE",
"251 356 LINE",
"156 355 OFFCURVE",
"64 267 OFFCURVE",
"38 164 CURVE SMOOTH",
"-4 -1 LINE"
);
}
);
width = 646;
},
{
associatedMasterId = "FBD32BA2-3DE3-41DC-83E1-8A694E18FAAC";
background = {
paths = (
{
closed = 0;
nodes = (
"202 670 LINE"
);
},
{
closed = 0;
nodes = (
"5 670 LINE"
);
}
);
};
layerId = "FB472EF9-843C-4C8A-B59D-F541BF7E0D5A";
name = "Aug 5 18, 16:14";
paths = (
{
closed = 1;
nodes = (
"673 0 LINE",
"238 670 LINE",
"11 670 LINE",
"439 0 LINE"
);
},
{
closed = 1;
nodes = (
"230 0 LINE",
"351 220 LINE",
"230 379 LINE",
"-4 0 LINE"
);
},
{
closed = 1;
nodes = (
"662 670 LINE",
"428 670 LINE",
"317 450 LINE",
"428 291 LINE"
);
}
);
width = 669;
},
{
associatedMasterId = "FBD32BA2-3DE3-41DC-83E1-8A694E18FAAC";
background = {
paths = (
{
closed = 0;
nodes = (
"202 670 LINE"
);
},
{
closed = 0;
nodes = (
"5 670 LINE"
);
}
);
};
layerId = "21D47AF1-DF71-4A94-B319-B263D38918BC";
name = "Nov 4 18, 22:10";
paths = (
{
closed = 1;
nodes = (
"230 0 LINE",
"336 198 LINE",
"439 0 LINE",
"673 0 LINE",
"455 324 LINE",
"662 670 LINE",
"428 670 LINE",
"336 443 LINE",
"238 670 LINE",
"11 670 LINE",
"214 324 LINE",
"-4 0 LINE"
);
}
);
width = 669;
},
{
associatedMasterId = "FBD32BA2-3DE3-41DC-83E1-8A694E18FAAC";
background = {
paths = (
{
closed = 0;
nodes = (
"241 670 LINE"
);
},
{
closed = 0;
nodes = (
"44 670 LINE"
);
}
);
};
layerId = "58D45D23-CEAB-4764-AFD7-EA5F45708F89";
name = "Dec 4 18, 23:56";
paths = (
{
closed = 1;
nodes = (
"154 -1 LINE SMOOTH",
"192 -1 OFFCURVE",
"213 16 OFFCURVE",
"220 53 CURVE SMOOTH",
"230 108 LINE SMOOTH",
"246 195 OFFCURVE",
"267 267 OFFCURVE",
"313 267 CURVE",
"359 267 OFFCURVE",
"380 195 OFFCURVE",
"396 108 CURVE SMOOTH",
"406 53 LINE SMOOTH",
"413 16 OFFCURVE",
"434 -1 OFFCURVE",
"472 -1 CURVE SMOOTH",
"630 -1 LINE",
"588 164 LINE SMOOTH",
"562 267 OFFCURVE",
"480 355 OFFCURVE",
"385 356 CURVE",
"385 362 LINE",
"479 362 OFFCURVE",
"552 401 OFFCURVE",
"578 505 CURVE SMOOTH",
"620 670 LINE",
"462 670 LINE SMOOTH",
"424 670 OFFCURVE",
"403 653 OFFCURVE",
"396 616 CURVE SMOOTH",
"386 561 LINE SMOOTH",
"370 474 OFFCURVE",
"359 432 OFFCURVE",
"313 432 CURVE",
"267 432 OFFCURVE",
"256 474 OFFCURVE",
"240 561 CURVE SMOOTH",
"230 616 LINE SMOOTH",
"223 653 OFFCURVE",
"202 670 OFFCURVE",
"164 670 CURVE SMOOTH",
"6 670 LINE",
"48 505 LINE SMOOTH",
"74 401 OFFCURVE",
"147 362 OFFCURVE",
"241 362 CURVE",
"241 356 LINE",
"146 355 OFFCURVE",
"64 267 OFFCURVE",
"38 164 CURVE SMOOTH",
"-4 -1 LINE"
);
}
);
width = 626;
},
{
background = {
paths = (
{
closed = 0;
nodes = (
"372 670 LINE"
);
},
{
closed = 0;
nodes = (
"175 670 LINE"
);
}
);
};
layerId = "061FC23D-6DC8-4BE4-BEC8-2F5AB93B127B";
paths = (
{
closed = 1;
nodes = (
"3 -1 LINE SMOOTH",
"28 -1 OFFCURVE",
"62 10 OFFCURVE",
"85 47 CURVE SMOOTH",
"204 237 LINE SMOOTH",
"258 323 OFFCURVE",
"331 337 OFFCURVE",
"370 337 CURVE SMOOTH",
"409 337 OFFCURVE",
"482 323 OFFCURVE",
"536 237 CURVE SMOOTH",
"655 47 LINE SMOOTH",
"678 10 OFFCURVE",
"712 -1 OFFCURVE",
"737 -1 CURVE SMOOTH",
"744 -1 LINE",
"579 255 LINE SMOOTH",
"532 327 OFFCURVE",
"484 355 OFFCURVE",
"417 361 CURVE",
"417 366 LINE",
"479 370 OFFCURVE",
"527 409 OFFCURVE",
"562 460 CURVE SMOOTH",
"709 670 LINE",
"708 670 LINE SMOOTH",
"674 670 OFFCURVE",
"650 658 OFFCURVE",
"627 626 CURVE SMOOTH",
"526 484 LINE SMOOTH",
"473 410 OFFCURVE",
"406 388 OFFCURVE",
"370 388 CURVE SMOOTH",
"334 388 OFFCURVE",
"267 410 OFFCURVE",
"214 484 CURVE SMOOTH",
"113 626 LINE SMOOTH",
"90 658 OFFCURVE",
"66 670 OFFCURVE",
"32 670 CURVE SMOOTH",
"31 670 LINE",
"178 460 LINE SMOOTH",
"213 409 OFFCURVE",
"261 370 OFFCURVE",
"323 366 CURVE",
"323 361 LINE",
"256 355 OFFCURVE",
"208 327 OFFCURVE",
"161 255 CURVE SMOOTH",
"-4 -1 LINE"
);
}
);
width = 740;
},
{
associatedMasterId = "061FC23D-6DC8-4BE4-BEC8-2F5AB93B127B";
background = {
paths = (
{
closed = 0;
nodes = (
"202 670 LINE"
);
},
{
closed = 0;
nodes = (
"5 670 LINE"
);
}
);
};
layerId = "5CE6A799-3E0F-4E25-B94D-A128B3B7096D";
name = "Aug 5 18, 16:14";
paths = (
{
closed = 1;
nodes = (
"673 0 LINE",
"238 670 LINE",
"11 670 LINE",
"439 0 LINE"
);
},
{
closed = 1;
nodes = (
"230 0 LINE",
"351 220 LINE",
"230 379 LINE",
"-4 0 LINE"
);
},
{
closed = 1;
nodes = (
"662 670 LINE",
"428 670 LINE",
"317 450 LINE",
"428 291 LINE"
);
}
);
width = 669;
},
{
associatedMasterId = "061FC23D-6DC8-4BE4-BEC8-2F5AB93B127B";
background = {
paths = (
{
closed = 0;
nodes = (
"202 670 LINE"
);
},
{
closed = 0;
nodes = (
"5 670 LINE"
);
}
);
};
layerId = "A9E277D5-CF9F-4EC5-81E3-FBF59276050D";
name = "Nov 4 18, 22:10";
paths = (
{
closed = 1;
nodes = (
"230 0 LINE",
"336 198 LINE",
"439 0 LINE",
"673 0 LINE",
"455 324 LINE",
"662 670 LINE",
"428 670 LINE",
"336 443 LINE",
"238 670 LINE",
"11 670 LINE",
"214 324 LINE",
"-4 0 LINE"
);
}
);
width = 669;
},
{
associatedMasterId = "061FC23D-6DC8-4BE4-BEC8-2F5AB93B127B";
background = {
paths = (
{
closed = 0;
nodes = (
"241 670 LINE"
);
},
{
closed = 0;
nodes = (
"44 670 LINE"
);
}
);
};
layerId = "31533F2C-2DCB-4CF9-B78F-4D1FF0329D7D";
name = "Dec 4 18, 23:56";
paths = (
{
closed = 1;
nodes = (
"154 -1 LINE SMOOTH",
"192 -1 OFFCURVE",
"213 16 OFFCURVE",
"220 53 CURVE SMOOTH",
"230 108 LINE SMOOTH",
"246 195 OFFCURVE",
"267 267 OFFCURVE",
"313 267 CURVE",
"359 267 OFFCURVE",
"380 195 OFFCURVE",
"396 108 CURVE SMOOTH",
"406 53 LINE SMOOTH",
"413 16 OFFCURVE",
"434 -1 OFFCURVE",
"472 -1 CURVE SMOOTH",
"630 -1 LINE",
"588 164 LINE SMOOTH",
"562 267 OFFCURVE",
"480 355 OFFCURVE",
"385 356 CURVE",
"385 362 LINE",
"479 362 OFFCURVE",
"552 401 OFFCURVE",
"578 505 CURVE SMOOTH",
"620 670 LINE",
"462 670 LINE SMOOTH",
"424 670 OFFCURVE",
"403 653 OFFCURVE",
"396 616 CURVE SMOOTH",
"386 561 LINE SMOOTH",
"370 474 OFFCURVE",
"359 432 OFFCURVE",
"313 432 CURVE",
"267 432 OFFCURVE",
"256 474 OFFCURVE",
"240 561 CURVE SMOOTH",
"230 616 LINE SMOOTH",
"223 653 OFFCURVE",
"202 670 OFFCURVE",
"164 670 CURVE SMOOTH",
"6 670 LINE",
"48 505 LINE SMOOTH",
"74 401 OFFCURVE",
"147 362 OFFCURVE",
"241 362 CURVE",
"241 356 LINE",
"146 355 OFFCURVE",
"64 267 OFFCURVE",
"38 164 CURVE SMOOTH",
"-4 -1 LINE"
);
}
);
width = 626;
},
{
associatedMasterId = "061FC23D-6DC8-4BE4-BEC8-2F5AB93B127B";
background = {
paths = (
{
closed = 0;
nodes = (
"251 670 LINE"
);
},
{
closed = 0;
nodes = (
"54 670 LINE"
);
}
);
};
layerId = "F9607CE0-34EC-4725-B5E6-7480C65675EF";
name = "Intermediate {100, 100}";
paths = (
{
closed = 1;
nodes = (
"75 -1 LINE SMOOTH",
"105 -1 OFFCURVE",
"134 12 OFFCURVE",
"151 49 CURVE SMOOTH",
"228 187 LINE SMOOTH",
"275 271 OFFCURVE",
"320 310 OFFCURVE",
"362 310 CURVE",
"404 310 OFFCURVE",
"449 271 OFFCURVE",
"496 187 CURVE SMOOTH",
"573 49 LINE SMOOTH",
"590 12 OFFCURVE",
"619 -1 OFFCURVE",
"649 -1 CURVE SMOOTH",
"728 -1 LINE",
"600 220 LINE SMOOTH",
"554 300 OFFCURVE",
"496 355 OFFCURVE",
"419 359 CURVE",
"419 364 LINE",
"493 367 OFFCURVE",
"546 410 OFFCURVE",
"586 477 CURVE SMOOTH",
"702 670 LINE",
"627 670 LINE SMOOTH",
"592 670 OFFCURVE",
"569 656 OFFCURVE",
"552 622 CURVE SMOOTH",
"486 514 LINE SMOOTH",
"440 438 OFFCURVE",
"402 405 OFFCURVE",
"362 405 CURVE",
"322 405 OFFCURVE",
"285 438 OFFCURVE",
"238 514 CURVE SMOOTH",
"172 622 LINE SMOOTH",
"155 656 OFFCURVE",
"132 670 OFFCURVE",
"97 670 CURVE SMOOTH",
"21 670 LINE",
"138 477 LINE SMOOTH",
"178 410 OFFCURVE",
"231 367 OFFCURVE",
"305 364 CURVE",
"305 359 LINE",
"228 355 OFFCURVE",
"170 300 OFFCURVE",
"124 220 CURVE SMOOTH",
"-4 -1 LINE"
);
}
);
width = 724;
}
);
leftMetricsKey = V;
rightMetricsKey = V;
unicode = 0058;
},
{
glyphname = Y;
lastChange = "2019-02-05 08:14:13 +0000";
layers = (
{
anchors = (
{
name = top;
position = "{334, 686}";
}
);
layerId = "FBD32BA2-3DE3-41DC-83E1-8A694E18FAAC";
paths = (
{
closed = 1;
nodes = (
"200 670 LINE",
"335 379 LINE",
"477 670 LINE",
"681 670 LINE",
"433 229 LINE",
"433 0 LINE",
"237 0 LINE",
"237 229 LINE",
"-4 670 LINE"
);
}
);
width = 677;
},
{
associatedMasterId = "FBD32BA2-3DE3-41DC-83E1-8A694E18FAAC";
layerId = "F80C1643-85B6-4F90-B1CF-81B7EFE27770";
name = "Mar 26 18, 13:33";
paths = (
{
closed = 1;
nodes = (
"372 0 LINE",
"372 299 LINE",
"198 299 LINE",
"198 0 LINE"
);
},
{
closed = 1;
nodes = (
"44 237 OFFCURVE",
"96 155 OFFCURVE",
"202 155 CURVE SMOOTH",
"233 155 OFFCURVE",
"261 162 OFFCURVE",
"285 177 CURVE",
"309 162 OFFCURVE",
"337 155 OFFCURVE",
"368 155 CURVE SMOOTH",
"475 155 OFFCURVE",
"526 237 OFFCURVE",
"526 341 CURVE SMOOTH",
"526 671 LINE",
"342 671 LINE",
"342 416 LINE SMOOTH",
"342 342 OFFCURVE",
"323 318 OFFCURVE",
"285 318 CURVE SMOOTH",
"247 318 OFFCURVE",
"228 342 OFFCURVE",
"228 416 CURVE SMOOTH",
"228 671 LINE",
"44 671 LINE",
"44 341 LINE SMOOTH"
);
}
);
width = 557;
},
{
associatedMasterId = "FBD32BA2-3DE3-41DC-83E1-8A694E18FAAC";
layerId = "A21C5719-87FC-4436-BA5F-5227D54C6E69";
name = "Mar 26 18, 13:38";
paths = (
{
closed = 1;
nodes = (
"324 0 LINE",
"521 670 LINE",
"334 670 LINE",
"242 266 LINE",
"137 0 LINE"
);
},
{
closed = 1;
nodes = (
"267 266 LINE",
"174 670 LINE",
"-16 670 LINE",
"112 266 LINE"
);
}
);
width = 505;
},
{
associatedMasterId = "FBD32BA2-3DE3-41DC-83E1-8A694E18FAAC";
layerId = "6616EBFC-E399-4559-8380-C4A3B4C340E4";
name = "Mar 26 18, 13:41";
paths = (
{
closed = 1;
nodes = (
"354 0 LINE",
"561 670 LINE",
"374 670 LINE",
"274 234 LINE",
"215 147 LINE",
"83 147 LINE",
"83 0 LINE",
"167 0 LINE"
);
},
{
closed = 1;
nodes = (
"318 246 LINE",
"184 670 LINE",
"-16 670 LINE",
"215 147 LINE"
);
}
);
width = 545;
},
{
associatedMasterId = "FBD32BA2-3DE3-41DC-83E1-8A694E18FAAC";
layerId = "F250F78C-0D89-4235-97AF-74333B642CB5";
name = "Mar 26 18, 13:43";
paths = (
{
closed = 1;
nodes = (
"277 0 LINE",
"561 670 LINE",
"382 670 LINE",
"297 425 LINE",
"186 670 LINE",
"-4 670 LINE",
"214 266 LINE",
"104 0 LINE"
);
}
);
width = 557;
},
{
associatedMasterId = "FBD32BA2-3DE3-41DC-83E1-8A694E18FAAC";
layerId = "B3D4ADA9-354D-48A5-B259-5CFB778B5888";
name = "Mar 26 18, 13:43";
paths = (
{
closed = 1;
nodes = (
"366 0 LINE",
"583 670 LINE",
"396 670 LINE",
"286 234 LINE",
"227 147 LINE",
"95 147 LINE",
"95 0 LINE"
);
},
{
closed = 1;
nodes = (
"330 246 LINE",
"196 670 LINE",
"-4 670 LINE",
"227 147 LINE"
);
}
);
width = 579;
},
{
associatedMasterId = "FBD32BA2-3DE3-41DC-83E1-8A694E18FAAC";
layerId = "8D05A1D2-CBB9-445D-A87D-4B8B679EB343";
name = "Nov 4 18, 21:52";
paths = (
{
closed = 1;
nodes = (
"300 0 LINE",
"561 670 LINE",
"382 670 LINE",
"305 425 LINE",
"186 670 LINE",
"-4 670 LINE",
"228 266 LINE",
"127 0 LINE"
);
}
);
width = 557;
},
{
associatedMasterId = "FBD32BA2-3DE3-41DC-83E1-8A694E18FAAC";
layerId = "BDE1F6A8-C8D1-4F3D-A211-A7D1434C7574";
name = "Nov 4 18, 21:57";
paths = (
{
closed = 1;
nodes = (
"372 0 LINE",
"372 299 LINE",
"198 299 LINE",
"198 0 LINE"
);
},
{
closed = 1;
nodes = (
"44 237 OFFCURVE",
"96 155 OFFCURVE",
"202 155 CURVE SMOOTH",
"233 155 OFFCURVE",
"261 162 OFFCURVE",
"285 177 CURVE",
"309 162 OFFCURVE",
"337 155 OFFCURVE",
"368 155 CURVE SMOOTH",
"475 155 OFFCURVE",
"526 237 OFFCURVE",
"526 341 CURVE SMOOTH",
"526 671 LINE",
"342 671 LINE",
"342 416 LINE SMOOTH",
"342 342 OFFCURVE",
"323 318 OFFCURVE",
"285 318 CURVE SMOOTH",
"247 318 OFFCURVE",
"228 342 OFFCURVE",
"228 416 CURVE SMOOTH",
"228 671 LINE",
"44 671 LINE",
"44 341 LINE SMOOTH"
);
}
);
width = 557;
},
{
associatedMasterId = "FBD32BA2-3DE3-41DC-83E1-8A694E18FAAC";
layerId = "06C235D6-111C-405C-8BA6-2D0497870DE8";
name = "Nov 4 18, 22:03";
paths = (
{
closed = 1;
nodes = (
"374 0 LINE",
"374 299 LINE",
"200 299 LINE",
"200 0 LINE"
);
},
{
closed = 1;
nodes = (
"16 303 OFFCURVE",
"60 155 OFFCURVE",
"239 155 CURVE SMOOTH",
"345 155 LINE SMOOTH",
"525 155 OFFCURVE",
"558 303 OFFCURVE",
"558 397 CURVE SMOOTH",
"558 671 LINE",
"379 671 LINE",
"379 397 LINE SMOOTH",
"379 323 OFFCURVE",
"337 299 OFFCURVE",
"287 299 CURVE SMOOTH",
"237 299 OFFCURVE",
"195 323 OFFCURVE",
"195 397 CURVE SMOOTH",
"195 671 LINE",
"16 671 LINE",
"16 397 LINE SMOOTH"
);
}
);
width = 574;
},
{
associatedMasterId = "FBD32BA2-3DE3-41DC-83E1-8A694E18FAAC";
layerId = "2E1195CD-8386-41E9-842D-4F345B08F911";
name = "Nov 4 18, 22:15";
paths = (
{
closed = 1;
nodes = (
"251 0 LINE",
"438 0 LINE",
"438 230 LINE",
"693 670 LINE",
"472 670 LINE",
"345 401 LINE",
"217 670 LINE",
"-4 670 LINE",
"251 230 LINE"
);
}
);
width = 689;
},
{
anchors = (
{
name = top;
position = "{335, 670}";
}
);
layerId = "061FC23D-6DC8-4BE4-BEC8-2F5AB93B127B";
paths = (
{
closed = 1;
nodes = (
"45 670 LINE",
"335 268 LINE",
"625 670 LINE",
"674 670 LINE",
"356 229 LINE",
"356 0 LINE",
"314 0 LINE",
"314 229 LINE",
"-4 670 LINE"
);
}
);
width = 670;
},
{
associatedMasterId = "061FC23D-6DC8-4BE4-BEC8-2F5AB93B127B";
layerId = "F81A234C-E693-4490-BD5D-010AE3604D87";
name = "Mar 26 18, 13:33";
paths = (
{
closed = 1;
nodes = (
"372 0 LINE",
"372 299 LINE",
"198 299 LINE",
"198 0 LINE"
);
},
{
closed = 1;
nodes = (
"44 237 OFFCURVE",
"96 155 OFFCURVE",
"202 155 CURVE SMOOTH",
"233 155 OFFCURVE",
"261 162 OFFCURVE",
"285 177 CURVE",
"309 162 OFFCURVE",
"337 155 OFFCURVE",
"368 155 CURVE SMOOTH",
"475 155 OFFCURVE",
"526 237 OFFCURVE",
"526 341 CURVE SMOOTH",
"526 671 LINE",
"342 671 LINE",
"342 416 LINE SMOOTH",
"342 342 OFFCURVE",
"323 318 OFFCURVE",
"285 318 CURVE SMOOTH",
"247 318 OFFCURVE",
"228 342 OFFCURVE",
"228 416 CURVE SMOOTH",
"228 671 LINE",
"44 671 LINE",
"44 341 LINE SMOOTH"
);
}
);
width = 557;
},
{
associatedMasterId = "061FC23D-6DC8-4BE4-BEC8-2F5AB93B127B";
layerId = "0BEAA78D-3584-45DA-88C5-5CF96D8BD153";
name = "Mar 26 18, 13:38";
paths = (
{
closed = 1;
nodes = (
"324 0 LINE",
"521 670 LINE",
"334 670 LINE",
"242 266 LINE",
"137 0 LINE"
);
},
{
closed = 1;
nodes = (
"267 266 LINE",
"174 670 LINE",
"-16 670 LINE",
"112 266 LINE"
);
}
);
width = 505;
},
{
associatedMasterId = "061FC23D-6DC8-4BE4-BEC8-2F5AB93B127B";
layerId = "630938C3-57FC-4A65-8B33-A60FF6FC9790";
name = "Mar 26 18, 13:41";
paths = (
{
closed = 1;
nodes = (
"354 0 LINE",
"561 670 LINE",
"374 670 LINE",
"274 234 LINE",
"215 147 LINE",
"83 147 LINE",
"83 0 LINE",
"167 0 LINE"
);
},
{
closed = 1;
nodes = (
"318 246 LINE",
"184 670 LINE",
"-16 670 LINE",
"215 147 LINE"
);
}
);
width = 545;
},
{
associatedMasterId = "061FC23D-6DC8-4BE4-BEC8-2F5AB93B127B";
layerId = "53F7B6D0-7662-4FA4-AB7D-3C1142C88D23";
name = "Mar 26 18, 13:43";
paths = (
{
closed = 1;
nodes = (
"277 0 LINE",
"561 670 LINE",
"382 670 LINE",
"297 425 LINE",
"186 670 LINE",
"-4 670 LINE",
"214 266 LINE",
"104 0 LINE"
);
}
);
width = 557;
},
{
associatedMasterId = "061FC23D-6DC8-4BE4-BEC8-2F5AB93B127B";
layerId = "B6E090F8-DE39-4A0A-A8ED-495139AFDFB1";
name = "Mar 26 18, 13:43";
paths = (
{
closed = 1;
nodes = (
"366 0 LINE",
"583 670 LINE",
"396 670 LINE",
"286 234 LINE",
"227 147 LINE",
"95 147 LINE",
"95 0 LINE"
);
},
{
closed = 1;
nodes = (
"330 246 LINE",
"196 670 LINE",
"-4 670 LINE",
"227 147 LINE"
);
}
);
width = 579;
},
{
associatedMasterId = "061FC23D-6DC8-4BE4-BEC8-2F5AB93B127B";
layerId = "58F31D79-AC83-4FF8-B04A-0DB0DAFD5EAA";
name = "Nov 4 18, 21:52";
paths = (
{
closed = 1;
nodes = (
"300 0 LINE",
"561 670 LINE",
"382 670 LINE",
"305 425 LINE",
"186 670 LINE",
"-4 670 LINE",
"228 266 LINE",
"127 0 LINE"
);
}
);
width = 557;
},
{
associatedMasterId = "061FC23D-6DC8-4BE4-BEC8-2F5AB93B127B";
layerId = "437911E8-9156-48E9-BD3A-433320E8D8BE";
name = "Nov 4 18, 21:57";
paths = (
{
closed = 1;
nodes = (
"372 0 LINE",
"372 299 LINE",
"198 299 LINE",
"198 0 LINE"
);
},
{
closed = 1;
nodes = (
"44 237 OFFCURVE",
"96 155 OFFCURVE",
"202 155 CURVE SMOOTH",
"233 155 OFFCURVE",
"261 162 OFFCURVE",
"285 177 CURVE",
"309 162 OFFCURVE",
"337 155 OFFCURVE",
"368 155 CURVE SMOOTH",
"475 155 OFFCURVE",
"526 237 OFFCURVE",
"526 341 CURVE SMOOTH",
"526 671 LINE",
"342 671 LINE",
"342 416 LINE SMOOTH",
"342 342 OFFCURVE",
"323 318 OFFCURVE",
"285 318 CURVE SMOOTH",
"247 318 OFFCURVE",
"228 342 OFFCURVE",
"228 416 CURVE SMOOTH",
"228 671 LINE",
"44 671 LINE",
"44 341 LINE SMOOTH"
);
}
);
width = 557;
},
{
associatedMasterId = "061FC23D-6DC8-4BE4-BEC8-2F5AB93B127B";
layerId = "FE1AAB5E-9D92-4C1F-8AFE-E84DFBD412AB";
name = "Nov 4 18, 22:03";
paths = (
{
closed = 1;
nodes = (
"374 0 LINE",
"374 299 LINE",
"200 299 LINE",
"200 0 LINE"
);
},
{
closed = 1;
nodes = (
"16 303 OFFCURVE",
"60 155 OFFCURVE",
"239 155 CURVE SMOOTH",
"345 155 LINE SMOOTH",
"525 155 OFFCURVE",
"558 303 OFFCURVE",
"558 397 CURVE SMOOTH",
"558 671 LINE",
"379 671 LINE",
"379 397 LINE SMOOTH",
"379 323 OFFCURVE",
"337 299 OFFCURVE",
"287 299 CURVE SMOOTH",
"237 299 OFFCURVE",
"195 323 OFFCURVE",
"195 397 CURVE SMOOTH",
"195 671 LINE",
"16 671 LINE",
"16 397 LINE SMOOTH"
);
}
);
width = 574;
},
{
associatedMasterId = "061FC23D-6DC8-4BE4-BEC8-2F5AB93B127B";
layerId = "72F41D51-84C5-4A7D-8219-47466DD43C7A";
name = "Nov 4 18, 22:15";
paths = (
{
closed = 1;
nodes = (
"251 0 LINE",
"438 0 LINE",
"438 230 LINE",
"693 670 LINE",
"472 670 LINE",
"345 401 LINE",
"217 670 LINE",
"-4 670 LINE",
"251 230 LINE"
);
}
);
width = 689;
}
);
leftKerningGroup = V;
leftMetricsKey = V;
rightKerningGroup = V;
rightMetricsKey = V;
unicode = 0059;
},
{
glyphname = Z;
lastChange = "2019-01-28 21:48:07 +0000";
layers = (
{
layerId = "FBD32BA2-3DE3-41DC-83E1-8A694E18FAAC";
paths = (
{
closed = 1;
nodes = (
"512 0 LINE",
"512 162 LINE",
"270 162 LINE",
"543 670 LINE",
"27 670 LINE",
"27 508 LINE",
"253 508 LINE",
"-4 0 LINE"
);
}
);
width = 539;
},
{
associatedMasterId = "FBD32BA2-3DE3-41DC-83E1-8A694E18FAAC";
layerId = "97841D69-EEED-4E06-9766-70566382870C";
name = "Aug 5 18, 15:29";
paths = (
{
closed = 1;
nodes = (
"543 0 LINE",
"543 162 LINE",
"276 162 LINE",
"543 537 LINE",
"543 670 LINE",
"48 670 LINE",
"48 508 LINE",
"305 508 LINE",
"48 147 LINE",
"48 0 LINE"
);
}
);
width = 591;
},
{
associatedMasterId = "FBD32BA2-3DE3-41DC-83E1-8A694E18FAAC";
layerId = "31F1CC2D-E186-4905-B3F8-500A1CA3009C";
name = "Aug 5 18, 15:32";
paths = (
{
closed = 1;
nodes = (
"521 0 LINE",
"521 162 LINE",
"274 162 LINE",
"551 670 LINE",
"26 670 LINE",
"26 508 LINE",
"263 508 LINE",
"-4 0 LINE"
);
}
);
width = 547;
},
{
layerId = "061FC23D-6DC8-4BE4-BEC8-2F5AB93B127B";
paths = (
{
closed = 1;
nodes = (
"512 0 LINE",
"512 42 LINE",
"78 42 LINE",
"543 670 LINE",
"27 670 LINE",
"27 628 LINE",
"461 628 LINE",
"-4 0 LINE"
);
}
);
width = 539;
},
{
associatedMasterId = "061FC23D-6DC8-4BE4-BEC8-2F5AB93B127B";
layerId = "DDDFB14A-F3FA-4257-AF4B-84A2F8FE9E31";
name = "Aug 5 18, 15:29";
paths = (
{
closed = 1;
nodes = (
"543 0 LINE",
"543 162 LINE",
"276 162 LINE",
"543 537 LINE",
"543 670 LINE",
"48 670 LINE",
"48 508 LINE",
"305 508 LINE",
"48 147 LINE",
"48 0 LINE"
);
}
);
width = 591;
},
{
associatedMasterId = "061FC23D-6DC8-4BE4-BEC8-2F5AB93B127B";
layerId = "7C8A40B4-3C73-4F99-8A2F-9E870FFCFA6A";
name = "Aug 5 18, 15:32";
paths = (
{
closed = 1;
nodes = (
"521 0 LINE",
"521 162 LINE",
"274 162 LINE",
"551 670 LINE",
"26 670 LINE",
"26 508 LINE",
"263 508 LINE",
"-4 0 LINE"
);
}
);
width = 547;
}
);
leftMetricsKey = V;
rightMetricsKey = V;
unicode = 005A;
},
{
color = 8;
glyphname = a;
lastChange = "2019-02-05 08:14:44 +0000";
layers = (
{
anchors = (
{
name = top;
position = "{322, 516}";
}
);
components = (
{
name = bowl;
}
);
layerId = "FBD32BA2-3DE3-41DC-83E1-8A694E18FAAC";
paths = (
{
closed = 1;
nodes = (
"606 0 LINE",
"606 500 LINE",
"432 500 LINE",
"432 403 LINE",
"422 391 LINE",
"422 0 LINE"
);
}
);
width = 652;
},
{
associatedMasterId = "FBD32BA2-3DE3-41DC-83E1-8A694E18FAAC";
components = (
{
name = bowl;
transform = "{1, 0, 0, 1, -16, 0}";
}
);
layerId = "1C0CABD6-0DB2-4EE5-8C50-803B113E8F1E";
name = "Apr 28 18, 00:48";
paths = (
{
closed = 1;
nodes = (
"530 0 LINE",
"530 500 LINE",
"356 500 LINE",
"356 403 LINE",
"346 391 LINE",
"346 0 LINE"
);
}
);
width = 576;
},
{
associatedMasterId = "FBD32BA2-3DE3-41DC-83E1-8A694E18FAAC";
layerId = "31FF9BA0-1A00-4D62-BB32-D2FF530133C8";
name = "Apr 28 18, 01:00";
paths = (
{
closed = 1;
nodes = (
"334 305 OFFCURVE",
"251 324 OFFCURVE",
"196 324 CURVE SMOOTH",
"81 324 OFFCURVE",
"30 242 OFFCURVE",
"30 152 CURVE SMOOTH",
"30 52 OFFCURVE",
"93 -16 OFFCURVE",
"185 -16 CURVE SMOOTH",
"254 -16 OFFCURVE",
"318 23 OFFCURVE",
"334 106 CURVE",
"327 161 LINE",
"312 125 OFFCURVE",
"281 120 OFFCURVE",
"262 120 CURVE SMOOTH",
"230 120 OFFCURVE",
"210 134 OFFCURVE",
"210 158 CURVE SMOOTH",
"210 181 OFFCURVE",
"229 194 OFFCURVE",
"262 194 CURVE SMOOTH",
"283 194 OFFCURVE",
"308 189 OFFCURVE",
"327 161 CURVE",
"361 228 LINE"
);
},
{
closed = 1;
nodes = (
"238 355 LINE",
"244 373 OFFCURVE",
"260 384 OFFCURVE",
"285 384 CURVE SMOOTH",
"310 384 OFFCURVE",
"327 365 OFFCURVE",
"327 335 CURVE SMOOTH",
"327 0 LINE",
"510 0 LINE",
"510 318 LINE SMOOTH",
"510 416 OFFCURVE",
"451 516 OFFCURVE",
"277 516 CURVE SMOOTH",
"134 516 OFFCURVE",
"50 446 OFFCURVE",
"39 355 CURVE"
);
}
);
width = 556;
},
{
associatedMasterId = "FBD32BA2-3DE3-41DC-83E1-8A694E18FAAC";
layerId = "3EFE381C-F3B5-486A-B020-6FFF6419C32A";
name = "Apr 28 18, 01:10";
paths = (
{
closed = 1;
nodes = (
"332 305 OFFCURVE",
"249 324 OFFCURVE",
"194 324 CURVE SMOOTH",
"79 324 OFFCURVE",
"28 242 OFFCURVE",
"28 152 CURVE SMOOTH",
"28 52 OFFCURVE",
"91 -16 OFFCURVE",
"183 -16 CURVE SMOOTH",
"252 -16 OFFCURVE",
"316 23 OFFCURVE",
"332 106 CURVE",
"325 161 LINE",
"310 125 OFFCURVE",
"279 120 OFFCURVE",
"260 120 CURVE SMOOTH",
"228 120 OFFCURVE",
"208 134 OFFCURVE",
"208 158 CURVE SMOOTH",
"208 181 OFFCURVE",
"227 194 OFFCURVE",
"260 194 CURVE SMOOTH",
"281 194 OFFCURVE",
"306 189 OFFCURVE",
"325 161 CURVE",
"359 228 LINE"
);
},
{
closed = 1;
nodes = (
"259 500 LINE",
"120 500 OFFCURVE",
"56 423 OFFCURVE",
"56 358 CURVE",
"96 378 OFFCURVE",
"145 391 OFFCURVE",
"190 391 CURVE SMOOTH",
"263 391 OFFCURVE",
"325 359 OFFCURVE",
"325 280 CURVE",
"325 60 LINE SMOOTH",
"325 24 OFFCURVE",
"335 10 OFFCURVE",
"349 0 CURVE",
"528 0 LINE",
"512 15 OFFCURVE",
"508 34 OFFCURVE",
"508 57 CURVE SMOOTH",
"508 282 LINE SMOOTH",
"508 400 OFFCURVE",
"449 500 OFFCURVE",
"275 500 CURVE"
);
}
);
width = 545;
},
{
associatedMasterId = "FBD32BA2-3DE3-41DC-83E1-8A694E18FAAC";
layerId = "8CF12CE8-5651-4155-8F9C-FA5ECD93307A";
name = "Apr 28 18, 01:13";
paths = (
{
closed = 1;
nodes = (
"332 305 OFFCURVE",
"249 324 OFFCURVE",
"194 324 CURVE SMOOTH",
"79 324 OFFCURVE",
"28 242 OFFCURVE",
"28 152 CURVE SMOOTH",
"28 52 OFFCURVE",
"91 -16 OFFCURVE",
"183 -16 CURVE SMOOTH",
"252 -16 OFFCURVE",
"316 23 OFFCURVE",
"332 106 CURVE",
"325 161 LINE",
"310 125 OFFCURVE",
"279 120 OFFCURVE",
"260 120 CURVE SMOOTH",
"228 120 OFFCURVE",
"208 134 OFFCURVE",
"208 158 CURVE SMOOTH",
"208 181 OFFCURVE",
"227 194 OFFCURVE",
"260 194 CURVE SMOOTH",
"281 194 OFFCURVE",
"306 189 OFFCURVE",
"325 161 CURVE",
"359 228 LINE"
);
},
{
closed = 1;
nodes = (
"254 500 LINE",
"164 500 OFFCURVE",
"103 477 OFFCURVE",
"56 456 CURVE",
"56 420 OFFCURVE",
"56 374 OFFCURVE",
"56 348 CURVE",
"96 368 OFFCURVE",
"144 381 OFFCURVE",
"191 381 CURVE SMOOTH",
"264 381 OFFCURVE",
"325 349 OFFCURVE",
"325 290 CURVE SMOOTH",
"325 60 LINE SMOOTH",
"325 24 OFFCURVE",
"335 10 OFFCURVE",
"349 0 CURVE",
"528 0 LINE",
"512 15 OFFCURVE",
"508 34 OFFCURVE",
"508 57 CURVE SMOOTH",
"508 282 LINE SMOOTH",
"508 400 OFFCURVE",
"449 500 OFFCURVE",
"259 500 CURVE"
);
}
);
width = 545;
},
{
associatedMasterId = "FBD32BA2-3DE3-41DC-83E1-8A694E18FAAC";
layerId = "BE8EB99B-D600-4425-8889-11F52245C2E0";
name = "Apr 28 18, 01:17";
paths = (
{
closed = 1;
nodes = (
"255 516 CURVE",
"159 516 OFFCURVE",
"103 491 OFFCURVE",
"56 460 CURVE",
"56 348 LINE",
"96 368 OFFCURVE",
"144 381 OFFCURVE",
"191 381 CURVE SMOOTH",
"264 381 OFFCURVE",
"325 349 OFFCURVE",
"325 290 CURVE SMOOTH",
"325 60 LINE SMOOTH",
"325 24 OFFCURVE",
"335 10 OFFCURVE",
"349 0 CURVE",
"528 0 LINE",
"512 15 OFFCURVE",
"508 34 OFFCURVE",
"508 57 CURVE SMOOTH",
"508 298 LINE SMOOTH",
"508 440 OFFCURVE",
"421 516 OFFCURVE"
);
},
{
closed = 1;
nodes = (
"332 305 OFFCURVE",
"249 314 OFFCURVE",
"204 314 CURVE SMOOTH",
"79 314 OFFCURVE",
"28 242 OFFCURVE",
"28 152 CURVE SMOOTH",
"28 52 OFFCURVE",
"91 -16 OFFCURVE",
"183 -16 CURVE SMOOTH",
"252 -16 OFFCURVE",
"316 23 OFFCURVE",
"332 106 CURVE",
"325 161 LINE",
"310 125 OFFCURVE",
"279 120 OFFCURVE",
"260 120 CURVE SMOOTH",
"228 120 OFFCURVE",
"208 134 OFFCURVE",
"208 158 CURVE SMOOTH",
"208 181 OFFCURVE",
"227 194 OFFCURVE",
"260 194 CURVE SMOOTH",
"281 194 OFFCURVE",
"306 189 OFFCURVE",
"325 161 CURVE",
"359 228 LINE"
);
}
);
width = 545;
},
{
associatedMasterId = "FBD32BA2-3DE3-41DC-83E1-8A694E18FAAC";
components = (
{
name = bowl;
}
);
layerId = "17C783D3-697A-470B-B450-4B6CC1A5C9CC";
name = "Aug 5 18, 14:39";
paths = (
{
closed = 1;
nodes = (
"606 0 LINE",
"606 500 LINE",
"432 500 LINE",
"432 403 LINE",
"422 391 LINE",
"422 0 LINE"
);
}
);
width = 652;
},
{
associatedMasterId = "FBD32BA2-3DE3-41DC-83E1-8A694E18FAAC";
components = (
{
name = bowl;
}
);
layerId = "AC64224B-CBE1-4126-B263-4FF003215124";
name = "Sep 3 18, 22:12";
paths = (
{
closed = 1;
nodes = (
"606 0 LINE",
"606 500 LINE",
"432 500 LINE",
"432 403 LINE",
"422 391 LINE",
"422 0 LINE"
);
}
);
width = 652;
},
{
anchors = (
{
name = top;
position = "{282, 500}";
}
);
components = (
{
name = bowl;
transform = "{1, 0, 0, 1, 32, 0}";
}
);
layerId = "061FC23D-6DC8-4BE4-BEC8-2F5AB93B127B";
paths = (
{
closed = 1;
nodes = (
"524 0 LINE",
"524 500 LINE",
"488 500 LINE",
"488 375 LINE",
"484 363 LINE",
"484 0 LINE"
);
}
);
width = 590;
},
{
associatedMasterId = "061FC23D-6DC8-4BE4-BEC8-2F5AB93B127B";
components = (
{
name = bowl;
transform = "{1, 0, 0, 1, -16, 0}";
}
);
layerId = "89298261-9DD3-4721-A495-97646BA5C17D";
name = "Apr 28 18, 00:48";
paths = (
{
closed = 1;
nodes = (
"530 0 LINE",
"530 500 LINE",
"356 500 LINE",
"356 403 LINE",
"346 391 LINE",
"346 0 LINE"
);
}
);
width = 576;
},
{
associatedMasterId = "061FC23D-6DC8-4BE4-BEC8-2F5AB93B127B";
layerId = "D78F3F86-65C9-4A7D-A911-6D48F27F81A1";
name = "Apr 28 18, 01:00";
paths = (
{
closed = 1;
nodes = (
"334 305 OFFCURVE",
"251 324 OFFCURVE",
"196 324 CURVE SMOOTH",
"81 324 OFFCURVE",
"30 242 OFFCURVE",
"30 152 CURVE SMOOTH",
"30 52 OFFCURVE",
"93 -16 OFFCURVE",
"185 -16 CURVE SMOOTH",
"254 -16 OFFCURVE",
"318 23 OFFCURVE",
"334 106 CURVE",
"327 161 LINE",
"312 125 OFFCURVE",
"281 120 OFFCURVE",
"262 120 CURVE SMOOTH",
"230 120 OFFCURVE",
"210 134 OFFCURVE",
"210 158 CURVE SMOOTH",
"210 181 OFFCURVE",
"229 194 OFFCURVE",
"262 194 CURVE SMOOTH",
"283 194 OFFCURVE",
"308 189 OFFCURVE",
"327 161 CURVE",
"361 228 LINE"
);
},
{
closed = 1;
nodes = (
"238 355 LINE",
"244 373 OFFCURVE",
"260 384 OFFCURVE",
"285 384 CURVE SMOOTH",
"310 384 OFFCURVE",
"327 365 OFFCURVE",
"327 335 CURVE SMOOTH",
"327 0 LINE",
"510 0 LINE",
"510 318 LINE SMOOTH",
"510 416 OFFCURVE",
"451 516 OFFCURVE",
"277 516 CURVE SMOOTH",
"134 516 OFFCURVE",
"50 446 OFFCURVE",
"39 355 CURVE"
);
}
);
width = 556;
},
{
associatedMasterId = "061FC23D-6DC8-4BE4-BEC8-2F5AB93B127B";
layerId = "0C67BF1F-9F96-47C6-BBF0-D932F05683F8";
name = "Apr 28 18, 01:10";
paths = (
{
closed = 1;
nodes = (
"332 305 OFFCURVE",
"249 324 OFFCURVE",
"194 324 CURVE SMOOTH",
"79 324 OFFCURVE",
"28 242 OFFCURVE",
"28 152 CURVE SMOOTH",
"28 52 OFFCURVE",
"91 -16 OFFCURVE",
"183 -16 CURVE SMOOTH",
"252 -16 OFFCURVE",
"316 23 OFFCURVE",
"332 106 CURVE",
"325 161 LINE",
"310 125 OFFCURVE",
"279 120 OFFCURVE",
"260 120 CURVE SMOOTH",
"228 120 OFFCURVE",
"208 134 OFFCURVE",
"208 158 CURVE SMOOTH",
"208 181 OFFCURVE",
"227 194 OFFCURVE",
"260 194 CURVE SMOOTH",
"281 194 OFFCURVE",
"306 189 OFFCURVE",
"325 161 CURVE",
"359 228 LINE"
);
},
{
closed = 1;
nodes = (
"259 500 LINE",
"120 500 OFFCURVE",
"56 423 OFFCURVE",
"56 358 CURVE",
"96 378 OFFCURVE",
"145 391 OFFCURVE",
"190 391 CURVE SMOOTH",
"263 391 OFFCURVE",
"325 359 OFFCURVE",
"325 280 CURVE",
"325 60 LINE SMOOTH",
"325 24 OFFCURVE",
"335 10 OFFCURVE",
"349 0 CURVE",
"528 0 LINE",
"512 15 OFFCURVE",
"508 34 OFFCURVE",
"508 57 CURVE SMOOTH",
"508 282 LINE SMOOTH",
"508 400 OFFCURVE",
"449 500 OFFCURVE",
"275 500 CURVE"
);
}
);
width = 545;
},
{
associatedMasterId = "061FC23D-6DC8-4BE4-BEC8-2F5AB93B127B";
layerId = "359D2C50-CFA9-43DF-AE58-323717A4188E";
name = "Apr 28 18, 01:13";
paths = (
{
closed = 1;
nodes = (
"332 305 OFFCURVE",
"249 324 OFFCURVE",
"194 324 CURVE SMOOTH",
"79 324 OFFCURVE",
"28 242 OFFCURVE",
"28 152 CURVE SMOOTH",
"28 52 OFFCURVE",
"91 -16 OFFCURVE",
"183 -16 CURVE SMOOTH",
"252 -16 OFFCURVE",
"316 23 OFFCURVE",
"332 106 CURVE",
"325 161 LINE",
"310 125 OFFCURVE",
"279 120 OFFCURVE",
"260 120 CURVE SMOOTH",
"228 120 OFFCURVE",
"208 134 OFFCURVE",
"208 158 CURVE SMOOTH",
"208 181 OFFCURVE",
"227 194 OFFCURVE",
"260 194 CURVE SMOOTH",
"281 194 OFFCURVE",
"306 189 OFFCURVE",
"325 161 CURVE",
"359 228 LINE"
);
},
{
closed = 1;
nodes = (
"254 500 LINE",
"164 500 OFFCURVE",
"103 477 OFFCURVE",
"56 456 CURVE",
"56 420 OFFCURVE",
"56 374 OFFCURVE",
"56 348 CURVE",
"96 368 OFFCURVE",
"144 381 OFFCURVE",
"191 381 CURVE SMOOTH",
"264 381 OFFCURVE",
"325 349 OFFCURVE",
"325 290 CURVE SMOOTH",
"325 60 LINE SMOOTH",
"325 24 OFFCURVE",
"335 10 OFFCURVE",
"349 0 CURVE",
"528 0 LINE",
"512 15 OFFCURVE",
"508 34 OFFCURVE",
"508 57 CURVE SMOOTH",
"508 282 LINE SMOOTH",
"508 400 OFFCURVE",
"449 500 OFFCURVE",
"259 500 CURVE"
);
}
);
width = 545;
},
{
associatedMasterId = "061FC23D-6DC8-4BE4-BEC8-2F5AB93B127B";
layerId = "E61D63AE-B4C7-41CC-9DBF-540018995F47";
name = "Apr 28 18, 01:17";
paths = (
{
closed = 1;
nodes = (
"255 516 CURVE",
"159 516 OFFCURVE",
"103 491 OFFCURVE",
"56 460 CURVE",
"56 348 LINE",
"96 368 OFFCURVE",
"144 381 OFFCURVE",
"191 381 CURVE SMOOTH",
"264 381 OFFCURVE",
"325 349 OFFCURVE",
"325 290 CURVE SMOOTH",
"325 60 LINE SMOOTH",
"325 24 OFFCURVE",
"335 10 OFFCURVE",
"349 0 CURVE",
"528 0 LINE",
"512 15 OFFCURVE",
"508 34 OFFCURVE",
"508 57 CURVE SMOOTH",
"508 298 LINE SMOOTH",
"508 440 OFFCURVE",
"421 516 OFFCURVE"
);
},
{
closed = 1;
nodes = (
"332 305 OFFCURVE",
"249 314 OFFCURVE",
"204 314 CURVE SMOOTH",
"79 314 OFFCURVE",
"28 242 OFFCURVE",
"28 152 CURVE SMOOTH",
"28 52 OFFCURVE",
"91 -16 OFFCURVE",
"183 -16 CURVE SMOOTH",
"252 -16 OFFCURVE",
"316 23 OFFCURVE",
"332 106 CURVE",
"325 161 LINE",
"310 125 OFFCURVE",
"279 120 OFFCURVE",
"260 120 CURVE SMOOTH",
"228 120 OFFCURVE",
"208 134 OFFCURVE",
"208 158 CURVE SMOOTH",
"208 181 OFFCURVE",
"227 194 OFFCURVE",
"260 194 CURVE SMOOTH",
"281 194 OFFCURVE",
"306 189 OFFCURVE",
"325 161 CURVE",
"359 228 LINE"
);
}
);
width = 545;
},
{
associatedMasterId = "061FC23D-6DC8-4BE4-BEC8-2F5AB93B127B";
components = (
{
name = bowl;
}
);
layerId = "AF981DA3-5867-49DE-B04C-FA2538BC5042";
name = "Aug 5 18, 14:39";
paths = (
{
closed = 1;
nodes = (
"606 0 LINE",
"606 500 LINE",
"432 500 LINE",
"432 403 LINE",
"422 391 LINE",
"422 0 LINE"
);
}
);
width = 652;
},
{
associatedMasterId = "061FC23D-6DC8-4BE4-BEC8-2F5AB93B127B";
components = (
{
name = bowl;
}
);
layerId = "93908AD6-254E-4408-A308-D925A3C42F5A";
name = "Sep 3 18, 22:12";
paths = (
{
closed = 1;
nodes = (
"606 0 LINE",
"606 500 LINE",
"432 500 LINE",
"432 403 LINE",
"422 391 LINE",
"422 0 LINE"
);
}
);
width = 652;
}
);
leftKerningGroup = rounded;
leftMetricsKey = o;
rightKerningGroup = lowcaseStraight;
rightMetricsKey = n;
unicode = 0061;
},
{
color = 8;
glyphname = b;
lastChange = "2019-02-04 09:08:52 +0000";
layers = (
{
components = (
{
name = bowl;
transform = "{-1, 0, 0, -1, 650, 500}";
}
);
layerId = "FBD32BA2-3DE3-41DC-83E1-8A694E18FAAC";
paths = (
{
closed = 1;
nodes = (
"218 0 LINE",
"218 177 LINE",
"228 189 LINE",
"228 670 LINE",
"44 670 LINE",
"44 0 LINE"
);
}
);
width = 650;
},
{
components = (
{
name = bowl;
transform = "{-1, 0, 0, -1, 560, 500}";
}
);
layerId = "061FC23D-6DC8-4BE4-BEC8-2F5AB93B127B";
paths = (
{
closed = 1;
nodes = (
"104 0 LINE",
"104 177 LINE",
"108 189 LINE",
"108 670 LINE",
"64 670 LINE",
"64 0 LINE"
);
}
);
width = 592;
}
);
leftKerningGroup = lowcaseStraight;
leftMetricsKey = n;
rightKerningGroup = rounded;
rightMetricsKey = o;
unicode = 0062;
},
{
color = 1;
glyphname = c;
lastChange = "2019-02-04 09:08:52 +0000";
layers = (
{
layerId = "FBD32BA2-3DE3-41DC-83E1-8A694E18FAAC";
paths = (
{
closed = 1;
nodes = (
"437 -16 OFFCURVE",
"540 69 OFFCURVE",
"563 195 CURVE",
"391 195 LINE",
"374 157 OFFCURVE",
"339 135 OFFCURVE",
"296 135 CURVE SMOOTH",
"233 135 OFFCURVE",
"189 182 OFFCURVE",
"189 251 CURVE SMOOTH",
"189 319 OFFCURVE",
"233 365 OFFCURVE",
"296 365 CURVE SMOOTH",
"340 365 OFFCURVE",
"375 342 OFFCURVE",
"393 304 CURVE",
"564 304 LINE",
"542 430 OFFCURVE",
"438 516 OFFCURVE",
"296 516 CURVE SMOOTH",
"136 516 OFFCURVE",
"24 406 OFFCURVE",
"24 251 CURVE SMOOTH",
"24 94 OFFCURVE",
"136 -16 OFFCURVE",
"296 -16 CURVE SMOOTH"
);
}
);
width = 588;
},
{
associatedMasterId = "FBD32BA2-3DE3-41DC-83E1-8A694E18FAAC";
layerId = "6808D74F-25CE-4FCB-893F-094B81AB0E16";
name = "Jul 31 18, 00:05";
paths = (
{
closed = 1;
nodes = (
"377 -16 OFFCURVE",
"497 40 OFFCURVE",
"514 193 CURVE",
"338 193 LINE",
"338 183 LINE SMOOTH",
"338 124 OFFCURVE",
"310 104 OFFCURVE",
"276 104 CURVE SMOOTH",
"237 104 OFFCURVE",
"212 134 OFFCURVE",
"212 199 CURVE SMOOTH",
"212 299 LINE SMOOTH",
"212 364 OFFCURVE",
"237 396 OFFCURVE",
"276 396 CURVE SMOOTH",
"312 396 OFFCURVE",
"339 368 OFFCURVE",
"339 299 CURVE SMOOTH",
"339 289 LINE",
"516 289 LINE",
"507 456 OFFCURVE",
"381 516 OFFCURVE",
"272 516 CURVE SMOOTH",
"159 516 OFFCURVE",
"28 451 OFFCURVE",
"28 270 CURVE SMOOTH",
"28 230 LINE SMOOTH",
"28 49 OFFCURVE",
"159 -16 OFFCURVE",
"272 -16 CURVE SMOOTH"
);
}
);
width = 544;
},
{
associatedMasterId = "FBD32BA2-3DE3-41DC-83E1-8A694E18FAAC";
layerId = "90FCFF5D-356B-4298-A6B5-F1510B87E9FB";
name = "Jul 31 18, 00:18";
paths = (
{
closed = 1;
nodes = (
"567 297 LINE",
"555 458 OFFCURVE",
"433 516 OFFCURVE",
"296 516 CURVE SMOOTH",
"152 516 OFFCURVE",
"24 451 OFFCURVE",
"24 270 CURVE SMOOTH",
"24 230 LINE SMOOTH",
"24 49 OFFCURVE",
"152 -16 OFFCURVE",
"296 -16 CURVE SMOOTH",
"434 -16 OFFCURVE",
"556 43 OFFCURVE",
"567 205 CURVE",
"393 205 LINE",
"385 129 OFFCURVE",
"342 104 OFFCURVE",
"296 104 CURVE SMOOTH",
"245 104 OFFCURVE",
"198 134 OFFCURVE",
"198 230 CURVE SMOOTH",
"198 268 LINE SMOOTH",
"198 364 OFFCURVE",
"245 396 OFFCURVE",
"296 396 CURVE SMOOTH",
"341 396 OFFCURVE",
"384 371 OFFCURVE",
"392 297 CURVE"
);
}
);
width = 591;
},
{
layerId = "061FC23D-6DC8-4BE4-BEC8-2F5AB93B127B";
paths = (
{
closed = 1;
nodes = (
"410 -8 OFFCURVE",
"501 68 OFFCURVE",
"525 185 CURVE",
"485 185 LINE",
"461 91 OFFCURVE",
"386 30 OFFCURVE",
"282 30 CURVE SMOOTH",
"156 30 OFFCURVE",
"72 117 OFFCURVE",
"72 250 CURVE SMOOTH",
"72 381 OFFCURVE",
"155 470 OFFCURVE",
"282 470 CURVE SMOOTH",
"381 470 OFFCURVE",
"455 415 OFFCURVE",
"481 327 CURVE",
"523 327 LINE",
"495 437 OFFCURVE",
"406 508 OFFCURVE",
"282 508 CURVE SMOOTH",
"132 508 OFFCURVE",
"32 405 OFFCURVE",
"32 251 CURVE SMOOTH",
"32 97 OFFCURVE",
"132 -8 OFFCURVE",
"282 -8 CURVE SMOOTH"
);
}
);
width = 557;
},
{
associatedMasterId = "061FC23D-6DC8-4BE4-BEC8-2F5AB93B127B";
layerId = "8E81D11A-329D-4EB2-9CC2-5C9011F71EF2";
name = "Jul 31 18, 00:05";
paths = (
{
closed = 1;
nodes = (
"377 -16 OFFCURVE",
"497 40 OFFCURVE",
"514 193 CURVE",
"338 193 LINE",
"338 183 LINE SMOOTH",
"338 124 OFFCURVE",
"310 104 OFFCURVE",
"276 104 CURVE SMOOTH",
"237 104 OFFCURVE",
"212 134 OFFCURVE",
"212 199 CURVE SMOOTH",
"212 299 LINE SMOOTH",
"212 364 OFFCURVE",
"237 396 OFFCURVE",
"276 396 CURVE SMOOTH",
"312 396 OFFCURVE",
"339 368 OFFCURVE",
"339 299 CURVE SMOOTH",
"339 289 LINE",
"516 289 LINE",
"507 456 OFFCURVE",
"381 516 OFFCURVE",
"272 516 CURVE SMOOTH",
"159 516 OFFCURVE",
"28 451 OFFCURVE",
"28 270 CURVE SMOOTH",
"28 230 LINE SMOOTH",
"28 49 OFFCURVE",
"159 -16 OFFCURVE",
"272 -16 CURVE SMOOTH"
);
}
);
width = 544;
},
{
associatedMasterId = "061FC23D-6DC8-4BE4-BEC8-2F5AB93B127B";
layerId = "43949724-63A2-4E58-85D1-E711EC862446";
name = "Jul 31 18, 00:18";
paths = (
{
closed = 1;
nodes = (
"567 297 LINE",
"555 458 OFFCURVE",
"433 516 OFFCURVE",
"296 516 CURVE SMOOTH",
"152 516 OFFCURVE",
"24 451 OFFCURVE",
"24 270 CURVE SMOOTH",
"24 230 LINE SMOOTH",
"24 49 OFFCURVE",
"152 -16 OFFCURVE",
"296 -16 CURVE SMOOTH",
"434 -16 OFFCURVE",
"556 43 OFFCURVE",
"567 205 CURVE",
"393 205 LINE",
"385 129 OFFCURVE",
"342 104 OFFCURVE",
"296 104 CURVE SMOOTH",
"245 104 OFFCURVE",
"198 134 OFFCURVE",
"198 230 CURVE SMOOTH",
"198 268 LINE SMOOTH",
"198 364 OFFCURVE",
"245 396 OFFCURVE",
"296 396 CURVE SMOOTH",
"341 396 OFFCURVE",
"384 371 OFFCURVE",
"392 297 CURVE"
);
}
);
width = 591;
}
);
leftKerningGroup = rounded;
leftMetricsKey = o;
rightKerningGroup = rounded;
rightMetricsKey = o;
unicode = 0063;
},
{
color = 8;
glyphname = d;
lastChange = "2019-02-04 09:08:52 +0000";
layers = (
{
components = (
{
name = bowl;
transform = "{1, 0, 0, -1, 0, 500}";
}
);
layerId = "FBD32BA2-3DE3-41DC-83E1-8A694E18FAAC";
paths = (
{
closed = 1;
nodes = (
"606 0 LINE",
"606 670 LINE",
"422 670 LINE",
"422 139 LINE",
"432 127 LINE",
"432 0 LINE"
);
}
);
width = 652;
},
{
components = (
{
name = bowl;
transform = "{1, 0, 0, -1, 32, 500}";
}
);
layerId = "061FC23D-6DC8-4BE4-BEC8-2F5AB93B127B";
paths = (
{
closed = 1;
nodes = (
"528 0 LINE",
"528 670 LINE",
"484 670 LINE",
"484 139 LINE",
"488 127 LINE",
"488 0 LINE"
);
}
);
width = 594;
}
);
leftKerningGroup = rounded;
leftMetricsKey = o;
rightKerningGroup = lowcaseStraight;
rightMetricsKey = n;
unicode = 0064;
},
{
color = 1;
glyphname = e;
lastChange = "2019-04-01 14:13:21 +0000";
layers = (
{
anchors = (
{
name = top;
position = "{296, 516}";
}
);
background = {
paths = (
{
closed = 0;
nodes = (
"338 298 LINE"
);
},
{
closed = 0;
nodes = (
"524 269 LINE SMOOTH"
);
}
);
};
layerId = "FBD32BA2-3DE3-41DC-83E1-8A694E18FAAC";
paths = (
{
closed = 1;
nodes = (
"386 169 LINE",
"370 139 OFFCURVE",
"334 123 OFFCURVE",
"297 123 CURVE SMOOTH",
"234 123 OFFCURVE",
"186 170 OFFCURVE",
"186 251 CURVE SMOOTH",
"186 331 OFFCURVE",
"232 377 OFFCURVE",
"296 377 CURVE SMOOTH",
"359 377 OFFCURVE",
"404 331 OFFCURVE",
"406 253 CURVE",
"568 253 LINE",
"567 407 OFFCURVE",
"455 516 OFFCURVE",
"296 516 CURVE SMOOTH",
"136 516 OFFCURVE",
"24 406 OFFCURVE",
"24 251 CURVE SMOOTH",
"24 94 OFFCURVE",
"136 -16 OFFCURVE",
"298 -16 CURVE SMOOTH",
"428 -16 OFFCURVE",
"527 55 OFFCURVE",
"558 169 CURVE"
);
},
{
closed = 1;
nodes = (
"568 209 LINE",
"568 263 LINE",
"496 306 LINE",
"118 306 LINE",
"118 209 LINE"
);
}
);
width = 588;
},
{
associatedMasterId = "FBD32BA2-3DE3-41DC-83E1-8A694E18FAAC";
layerId = "45925E3B-B1BF-4BAB-9D14-3A578E7E03D8";
name = "Jul 31 18, 00:06";
paths = (
{
closed = 1;
nodes = (
"387 -16 OFFCURVE",
"497 36 OFFCURVE",
"520 175 CURVE",
"337 175 LINE",
"337 138 OFFCURVE",
"317 104 OFFCURVE",
"277 104 CURVE SMOOTH",
"239 104 OFFCURVE",
"212 135 OFFCURVE",
"212 202 CURVE SMOOTH",
"212 302 LINE SMOOTH",
"212 354 OFFCURVE",
"234 396 OFFCURVE",
"276 396 CURVE SMOOTH",
"314 396 OFFCURVE",
"338 362 OFFCURVE",
"338 298 CURVE",
"198 298 LINE",
"198 217 LINE",
"524 217 LINE",
"524 269 LINE SMOOTH",
"524 451 OFFCURVE",
"389 516 OFFCURVE",
"276 516 CURVE SMOOTH",
"163 516 OFFCURVE",
"28 451 OFFCURVE",
"28 270 CURVE SMOOTH",
"28 230 LINE SMOOTH",
"28 49 OFFCURVE",
"163 -16 OFFCURVE",
"281 -16 CURVE SMOOTH"
);
}
);
width = 548;
},
{
associatedMasterId = "FBD32BA2-3DE3-41DC-83E1-8A694E18FAAC";
background = {
paths = (
{
closed = 0;
nodes = (
"338 298 LINE"
);
},
{
closed = 0;
nodes = (
"524 269 LINE SMOOTH"
);
}
);
};
layerId = "080267F0-5127-44A8-9563-54A7F9AD7BD5";
name = "Jul 31 18, 00:16";
paths = (
{
closed = 1;
nodes = (
"24 57 OFFCURVE",
"152 -16 OFFCURVE",
"296 -16 CURVE SMOOTH",
"434 -16 OFFCURVE",
"567 66 OFFCURVE",
"567 205 CURVE",
"393 205 LINE",
"385 129 OFFCURVE",
"342 104 OFFCURVE",
"296 104 CURVE SMOOTH",
"247 104 OFFCURVE",
"202 131 OFFCURVE",
"198 237 CURVE",
"567 237 LINE",
"567 408 OFFCURVE",
"490 516 OFFCURVE",
"296 516 CURVE SMOOTH",
"105 516 OFFCURVE",
"24 406 OFFCURVE",
"24 250 CURVE SMOOTH"
);
},
{
closed = 1;
nodes = (
"209 371 OFFCURVE",
"251 396 OFFCURVE",
"296 396 CURVE SMOOTH",
"341 396 OFFCURVE",
"384 371 OFFCURVE",
"392 297 CURVE",
"200 298 LINE"
);
}
);
width = 587;
},
{
associatedMasterId = "FBD32BA2-3DE3-41DC-83E1-8A694E18FAAC";
background = {
paths = (
{
closed = 0;
nodes = (
"338 298 LINE"
);
},
{
closed = 0;
nodes = (
"524 269 LINE SMOOTH"
);
}
);
};
layerId = "AD01E59C-FA4B-483E-BA47-2F701DB8132E";
name = "Jul 31 18, 00:19";
paths = (
{
closed = 1;
nodes = (
"24 57 OFFCURVE",
"152 -16 OFFCURVE",
"296 -16 CURVE SMOOTH",
"434 -16 OFFCURVE",
"567 66 OFFCURVE",
"567 205 CURVE",
"393 205 LINE",
"385 129 OFFCURVE",
"342 104 OFFCURVE",
"296 104 CURVE SMOOTH",
"247 104 OFFCURVE",
"202 131 OFFCURVE",
"198 237 CURVE",
"567 237 LINE",
"567 408 OFFCURVE",
"490 516 OFFCURVE",
"296 516 CURVE SMOOTH",
"105 516 OFFCURVE",
"24 406 OFFCURVE",
"24 250 CURVE SMOOTH"
);
},
{
closed = 1;
nodes = (
"209 371 OFFCURVE",
"251 396 OFFCURVE",
"296 396 CURVE SMOOTH",
"341 396 OFFCURVE",
"384 371 OFFCURVE",
"392 297 CURVE",
"200 298 LINE"
);
}
);
width = 587;
},
{
associatedMasterId = "FBD32BA2-3DE3-41DC-83E1-8A694E18FAAC";
background = {
paths = (
{
closed = 0;
nodes = (
"338 298 LINE"
);
},
{
closed = 0;
nodes = (
"524 269 LINE SMOOTH"
);
}
);
};
layerId = "6757FB46-DD23-4ADB-8A0B-428568468A7A";
name = "Aug 5 18, 14:40";
paths = (
{
closed = 1;
nodes = (
"568 253 LINE",
"567 407 OFFCURVE",
"455 516 OFFCURVE",
"296 516 CURVE SMOOTH",
"136 516 OFFCURVE",
"24 406 OFFCURVE",
"24 251 CURVE SMOOTH",
"24 94 OFFCURVE",
"136 -16 OFFCURVE",
"296 -16 CURVE SMOOTH",
"434 -16 OFFCURVE",
"536 66 OFFCURVE",
"562 189 CURVE",
"390 184 LINE",
"370 152 OFFCURVE",
"337 133 OFFCURVE",
"296 133 CURVE SMOOTH",
"232 133 OFFCURVE",
"186 180 OFFCURVE",
"186 251 CURVE SMOOTH",
"186 321 OFFCURVE",
"232 367 OFFCURVE",
"296 367 CURVE SMOOTH",
"360 367 OFFCURVE",
"405 321 OFFCURVE",
"406 253 CURVE"
);
},
{
closed = 1;
nodes = (
"118 228 LINE",
"568 228 LINE",
"568 253 LINE",
"496 287 LINE",
"118 287 LINE"
);
}
);
width = 588;
},
{
associatedMasterId = "FBD32BA2-3DE3-41DC-83E1-8A694E18FAAC";
background = {
paths = (
{
closed = 0;
nodes = (
"338 298 LINE"
);
},
{
closed = 0;
nodes = (
"524 269 LINE SMOOTH"
);
}
);
};
layerId = "A228109B-1490-47DB-867C-119D5D5DD865";
name = "Nov 4 18, 20:51";
paths = (
{
closed = 1;
nodes = (
"568 253 LINE",
"567 407 OFFCURVE",
"455 516 OFFCURVE",
"296 516 CURVE SMOOTH",
"136 516 OFFCURVE",
"24 406 OFFCURVE",
"24 251 CURVE SMOOTH",
"24 94 OFFCURVE",
"136 -16 OFFCURVE",
"298 -16 CURVE SMOOTH",
"434 -16 OFFCURVE",
"536 61 OFFCURVE",
"562 184 CURVE",
"390 184 LINE",
"370 142 OFFCURVE",
"337 123 OFFCURVE",
"296 123 CURVE SMOOTH",
"232 123 OFFCURVE",
"186 170 OFFCURVE",
"186 251 CURVE SMOOTH",
"186 331 OFFCURVE",
"232 377 OFFCURVE",
"296 377 CURVE SMOOTH",
"360 377 OFFCURVE",
"405 331 OFFCURVE",
"406 253 CURVE"
);
},
{
closed = 1;
nodes = (
"118 228 LINE",
"568 228 LINE",
"568 253 LINE",
"496 287 LINE",
"118 287 LINE"
);
}
);
width = 588;
},
{
anchors = (
{
name = top;
position = "{304, 516}";
}
);
background = {
paths = (
{
closed = 0;
nodes = (
"346 298 LINE"
);
},
{
closed = 0;
nodes = (
"532 269 LINE SMOOTH"
);
}
);
};
layerId = "061FC23D-6DC8-4BE4-BEC8-2F5AB93B127B";
paths = (
{
closed = 1;
nodes = (
"478 163 LINE",
"448 82 OFFCURVE",
"378 30 OFFCURVE",
"282 30 CURVE SMOOTH",
"156 30 OFFCURVE",
"72 117 OFFCURVE",
"72 250 CURVE SMOOTH",
"72 381 OFFCURVE",
"155 470 OFFCURVE",
"282 470 CURVE SMOOTH",
"407 470 OFFCURVE",
"490 383 OFFCURVE",
"492 254 CURVE",
"532 254 LINE",
"531 404 OFFCURVE",
"431 508 OFFCURVE",
"282 508 CURVE SMOOTH",
"132 508 OFFCURVE",
"32 405 OFFCURVE",
"32 251 CURVE SMOOTH",
"32 97 OFFCURVE",
"132 -8 OFFCURVE",
"282 -8 CURVE SMOOTH",
"401 -8 OFFCURVE",
"489 59 OFFCURVE",
"520 163 CURVE"
);
},
{
closed = 1;
nodes = (
"532 232 LINE",
"532 256 LINE",
"496 270 LINE",
"62 270 LINE",
"62 232 LINE"
);
}
);
width = 560;
},
{
associatedMasterId = "061FC23D-6DC8-4BE4-BEC8-2F5AB93B127B";
layerId = "7A6BBA05-0F1D-42C4-90A8-FE997630677B";
name = "Jul 31 18, 00:06";
paths = (
{
closed = 1;
nodes = (
"387 -16 OFFCURVE",
"497 36 OFFCURVE",
"520 175 CURVE",
"337 175 LINE",
"337 138 OFFCURVE",
"317 104 OFFCURVE",
"277 104 CURVE SMOOTH",
"239 104 OFFCURVE",
"212 135 OFFCURVE",
"212 202 CURVE SMOOTH",
"212 302 LINE SMOOTH",
"212 354 OFFCURVE",
"234 396 OFFCURVE",
"276 396 CURVE SMOOTH",
"314 396 OFFCURVE",
"338 362 OFFCURVE",
"338 298 CURVE",
"198 298 LINE",
"198 217 LINE",
"524 217 LINE",
"524 269 LINE SMOOTH",
"524 451 OFFCURVE",
"389 516 OFFCURVE",
"276 516 CURVE SMOOTH",
"163 516 OFFCURVE",
"28 451 OFFCURVE",
"28 270 CURVE SMOOTH",
"28 230 LINE SMOOTH",
"28 49 OFFCURVE",
"163 -16 OFFCURVE",
"281 -16 CURVE SMOOTH"
);
}
);
width = 548;
},
{
associatedMasterId = "061FC23D-6DC8-4BE4-BEC8-2F5AB93B127B";
background = {
paths = (
{
closed = 0;
nodes = (
"338 298 LINE"
);
},
{
closed = 0;
nodes = (
"524 269 LINE SMOOTH"
);
}
);
};
layerId = "DD1C2A05-3771-42D9-B2A5-B5F984CC59B0";
name = "Jul 31 18, 00:16";
paths = (
{
closed = 1;
nodes = (
"24 57 OFFCURVE",
"152 -16 OFFCURVE",
"296 -16 CURVE SMOOTH",
"434 -16 OFFCURVE",
"567 66 OFFCURVE",
"567 205 CURVE",
"393 205 LINE",
"385 129 OFFCURVE",
"342 104 OFFCURVE",
"296 104 CURVE SMOOTH",
"247 104 OFFCURVE",
"202 131 OFFCURVE",
"198 237 CURVE",
"567 237 LINE",
"567 408 OFFCURVE",
"490 516 OFFCURVE",
"296 516 CURVE SMOOTH",
"105 516 OFFCURVE",
"24 406 OFFCURVE",
"24 250 CURVE SMOOTH"
);
},
{
closed = 1;
nodes = (
"209 371 OFFCURVE",
"251 396 OFFCURVE",
"296 396 CURVE SMOOTH",
"341 396 OFFCURVE",
"384 371 OFFCURVE",
"392 297 CURVE",
"200 298 LINE"
);
}
);
width = 587;
},
{
associatedMasterId = "061FC23D-6DC8-4BE4-BEC8-2F5AB93B127B";
background = {
paths = (
{
closed = 0;
nodes = (
"338 298 LINE"
);
},
{
closed = 0;
nodes = (
"524 269 LINE SMOOTH"
);
}
);
};
layerId = "6EA8E27B-A4A6-4349-8757-7E8A57AF3FE5";
name = "Jul 31 18, 00:19";
paths = (
{
closed = 1;
nodes = (
"24 57 OFFCURVE",
"152 -16 OFFCURVE",
"296 -16 CURVE SMOOTH",
"434 -16 OFFCURVE",
"567 66 OFFCURVE",
"567 205 CURVE",
"393 205 LINE",
"385 129 OFFCURVE",
"342 104 OFFCURVE",
"296 104 CURVE SMOOTH",
"247 104 OFFCURVE",
"202 131 OFFCURVE",
"198 237 CURVE",
"567 237 LINE",
"567 408 OFFCURVE",
"490 516 OFFCURVE",
"296 516 CURVE SMOOTH",
"105 516 OFFCURVE",
"24 406 OFFCURVE",
"24 250 CURVE SMOOTH"
);
},
{
closed = 1;
nodes = (
"209 371 OFFCURVE",
"251 396 OFFCURVE",
"296 396 CURVE SMOOTH",
"341 396 OFFCURVE",
"384 371 OFFCURVE",
"392 297 CURVE",
"200 298 LINE"
);
}
);
width = 587;
},
{
associatedMasterId = "061FC23D-6DC8-4BE4-BEC8-2F5AB93B127B";
background = {
paths = (
{
closed = 0;
nodes = (
"338 298 LINE"
);
},
{
closed = 0;
nodes = (
"524 269 LINE SMOOTH"
);
}
);
};
layerId = "767A0E89-E2CB-4501-95DB-19BDCFCDEE3C";
name = "Aug 5 18, 14:40";
paths = (
{
closed = 1;
nodes = (
"568 253 LINE",
"567 407 OFFCURVE",
"455 516 OFFCURVE",
"296 516 CURVE SMOOTH",
"136 516 OFFCURVE",
"24 406 OFFCURVE",
"24 251 CURVE SMOOTH",
"24 94 OFFCURVE",
"136 -16 OFFCURVE",
"296 -16 CURVE SMOOTH",
"434 -16 OFFCURVE",
"536 66 OFFCURVE",
"562 189 CURVE",
"390 184 LINE",
"370 152 OFFCURVE",
"337 133 OFFCURVE",
"296 133 CURVE SMOOTH",
"232 133 OFFCURVE",
"186 180 OFFCURVE",
"186 251 CURVE SMOOTH",
"186 321 OFFCURVE",
"232 367 OFFCURVE",
"296 367 CURVE SMOOTH",
"360 367 OFFCURVE",
"405 321 OFFCURVE",
"406 253 CURVE"
);
},
{
closed = 1;
nodes = (
"118 228 LINE",
"568 228 LINE",
"568 253 LINE",
"496 287 LINE",
"118 287 LINE"
);
}
);
width = 588;
},
{
associatedMasterId = "061FC23D-6DC8-4BE4-BEC8-2F5AB93B127B";
background = {
paths = (
{
closed = 0;
nodes = (
"338 298 LINE"
);
},
{
closed = 0;
nodes = (
"524 269 LINE SMOOTH"
);
}
);
};
layerId = "13B8C72E-EFE7-40FF-84A1-8D61D3FA3D3A";
name = "Nov 4 18, 20:51";
paths = (
{
closed = 1;
nodes = (
"568 253 LINE",
"567 407 OFFCURVE",
"455 516 OFFCURVE",
"296 516 CURVE SMOOTH",
"136 516 OFFCURVE",
"24 406 OFFCURVE",
"24 251 CURVE SMOOTH",
"24 94 OFFCURVE",
"136 -16 OFFCURVE",
"298 -16 CURVE SMOOTH",
"434 -16 OFFCURVE",
"536 61 OFFCURVE",
"562 184 CURVE",
"390 184 LINE",
"370 142 OFFCURVE",
"337 123 OFFCURVE",
"296 123 CURVE SMOOTH",
"232 123 OFFCURVE",
"186 170 OFFCURVE",
"186 251 CURVE SMOOTH",
"186 331 OFFCURVE",
"232 377 OFFCURVE",
"296 377 CURVE SMOOTH",
"360 377 OFFCURVE",
"405 331 OFFCURVE",
"406 253 CURVE"
);
},
{
closed = 1;
nodes = (
"118 228 LINE",
"568 228 LINE",
"568 253 LINE",
"496 287 LINE",
"118 287 LINE"
);
}
);
width = 588;
},
{
anchors = (
{
name = top;
position = "{301, 516}";
}
);
associatedMasterId = "061FC23D-6DC8-4BE4-BEC8-2F5AB93B127B";
background = {
paths = (
{
closed = 0;
nodes = (
"343 298 LINE"
);
},
{
closed = 0;
nodes = (
"529 269 LINE SMOOTH"
);
}
);
};
layerId = "B17B82CD-FADB-4796-87FB-D62897C148EE";
name = "Intermediate {100, 100}";
paths = (
{
closed = 1;
nodes = (
"415 -11 OFFCURVE",
"509 61 OFFCURVE",
"537 175 CURVE",
"446 175 LINE",
"424 108 OFFCURVE",
"364 66 OFFCURVE",
"287 66 CURVE SMOOTH",
"186 66 OFFCURVE",
"116 137 OFFCURVE",
"116 250 CURVE SMOOTH",
"116 362 OFFCURVE",
"185 434 OFFCURVE",
"287 434 CURVE SMOOTH",
"389 434 OFFCURVE",
"457 363 OFFCURVE",
"459 254 CURVE",
"546 254 LINE",
"545 405 OFFCURVE",
"440 511 OFFCURVE",
"287 511 CURVE SMOOTH",
"134 511 OFFCURVE",
"29 405 OFFCURVE",
"29 251 CURVE SMOOTH",
"29 96 OFFCURVE",
"134 -11 OFFCURVE",
"288 -11 CURVE SMOOTH"
);
},
{
closed = 1;
nodes = (
"546 227 LINE",
"546 259 LINE",
"496 299 LINE",
"84 299 LINE",
"84 227 LINE"
);
}
);
width = 571;
},
{
anchors = (
{
name = top;
position = "{296, 516}";
}
);
associatedMasterId = "FBD32BA2-3DE3-41DC-83E1-8A694E18FAAC";
background = {
paths = (
{
closed = 0;
nodes = (
"338 298 LINE"
);
},
{
closed = 0;
nodes = (
"524 269 LINE SMOOTH"
);
}
);
};
layerId = "E6D12A76-F26F-4DDB-B117-1CC6FEA79525";
name = "Feb 3 19, 23:11";
paths = (
{
closed = 1;
nodes = (
"386 169 LINE",
"370 139 OFFCURVE",
"334 123 OFFCURVE",
"297 123 CURVE SMOOTH",
"234 123 OFFCURVE",
"186 170 OFFCURVE",
"186 251 CURVE SMOOTH",
"186 331 OFFCURVE",
"232 377 OFFCURVE",
"296 377 CURVE SMOOTH",
"359 377 OFFCURVE",
"404 331 OFFCURVE",
"406 253 CURVE",
"568 253 LINE",
"567 407 OFFCURVE",
"455 516 OFFCURVE",
"296 516 CURVE SMOOTH",
"136 516 OFFCURVE",
"24 406 OFFCURVE",
"24 251 CURVE SMOOTH",
"24 94 OFFCURVE",
"136 -16 OFFCURVE",
"298 -16 CURVE SMOOTH",
"428 -16 OFFCURVE",
"527 55 OFFCURVE",
"558 169 CURVE"
);
},
{
closed = 1;
nodes = (
"568 218 LINE",
"568 263 LINE",
"496 297 LINE",
"118 297 LINE",
"118 218 LINE"
);
}
);
width = 588;
},
{
anchors = (
{
name = top;
position = "{296, 516}";
}
);
associatedMasterId = "FBD32BA2-3DE3-41DC-83E1-8A694E18FAAC";
background = {
paths = (
{
closed = 0;
nodes = (
"338 298 LINE"
);
},
{
closed = 0;
nodes = (
"524 269 LINE SMOOTH"
);
}
);
};
layerId = "B99CE7F9-A4D9-43CC-866D-A2F561CD0DD2";
name = "Feb 3 19, 23:14";
paths = (
{
closed = 1;
nodes = (
"364 169 LINE",
"358 129 OFFCURVE",
"334 103 OFFCURVE",
"298 103 CURVE SMOOTH",
"250 103 OFFCURVE",
"221 150 OFFCURVE",
"221 251 CURVE SMOOTH",
"221 351 OFFCURVE",
"247 397 OFFCURVE",
"297 397 CURVE SMOOTH",
"347 397 OFFCURVE",
"372 351 OFFCURVE",
"374 273 CURVE",
"568 253 LINE",
"567 407 OFFCURVE",
"455 516 OFFCURVE",
"296 516 CURVE SMOOTH",
"136 516 OFFCURVE",
"24 406 OFFCURVE",
"24 251 CURVE SMOOTH",
"24 94 OFFCURVE",
"136 -16 OFFCURVE",
"298 -16 CURVE SMOOTH",
"428 -16 OFFCURVE",
"547 55 OFFCURVE",
"558 169 CURVE"
);
},
{
closed = 1;
nodes = (
"568 218 LINE",
"568 263 LINE",
"496 297 LINE",
"118 297 LINE",
"118 218 LINE"
);
}
);
width = 588;
}
);
leftKerningGroup = rounded;
leftMetricsKey = o;
rightKerningGroup = rounded;
rightMetricsKey = "=o-4";
unicode = 0065;
},
{
glyphname = f;
lastChange = "2019-04-01 14:15:15 +0000";
layers = (
{
components = (
{
name = tail;
transform = "{1, 0, 0, -1, -43, 670}";
}
);
layerId = "FBD32BA2-3DE3-41DC-83E1-8A694E18FAAC";
paths = (
{
closed = 1;
nodes = (
"228 0 LINE",
"228 500 LINE",
"44 500 LINE",
"44 0 LINE"
);
},
{
closed = 1;
nodes = (
"304 384 LINE",
"304 500 LINE",
"0 500 LINE",
"0 384 LINE"
);
}
);
width = 307;
},
{
associatedMasterId = "FBD32BA2-3DE3-41DC-83E1-8A694E18FAAC";
layerId = "B987CFCB-7B48-46E5-A370-B999C4F215E9";
name = "Mar 21 18, 13:04";
paths = (
{
closed = 1;
nodes = (
"234 0 LINE",
"234 510 LINE",
"78 509 LINE",
"78 0 LINE"
);
},
{
closed = 1;
nodes = (
"234 510 LINE",
"234 576 OFFCURVE",
"265 591 OFFCURVE",
"309 591 CURVE SMOOTH",
"321 591 OFFCURVE",
"339 590 OFFCURVE",
"353 587 CURVE",
"353 676 LINE",
"329 680 OFFCURVE",
"297 684 OFFCURVE",
"257 684 CURVE SMOOTH",
"161 684 OFFCURVE",
"76 661 OFFCURVE",
"78 509 CURVE"
);
},
{
closed = 1;
nodes = (
"30 422 LINE",
"344 422 LINE",
"344 500 LINE",
"30 500 LINE"
);
}
);
width = 353;
},
{
components = (
{
name = tail;
transform = "{1, 0, 0, -1, -72, 678}";
}
);
layerId = "061FC23D-6DC8-4BE4-BEC8-2F5AB93B127B";
paths = (
{
closed = 1;
nodes = (
"112 0 LINE",
"112 550 LINE",
"72 550 LINE",
"72 0 LINE"
);
},
{
closed = 1;
nodes = (
"218 462 LINE",
"218 500 LINE",
"4 500 LINE",
"4 462 LINE"
);
}
);
width = 222;
},
{
associatedMasterId = "061FC23D-6DC8-4BE4-BEC8-2F5AB93B127B";
layerId = "3B41B5CD-C688-4AD1-881C-AE2D99E4B4A7";
name = "Mar 21 18, 13:04";
paths = (
{
closed = 1;
nodes = (
"234 0 LINE",
"234 510 LINE",
"78 509 LINE",
"78 0 LINE"
);
},
{
closed = 1;
nodes = (
"234 510 LINE",
"234 576 OFFCURVE",
"265 591 OFFCURVE",
"309 591 CURVE SMOOTH",
"321 591 OFFCURVE",
"339 590 OFFCURVE",
"353 587 CURVE",
"353 676 LINE",
"329 680 OFFCURVE",
"297 684 OFFCURVE",
"257 684 CURVE SMOOTH",
"161 684 OFFCURVE",
"76 661 OFFCURVE",
"78 509 CURVE"
);
},
{
closed = 1;
nodes = (
"30 422 LINE",
"344 422 LINE",
"344 500 LINE",
"30 500 LINE"
);
}
);
width = 353;
},
{
associatedMasterId = "FBD32BA2-3DE3-41DC-83E1-8A694E18FAAC";
layerId = "E4535D09-053B-4FB5-AFAD-75DDA7B95132";
name = "Jan 26 19, 18:54";
paths = (
{
closed = 1;
nodes = (
"264 0 LINE",
"264 500 LINE",
"80 500 LINE",
"80 0 LINE"
);
},
{
closed = 1;
nodes = (
"330 374 LINE",
"330 500 LINE",
"16 500 LINE",
"16 374 LINE"
);
},
{
closed = 1;
nodes = (
"264 500 LINE",
"264 510 LINE",
"264 553 OFFCURVE",
"276 571 OFFCURVE",
"308 571 CURVE SMOOTH",
"317 571 OFFCURVE",
"331 570 OFFCURVE",
"343 567 CURVE",
"343 690 LINE",
"327 694 OFFCURVE",
"304 697 OFFCURVE",
"269 697 CURVE SMOOTH",
"158 697 OFFCURVE",
"80 643 OFFCURVE",
"80 530 CURVE SMOOTH",
"80 500 LINE"
);
}
);
width = 349;
}
);
leftMetricsKey = v;
rightMetricsKey = v;
unicode = 0066;
},
{
color = 8;
glyphname = g;
lastChange = "2019-04-01 09:35:04 +0000";
layers = (
{
components = (
{
name = bowl;
}
);
layerId = "FBD32BA2-3DE3-41DC-83E1-8A694E18FAAC";
paths = (
{
closed = 1;
nodes = (
"250 -180 LINE",
"257 -180 OFFCURVE",
"289 -180 OFFCURVE",
"346 -180 CURVE SMOOTH",
"478 -180 OFFCURVE",
"597 -101 OFFCURVE",
"597 59 CURVE SMOOTH",
"597 500 LINE",
"422 500 LINE",
"422 119 LINE",
"422 107 LINE",
"422 59 LINE SMOOTH",
"422 -14 OFFCURVE",
"363 -52 OFFCURVE",
"286 -52 CURVE SMOOTH",
"258 -52 OFFCURVE",
"279 -52 OFFCURVE",
"250 -52 CURVE"
);
}
);
width = 643;
},
{
associatedMasterId = "FBD32BA2-3DE3-41DC-83E1-8A694E18FAAC";
components = (
{
name = bowl;
transform = "{1, 0, 0, 1, 4, 0}";
}
);
layerId = "9EA80E8D-5CDE-4079-B49B-DE18ED0FF05C";
name = "Apr 12 18, 13:55";
paths = (
{
closed = 1;
nodes = (
"366 -84 OFFCURVE",
"356 -129 OFFCURVE",
"288 -129 CURVE SMOOTH",
"222 -129 OFFCURVE",
"211 -87 OFFCURVE",
"211 -48 CURVE",
"46 -48 LINE",
"46 -115 OFFCURVE",
"87 -230 OFFCURVE",
"287 -230 CURVE SMOOTH",
"490 -230 OFFCURVE",
"542 -129 OFFCURVE",
"542 0 CURVE",
"542 500 LINE",
"376 500 LINE",
"376 403 LINE",
"366 391 LINE",
"366 0 LINE"
);
}
);
width = 588;
},
{
associatedMasterId = "FBD32BA2-3DE3-41DC-83E1-8A694E18FAAC";
components = (
{
name = bowl;
transform = "{1, 0, 0, 1, -16, 0}";
}
);
layerId = "6678E753-1D69-47E2-B353-50CF312C5B98";
name = "Apr 22 18, 22:20";
paths = (
{
closed = 1;
nodes = (
"346 -81 OFFCURVE",
"322 -110 OFFCURVE",
"281 -110 CURVE SMOOTH",
"242 -110 OFFCURVE",
"221 -84 OFFCURVE",
"221 -48 CURVE",
"37 -48 LINE",
"37 -115 OFFCURVE",
"65 -230 OFFCURVE",
"279 -230 CURVE SMOOTH",
"468 -230 OFFCURVE",
"530 -139 OFFCURVE",
"530 0 CURVE",
"530 500 LINE",
"356 500 LINE",
"356 403 LINE",
"346 391 LINE",
"346 -20 LINE"
);
}
);
width = 576;
},
{
associatedMasterId = "FBD32BA2-3DE3-41DC-83E1-8A694E18FAAC";
components = (
{
name = bowl;
}
);
layerId = "389B263A-00C0-4228-9CAA-42D283BDA907";
name = "Jul 31 18, 00:29";
paths = (
{
closed = 1;
nodes = (
"547 -230 OFFCURVE",
"606 -140 OFFCURVE",
"606 -1 CURVE SMOOTH",
"606 499 LINE",
"432 499 LINE",
"432 402 LINE",
"422 390 LINE",
"422 -21 LINE SMOOTH",
"422 -82 OFFCURVE",
"405 -111 OFFCURVE",
"364 -111 CURVE SMOOTH",
"326 -111 OFFCURVE",
"306 -85 OFFCURVE",
"306 -48 CURVE",
"127 -48 LINE",
"127 -116 OFFCURVE",
"154 -230 OFFCURVE",
"362 -230 CURVE SMOOTH"
);
}
);
width = 652;
},
{
associatedMasterId = "FBD32BA2-3DE3-41DC-83E1-8A694E18FAAC";
components = (
{
name = bowl;
}
);
layerId = "0A5519BB-5B84-4AF9-A3C9-F8FB0F9C989D";
name = "Nov 4 18, 22:41";
paths = (
{
closed = 1;
nodes = (
"538 -230 OFFCURVE",
"606 -130 OFFCURVE",
"606 9 CURVE SMOOTH",
"606 499 LINE",
"434 499 LINE",
"434 402 LINE",
"422 390 LINE",
"422 -21 LINE SMOOTH",
"422 -79 OFFCURVE",
"376 -111 OFFCURVE",
"316 -111 CURVE SMOOTH",
"251 -111 OFFCURVE",
"216 -75 OFFCURVE",
"216 -38 CURVE",
"31 -38 LINE",
"31 -106 OFFCURVE",
"67 -230 OFFCURVE",
"316 -230 CURVE SMOOTH"
);
}
);
width = 652;
},
{
components = (
{
name = bowl;
transform = "{1, 0, 0, 1, 32, 0}";
}
);
layerId = "061FC23D-6DC8-4BE4-BEC8-2F5AB93B127B";
paths = (
{
closed = 1;
nodes = (
"203 -156 LINE",
"229 -164 OFFCURVE",
"258 -168 OFFCURVE",
"290 -168 CURVE SMOOTH",
"421 -168 OFFCURVE",
"524 -98 OFFCURVE",
"524 60 CURVE SMOOTH",
"524 500 LINE",
"488 500 LINE",
"488 381 LINE",
"484 369 LINE",
"484 60 LINE SMOOTH",
"484 -67 OFFCURVE",
"400 -130 OFFCURVE",
"290 -130 CURVE SMOOTH",
"257 -130 OFFCURVE",
"228 -124 OFFCURVE",
"203 -114 CURVE"
);
}
);
width = 590;
},
{
associatedMasterId = "061FC23D-6DC8-4BE4-BEC8-2F5AB93B127B";
components = (
{
name = bowl;
transform = "{1, 0, 0, 1, 4, 0}";
}
);
layerId = "7FC05721-DA5E-472F-AAEA-21EE95EFC5B5";
name = "Apr 12 18, 13:55";
paths = (
{
closed = 1;
nodes = (
"366 -84 OFFCURVE",
"356 -129 OFFCURVE",
"288 -129 CURVE SMOOTH",
"222 -129 OFFCURVE",
"211 -87 OFFCURVE",
"211 -48 CURVE",
"46 -48 LINE",
"46 -115 OFFCURVE",
"87 -230 OFFCURVE",
"287 -230 CURVE SMOOTH",
"490 -230 OFFCURVE",
"542 -129 OFFCURVE",
"542 0 CURVE",
"542 500 LINE",
"376 500 LINE",
"376 403 LINE",
"366 391 LINE",
"366 0 LINE"
);
}
);
width = 588;
},
{
associatedMasterId = "061FC23D-6DC8-4BE4-BEC8-2F5AB93B127B";
components = (
{
name = bowl;
transform = "{1, 0, 0, 1, -16, 0}";
}
);
layerId = "95BE095D-6331-4D1A-8344-FB66C9B88B17";
name = "Apr 22 18, 22:20";
paths = (
{
closed = 1;
nodes = (
"346 -81 OFFCURVE",
"322 -110 OFFCURVE",
"281 -110 CURVE SMOOTH",
"242 -110 OFFCURVE",
"221 -84 OFFCURVE",
"221 -48 CURVE",
"37 -48 LINE",
"37 -115 OFFCURVE",
"65 -230 OFFCURVE",
"279 -230 CURVE SMOOTH",
"468 -230 OFFCURVE",
"530 -139 OFFCURVE",
"530 0 CURVE",
"530 500 LINE",
"356 500 LINE",
"356 403 LINE",
"346 391 LINE",
"346 -20 LINE"
);
}
);
width = 576;
},
{
associatedMasterId = "061FC23D-6DC8-4BE4-BEC8-2F5AB93B127B";
components = (
{
name = bowl;
}
);
layerId = "5E1E479D-DE92-4D9A-A8E2-1EA67F9E3F0A";
name = "Jul 31 18, 00:29";
paths = (
{
closed = 1;
nodes = (
"547 -230 OFFCURVE",
"606 -140 OFFCURVE",
"606 -1 CURVE SMOOTH",
"606 499 LINE",
"432 499 LINE",
"432 402 LINE",
"422 390 LINE",
"422 -21 LINE SMOOTH",
"422 -82 OFFCURVE",
"405 -111 OFFCURVE",
"364 -111 CURVE SMOOTH",
"326 -111 OFFCURVE",
"306 -85 OFFCURVE",
"306 -48 CURVE",
"127 -48 LINE",
"127 -116 OFFCURVE",
"154 -230 OFFCURVE",
"362 -230 CURVE SMOOTH"
);
}
);
width = 652;
},
{
associatedMasterId = "061FC23D-6DC8-4BE4-BEC8-2F5AB93B127B";
components = (
{
name = bowl;
}
);
layerId = "4EC45DB9-D7D2-4FD2-BC75-23D92E643E9B";
name = "Nov 4 18, 22:41";
paths = (
{
closed = 1;
nodes = (
"538 -230 OFFCURVE",
"606 -130 OFFCURVE",
"606 9 CURVE SMOOTH",
"606 499 LINE",
"434 499 LINE",
"434 402 LINE",
"422 390 LINE",
"422 -21 LINE SMOOTH",
"422 -79 OFFCURVE",
"376 -111 OFFCURVE",
"316 -111 CURVE SMOOTH",
"251 -111 OFFCURVE",
"216 -75 OFFCURVE",
"216 -38 CURVE",
"31 -38 LINE",
"31 -106 OFFCURVE",
"67 -230 OFFCURVE",
"316 -230 CURVE SMOOTH"
);
}
);
width = 652;
},
{
associatedMasterId = "FBD32BA2-3DE3-41DC-83E1-8A694E18FAAC";
components = (
{
name = bowl;
}
);
layerId = "DD00B6E0-6489-4CCA-BD84-75E5994120A8";
name = "Jan 28 19, 13:47";
paths = (
{
closed = 1;
nodes = (
"526 -230 OFFCURVE",
"606 -130 OFFCURVE",
"606 9 CURVE SMOOTH",
"606 500 LINE",
"432 500 LINE",
"432 402 LINE",
"422 390 LINE",
"422 -21 LINE SMOOTH",
"422 -74 OFFCURVE",
"376 -101 OFFCURVE",
"316 -101 CURVE SMOOTH",
"251 -101 OFFCURVE",
"214 -68 OFFCURVE",
"214 -38 CURVE",
"29 -38 LINE",
"39 -106 OFFCURVE",
"95 -230 OFFCURVE",
"324 -230 CURVE SMOOTH"
);
}
);
width = 652;
},
{
associatedMasterId = "061FC23D-6DC8-4BE4-BEC8-2F5AB93B127B";
components = (
{
name = bowl;
transform = "{1, 0, 0, 1, 24, 0}";
}
);
layerId = "44B848FA-4116-415B-AE43-8312E5150F33";
name = "Jan 28 19, 13:47";
paths = (
{
closed = 1;
nodes = (
"413 -230 OFFCURVE",
"516 -160 OFFCURVE",
"516 0 CURVE SMOOTH",
"516 500 LINE",
"480 500 LINE",
"480 381 LINE",
"476 369 LINE",
"476 0 LINE SMOOTH",
"476 -129 OFFCURVE",
"392 -192 OFFCURVE",
"282 -192 CURVE SMOOTH",
"161 -192 OFFCURVE",
"91 -115 OFFCURVE",
"91 -38 CURVE",
"51 -38 LINE",
"51 -146 OFFCURVE",
"138 -230 OFFCURVE",
"282 -230 CURVE SMOOTH"
);
}
);
width = 562;
},
{
associatedMasterId = "FBD32BA2-3DE3-41DC-83E1-8A694E18FAAC";
components = (
{
name = bowl;
}
);
layerId = "0BBB7834-1044-4D2C-BE9F-0324F596BE50";
name = "Feb 3 19, 22:40";
paths = (
{
closed = 1;
nodes = (
"264 -220 LINE",
"283 -222 OFFCURVE",
"303 -223 OFFCURVE",
"324 -223 CURVE SMOOTH",
"526 -223 OFFCURVE",
"606 -123 OFFCURVE",
"606 16 CURVE SMOOTH",
"606 500 LINE",
"432 500 LINE",
"432 402 LINE",
"422 390 LINE",
"422 -14 LINE SMOOTH",
"422 -67 OFFCURVE",
"376 -94 OFFCURVE",
"316 -94 CURVE SMOOTH",
"296 -94 OFFCURVE",
"279 -91 OFFCURVE",
"264 -86 CURVE"
);
}
);
width = 652;
},
{
associatedMasterId = "FBD32BA2-3DE3-41DC-83E1-8A694E18FAAC";
components = (
{
name = bowl;
}
);
layerId = "68BFB8AB-A915-47B8-B337-0D596DF7C5D5";
name = "Feb 3 19, 22:42";
paths = (
{
closed = 1;
nodes = (
"264 -220 LINE",
"283 -222 OFFCURVE",
"303 -223 OFFCURVE",
"324 -223 CURVE SMOOTH",
"526 -223 OFFCURVE",
"606 -123 OFFCURVE",
"606 16 CURVE SMOOTH",
"606 500 LINE",
"432 500 LINE",
"432 402 LINE",
"422 390 LINE",
"422 16 LINE SMOOTH",
"422 -37 OFFCURVE",
"376 -94 OFFCURVE",
"306 -94 CURVE",
"300 -94 OFFCURVE",
"287 -94 OFFCURVE",
"264 -94 CURVE"
);
}
);
width = 652;
}
);
leftKerningGroup = rounded;
leftMetricsKey = o;
rightKerningGroup = lowcaseStraight;
rightMetricsKey = n;
unicode = 0067;
},
{
color = 0;
glyphname = h;
lastChange = "2019-02-04 09:08:32 +0000";
layers = (
{
components = (
{
name = _shoulder;
transform = "{1, 0, 0, 1, 12, 0}";
}
);
layerId = "FBD32BA2-3DE3-41DC-83E1-8A694E18FAAC";
paths = (
{
closed = 1;
nodes = (
"228 0 LINE",
"228 381 LINE",
"218 393 LINE",
"218 670 LINE",
"44 670 LINE",
"44 0 LINE"
);
}
);
width = 578;
},
{
components = (
{
name = _shoulder;
transform = "{1, 0, 0, 1, 100, 0}";
}
);
layerId = "061FC23D-6DC8-4BE4-BEC8-2F5AB93B127B";
paths = (
{
closed = 1;
nodes = (
"104 0 LINE",
"104 325 LINE",
"100 341 LINE",
"100 670 LINE",
"64 670 LINE",
"64 0 LINE"
);
}
);
width = 566;
}
);
leftKerningGroup = lowcaseStraight;
leftMetricsKey = n;
rightKerningGroup = shoulder;
rightMetricsKey = n;
unicode = 0068;
},
{
glyphname = idotless;
lastChange = "2019-02-04 09:09:06 +0000";
layers = (
{
anchors = (
{
name = top;
position = "{131, 500}";
}
);
layerId = "FBD32BA2-3DE3-41DC-83E1-8A694E18FAAC";
paths = (
{
closed = 1;
nodes = (
"220 0 LINE",
"220 500 LINE",
"42 500 LINE",
"42 0 LINE"
);
}
);
width = 267;
},
{
anchors = (
{
name = top;
position = "{84, 500}";
}
);
layerId = "061FC23D-6DC8-4BE4-BEC8-2F5AB93B127B";
paths = (
{
closed = 1;
nodes = (
"104 0 LINE",
"104 500 LINE",
"64 500 LINE",
"64 0 LINE"
);
}
);
width = 170;
}
);
leftMetricsKey = n;
rightMetricsKey = n;
unicode = 0131;
},
{
glyphname = jdotless;
lastChange = "2019-04-01 09:37:56 +0000";
layers = (
{
anchors = (
{
name = top;
position = "{153, 500}";
}
);
components = (
{
name = tail;
transform = "{-1, 0, 0, 1, 332, -183}";
}
);
layerId = "FBD32BA2-3DE3-41DC-83E1-8A694E18FAAC";
paths = (
{
closed = 1;
nodes = (
"245 -19 LINE",
"245 500 LINE",
"61 500 LINE",
"61 -19 LINE"
);
}
);
width = 287;
},
{
anchors = (
{
name = top;
position = "{66, 500}";
}
);
components = (
{
name = tail;
transform = "{-1, 0, 0, 1, 230, -160}";
}
);
layerId = "061FC23D-6DC8-4BE4-BEC8-2F5AB93B127B";
paths = (
{
closed = 1;
nodes = (
"86 -35 LINE",
"86 500 LINE",
"46 500 LINE",
"46 -35 LINE"
);
}
);
width = 152;
},
{
anchors = (
{
name = top;
position = "{153, 516}";
}
);
associatedMasterId = "FBD32BA2-3DE3-41DC-83E1-8A694E18FAAC";
layerId = "785EA2A7-B352-4E0D-B20A-8E0AC20E24D8";
name = "Jan 26 19, 18:48";
paths = (
{
closed = 1;
nodes = (
"167 -214 OFFCURVE",
"245 -180 OFFCURVE",
"245 -67 CURVE SMOOTH",
"245 0 LINE",
"61 0 LINE",
"61 -47 LINE",
"61 -70 OFFCURVE",
"49 -88 OFFCURVE",
"17 -88 CURVE SMOOTH",
"8 -88 OFFCURVE",
"-6 -87 OFFCURVE",
"-18 -84 CURVE",
"-18 -207 LINE",
"-2 -211 OFFCURVE",
"21 -214 OFFCURVE",
"56 -214 CURVE SMOOTH"
);
},
{
closed = 1;
nodes = (
"245 0 LINE",
"245 500 LINE",
"61 500 LINE",
"61 0 LINE"
);
}
);
width = 287;
}
);
rightMetricsKey = n;
unicode = 0237;
},
{
glyphname = k;
lastChange = "2019-02-05 07:57:02 +0000";
layers = (
{
layerId = "FBD32BA2-3DE3-41DC-83E1-8A694E18FAAC";
paths = (
{
closed = 1;
nodes = (
"559 -1 LINE",
"537 105 LINE SMOOTH",
"517 199 OFFCURVE",
"440 265 OFFCURVE",
"324 266 CURVE",
"324 272 LINE",
"428 272 OFFCURVE",
"495 322 OFFCURVE",
"515 397 CURVE SMOOTH",
"543 501 LINE",
"406 501 LINE SMOOTH",
"377 501 OFFCURVE",
"344 491 OFFCURVE",
"333 444 CURVE SMOOTH",
"323 400 LINE SMOOTH",
"312 350 OFFCURVE",
"291 328 OFFCURVE",
"237 328 CURVE SMOOTH",
"206 328 LINE",
"206 191 LINE",
"237 191 LINE SMOOTH",
"284 191 OFFCURVE",
"327 171 OFFCURVE",
"344 100 CURVE SMOOTH",
"355 53 LINE SMOOTH",
"363 17 OFFCURVE",
"383 -1 OFFCURVE",
"421 -1 CURVE SMOOTH"
);
},
{
closed = 1;
nodes = (
"228 0 LINE",
"228 670 LINE",
"44 670 LINE",
"44 0 LINE"
);
}
);
width = 559;
},
{
associatedMasterId = "FBD32BA2-3DE3-41DC-83E1-8A694E18FAAC";
layerId = "B4EA175F-2E48-4080-9CE3-35BBAEF41C86";
name = "Oct 21 18, 18:09";
paths = (
{
closed = 1;
nodes = (
"569 0 LINE",
"389 273 LINE",
"547 500 LINE",
"343 500 LINE",
"189 234 LINE",
"230 234 LINE",
"373 0 LINE"
);
},
{
closed = 1;
nodes = (
"228 0 LINE",
"228 670 LINE",
"44 670 LINE",
"44 0 LINE"
);
}
);
width = 569;
},
{
associatedMasterId = "FBD32BA2-3DE3-41DC-83E1-8A694E18FAAC";
layerId = "1E24C061-9A3B-47D2-B442-931A5525AE20";
name = "Nov 6 18, 22:34";
paths = (
{
closed = 1;
nodes = (
"539 -1 LINE",
"517 105 LINE SMOOTH",
"497 199 OFFCURVE",
"420 265 OFFCURVE",
"304 266 CURVE",
"304 272 LINE",
"408 272 OFFCURVE",
"465 322 OFFCURVE",
"485 397 CURVE SMOOTH",
"513 501 LINE",
"386 501 LINE SMOOTH",
"357 501 OFFCURVE",
"324 491 OFFCURVE",
"313 444 CURVE",
"303 400 LINE SMOOTH",
"292 350 OFFCURVE",
"271 328 OFFCURVE",
"217 328 CURVE",
"217 191 LINE",
"264 191 OFFCURVE",
"307 171 OFFCURVE",
"324 100 CURVE SMOOTH",
"335 53 LINE",
"342 16 OFFCURVE",
"363 -1 OFFCURVE",
"401 -1 CURVE SMOOTH"
);
},
{
closed = 1;
nodes = (
"228 0 LINE",
"228 670 LINE",
"44 670 LINE",
"44 0 LINE"
);
}
);
width = 539;
},
{
layerId = "061FC23D-6DC8-4BE4-BEC8-2F5AB93B127B";
paths = (
{
closed = 1;
nodes = (
"468 -1 LINE",
"345 190 LINE SMOOTH",
"310 244 OFFCURVE",
"274 265 OFFCURVE",
"224 269 CURVE",
"224 273 LINE",
"270 276 OFFCURVE",
"306 305 OFFCURVE",
"332 343 CURVE SMOOTH",
"442 500 LINE",
"441 500 LINE SMOOTH",
"403 500 OFFCURVE",
"385 491 OFFCURVE",
"368 467 CURVE SMOOTH",
"293 361 LINE SMOOTH",
"261 315 OFFCURVE",
"220 289 OFFCURVE",
"138 289 CURVE SMOOTH",
"100 289 LINE",
"100 251 LINE",
"147 251 LINE SMOOTH",
"236 251 OFFCURVE",
"278 218 OFFCURVE",
"304 177 CURVE SMOOTH",
"393 35 LINE SMOOTH",
"411 7 OFFCURVE",
"435 -1 OFFCURVE",
"463 -1 CURVE SMOOTH"
);
},
{
closed = 1;
nodes = (
"104 0 LINE",
"104 670 LINE",
"64 670 LINE",
"64 0 LINE"
);
}
);
width = 472;
},
{
associatedMasterId = "FBD32BA2-3DE3-41DC-83E1-8A694E18FAAC";
layerId = "53469A38-594D-47E4-8680-790636ECD650";
name = "Jan 13 19, 00:14";
paths = (
{
closed = 1;
nodes = (
"539 -1 LINE",
"517 105 LINE SMOOTH",
"497 199 OFFCURVE",
"420 265 OFFCURVE",
"304 266 CURVE",
"304 272 LINE",
"408 272 OFFCURVE",
"475 322 OFFCURVE",
"495 397 CURVE SMOOTH",
"523 501 LINE",
"386 501 LINE SMOOTH",
"357 501 OFFCURVE",
"324 491 OFFCURVE",
"313 444 CURVE",
"303 400 LINE SMOOTH",
"292 350 OFFCURVE",
"271 328 OFFCURVE",
"217 328 CURVE",
"217 191 LINE",
"264 191 OFFCURVE",
"307 171 OFFCURVE",
"324 100 CURVE SMOOTH",
"335 53 LINE",
"342 16 OFFCURVE",
"363 -1 OFFCURVE",
"401 -1 CURVE SMOOTH"
);
},
{
closed = 1;
nodes = (
"228 0 LINE",
"228 670 LINE",
"44 670 LINE",
"44 0 LINE"
);
}
);
width = 539;
},
{
associatedMasterId = "061FC23D-6DC8-4BE4-BEC8-2F5AB93B127B";
layerId = "F97E8CB4-A744-4D45-B2D7-B76DBF47BD2E";
name = "Jan 13 19, 00:32";
paths = (
{
closed = 1;
nodes = (
"398 -1 LINE",
"304 216 LINE SMOOTH",
"289 250 OFFCURVE",
"255 269 OFFCURVE",
"225 269 CURVE",
"225 273 LINE",
"255 273 OFFCURVE",
"282 287 OFFCURVE",
"297 319 CURVE SMOOTH",
"382 500 LINE",
"381 500 LINE SMOOTH",
"344 500 OFFCURVE",
"324 488 OFFCURVE",
"314 467 CURVE SMOOTH",
"246 327 LINE SMOOTH",
"232 298 OFFCURVE",
"204 289 OFFCURVE",
"178 289 CURVE SMOOTH",
"80 289 LINE",
"80 251 LINE",
"177 251 LINE SMOOTH",
"213 251 OFFCURVE",
"242 240 OFFCURVE",
"255 209 CURVE SMOOTH",
"329 35 LINE SMOOTH",
"343 3 OFFCURVE",
"365 -1 OFFCURVE",
"393 -1 CURVE SMOOTH"
);
},
{
closed = 1;
nodes = (
"84 0 LINE",
"84 670 LINE",
"44 670 LINE",
"44 0 LINE"
);
}
);
width = 398;
},
{
associatedMasterId = "061FC23D-6DC8-4BE4-BEC8-2F5AB93B127B";
layerId = "64C73725-6C1E-4643-B41C-F25C81E4B125";
name = "Jan 14 19, 22:39";
paths = (
{
closed = 1;
nodes = (
"408 -1 LINE",
"260 223 LINE SMOOTH",
"239 254 OFFCURVE",
"204 269 OFFCURVE",
"164 269 CURVE",
"164 273 LINE",
"204 273 OFFCURVE",
"236 290 OFFCURVE",
"256 319 CURVE SMOOTH",
"382 500 LINE",
"381 500 LINE SMOOTH",
"343 500 OFFCURVE",
"325 493 OFFCURVE",
"307 467 CURVE SMOOTH",
"208 327 LINE SMOOTH",
"190 301 OFFCURVE",
"160 289 OFFCURVE",
"128 289 CURVE SMOOTH",
"80 289 LINE",
"80 251 LINE",
"137 251 LINE SMOOTH",
"176 251 OFFCURVE",
"200 236 OFFCURVE",
"218 209 CURVE SMOOTH",
"333 35 LINE SMOOTH",
"351 8 OFFCURVE",
"375 -1 OFFCURVE",
"403 -1 CURVE SMOOTH"
);
},
{
closed = 1;
nodes = (
"84 0 LINE",
"84 670 LINE",
"44 670 LINE",
"44 0 LINE"
);
}
);
width = 408;
},
{
associatedMasterId = "061FC23D-6DC8-4BE4-BEC8-2F5AB93B127B";
layerId = "05DD800A-0610-4F73-9C2A-B63C904D4A03";
name = "Jan 14 19, 22:46";
paths = (
{
closed = 1;
nodes = (
"408 -1 LINE",
"285 190 LINE SMOOTH",
"250 244 OFFCURVE",
"214 265 OFFCURVE",
"164 269 CURVE",
"164 273 LINE",
"210 276 OFFCURVE",
"246 305 OFFCURVE",
"272 343 CURVE SMOOTH",
"382 500 LINE",
"381 500 LINE SMOOTH",
"343 500 OFFCURVE",
"325 493 OFFCURVE",
"307 467 CURVE SMOOTH",
"233 361 LINE SMOOTH",
"201 315 OFFCURVE",
"160 289 OFFCURVE",
"108 289 CURVE SMOOTH",
"80 289 LINE",
"80 251 LINE",
"117 251 LINE SMOOTH",
"176 251 OFFCURVE",
"218 218 OFFCURVE",
"244 177 CURVE SMOOTH",
"333 35 LINE SMOOTH",
"351 7 OFFCURVE",
"375 -1 OFFCURVE",
"403 -1 CURVE SMOOTH"
);
},
{
closed = 1;
nodes = (
"84 0 LINE",
"84 670 LINE",
"44 670 LINE",
"44 0 LINE"
);
}
);
width = 408;
},
{
associatedMasterId = "061FC23D-6DC8-4BE4-BEC8-2F5AB93B127B";
layerId = "FD3A87E3-A4FF-42C9-8DF1-410D06BC327F";
name = "Jan 19 19, 15:52";
paths = (
{
closed = 1;
nodes = (
"408 -1 LINE",
"342 135 LINE SMOOTH",
"293 236 OFFCURVE",
"204 265 OFFCURVE",
"144 269 CURVE",
"144 273 LINE",
"204 279 OFFCURVE",
"269 312 OFFCURVE",
"319 395 CURVE SMOOTH",
"382 500 LINE",
"381 500 LINE SMOOTH",
"343 500 OFFCURVE",
"320 495 OFFCURVE",
"305 467 CURVE SMOOTH",
"278 415 LINE SMOOTH",
"219 302 OFFCURVE",
"160 289 OFFCURVE",
"88 289 CURVE SMOOTH",
"80 289 LINE",
"80 251 LINE",
"97 251 LINE SMOOTH",
"196 251 OFFCURVE",
"265 203 OFFCURVE",
"299 119 CURVE SMOOTH",
"333 35 LINE SMOOTH",
"346 3 OFFCURVE",
"375 -1 OFFCURVE",
"403 -1 CURVE SMOOTH"
);
},
{
closed = 1;
nodes = (
"84 0 LINE",
"84 670 LINE",
"44 670 LINE",
"44 0 LINE"
);
}
);
width = 408;
},
{
associatedMasterId = "061FC23D-6DC8-4BE4-BEC8-2F5AB93B127B";
layerId = "6D9BE529-365A-4F2D-938A-5E2789980DEA";
name = "Intermediate {100, 100}";
paths = (
{
closed = 1;
nodes = (
"503 -1 LINE",
"419 157 LINE SMOOTH",
"383 224 OFFCURVE",
"338 265 OFFCURVE",
"262 268 CURVE",
"262 273 LINE",
"331 274 OFFCURVE",
"379 312 OFFCURVE",
"402 364 CURVE SMOOTH",
"481 500 LINE",
"428 500 LINE SMOOTH",
"393 500 OFFCURVE",
"374 489 OFFCURVE",
"355 458 CURVE SMOOTH",
"305 376 LINE SMOOTH",
"277 330 OFFCURVE",
"247 304 OFFCURVE",
"176 304 CURVE SMOOTH",
"141 304 LINE",
"141 228 LINE",
"182 228 LINE SMOOTH",
"254 228 OFFCURVE",
"291 197 OFFCURVE",
"319 147 CURVE SMOOTH",
"378 42 LINE SMOOTH",
"395 12 OFFCURVE",
"415 -1 OFFCURVE",
"447 -1 CURVE SMOOTH"
);
},
{
closed = 1;
nodes = (
"152 0 LINE",
"152 670 LINE",
"56 670 LINE",
"56 0 LINE"
);
}
);
width = 505;
}
);
leftKerningGroup = lowcaseStraight;
leftMetricsKey = n;
rightMetricsKey = v;
unicode = 006B;
},
{
color = 0;
glyphname = l;
lastChange = "2019-02-04 09:08:32 +0000";
layers = (
{
layerId = "FBD32BA2-3DE3-41DC-83E1-8A694E18FAAC";
paths = (
{
closed = 1;
nodes = (
"228 0 LINE",
"228 670 LINE",
"44 670 LINE",
"44 0 LINE"
);
}
);
width = 274;
},
{
layerId = "061FC23D-6DC8-4BE4-BEC8-2F5AB93B127B";
paths = (
{
closed = 1;
nodes = (
"104 0 LINE",
"104 670 LINE",
"64 670 LINE",
"64 0 LINE"
);
}
);
width = 170;
}
);
leftKerningGroup = lowcaseStraight;
leftMetricsKey = n;
rightKerningGroup = lowcaseStraight;
rightMetricsKey = n;
unicode = 006C;
},
{
color = 0;
glyphname = m;
lastChange = "2019-02-04 09:08:32 +0000";
layers = (
{
background = {
paths = (
{
closed = 1;
nodes = (
"844 0 LINE",
"844 330 LINE SMOOTH",
"844 434 OFFCURVE",
"797 516 OFFCURVE",
"677 516 CURVE SMOOTH",
"610 516 OFFCURVE",
"543 487 OFFCURVE",
"514 409 CURVE",
"514 300 LINE",
"524 300 LINE",
"524 364 OFFCURVE",
"549 415 OFFCURVE",
"618 415 CURVE SMOOTH",
"652 415 OFFCURVE",
"688 400 OFFCURVE",
"688 310 CURVE",
"688 0 LINE"
);
},
{
closed = 1;
nodes = (
"204 0 LINE",
"204 391 LINE",
"194 403 LINE",
"194 500 LINE",
"48 500 LINE",
"48 0 LINE"
);
},
{
closed = 1;
nodes = (
"524 0 LINE",
"524 330 LINE SMOOTH",
"524 434 OFFCURVE",
"477 516 OFFCURVE",
"357 516 CURVE SMOOTH",
"290 516 OFFCURVE",
"223 487 OFFCURVE",
"194 409 CURVE",
"194 300 LINE",
"204 300 LINE",
"204 364 OFFCURVE",
"229 415 OFFCURVE",
"298 415 CURVE SMOOTH",
"332 415 OFFCURVE",
"368 400 OFFCURVE",
"368 310 CURVE",
"368 0 LINE"
);
}
);
};
components = (
{
name = _shoulder;
transform = "{1, 0, 0, 1, 12, 0}";
},
{
name = _shoulder;
transform = "{1, 0, 0, 1, 316, 0}";
}
);
layerId = "FBD32BA2-3DE3-41DC-83E1-8A694E18FAAC";
paths = (
{
closed = 1;
nodes = (
"228 0 LINE",
"228 381 LINE",
"218 393 LINE",
"218 500 LINE",
"44 500 LINE",
"44 0 LINE"
);
}
);
width = 882;
},
{
associatedMasterId = "FBD32BA2-3DE3-41DC-83E1-8A694E18FAAC";
background = {
paths = (
{
closed = 1;
nodes = (
"836 0 LINE",
"836 330 LINE SMOOTH",
"836 434 OFFCURVE",
"789 516 OFFCURVE",
"669 516 CURVE SMOOTH",
"602 516 OFFCURVE",
"535 487 OFFCURVE",
"506 409 CURVE",
"506 300 LINE",
"516 300 LINE",
"516 364 OFFCURVE",
"541 415 OFFCURVE",
"610 415 CURVE SMOOTH",
"644 415 OFFCURVE",
"680 400 OFFCURVE",
"680 310 CURVE",
"680 0 LINE"
);
},
{
closed = 1;
nodes = (
"196 0 LINE",
"196 391 LINE",
"186 403 LINE",
"186 500 LINE",
"40 500 LINE",
"40 0 LINE"
);
},
{
closed = 1;
nodes = (
"516 0 LINE",
"516 330 LINE SMOOTH",
"516 434 OFFCURVE",
"469 516 OFFCURVE",
"349 516 CURVE SMOOTH",
"282 516 OFFCURVE",
"215 487 OFFCURVE",
"186 409 CURVE",
"186 300 LINE",
"196 300 LINE",
"196 364 OFFCURVE",
"221 415 OFFCURVE",
"290 415 CURVE SMOOTH",
"324 415 OFFCURVE",
"360 400 OFFCURVE",
"360 310 CURVE",
"360 0 LINE"
);
}
);
};
layerId = "D65CD861-A782-4085-A1FA-D3D251F51529";
name = "Apr 12 18, 13:52";
paths = (
{
closed = 1;
nodes = (
"520 0 LINE",
"520 330 LINE SMOOTH",
"520 434 OFFCURVE",
"473 516 OFFCURVE",
"356 516 CURVE SMOOTH",
"286 516 OFFCURVE",
"229 487 OFFCURVE",
"200 409 CURVE",
"190 300 LINE",
"220 300 LINE",
"220 364 OFFCURVE",
"241 415 OFFCURVE",
"293 415 CURVE SMOOTH",
"324 415 OFFCURVE",
"344 397 OFFCURVE",
"344 310 CURVE",
"344 0 LINE"
);
},
{
closed = 1;
nodes = (
"820 0 LINE",
"820 330 LINE SMOOTH",
"820 434 OFFCURVE",
"773 516 OFFCURVE",
"656 516 CURVE SMOOTH",
"586 516 OFFCURVE",
"529 487 OFFCURVE",
"500 409 CURVE",
"490 300 LINE",
"520 300 LINE",
"520 364 OFFCURVE",
"541 415 OFFCURVE",
"593 415 CURVE SMOOTH",
"624 415 OFFCURVE",
"644 397 OFFCURVE",
"644 310 CURVE",
"644 0 LINE"
);
},
{
closed = 1;
nodes = (
"220 0 LINE",
"220 381 LINE",
"210 393 LINE",
"210 500 LINE",
"36 500 LINE",
"36 0 LINE"
);
}
);
width = 866;
},
{
background = {
paths = (
{
closed = 1;
nodes = (
"976 0 LINE",
"976 330 LINE SMOOTH",
"976 434 OFFCURVE",
"929 516 OFFCURVE",
"809 516 CURVE SMOOTH",
"742 516 OFFCURVE",
"675 487 OFFCURVE",
"646 409 CURVE",
"646 300 LINE",
"656 300 LINE",
"656 364 OFFCURVE",
"681 415 OFFCURVE",
"750 415 CURVE SMOOTH",
"784 415 OFFCURVE",
"820 400 OFFCURVE",
"820 310 CURVE",
"820 0 LINE"
);
},
{
closed = 1;
nodes = (
"336 0 LINE",
"336 391 LINE",
"326 403 LINE",
"326 500 LINE",
"180 500 LINE",
"180 0 LINE"
);
},
{
closed = 1;
nodes = (
"656 0 LINE",
"656 330 LINE SMOOTH",
"656 434 OFFCURVE",
"609 516 OFFCURVE",
"489 516 CURVE SMOOTH",
"422 516 OFFCURVE",
"355 487 OFFCURVE",
"326 409 CURVE",
"326 300 LINE",
"336 300 LINE",
"336 364 OFFCURVE",
"361 415 OFFCURVE",
"430 415 CURVE SMOOTH",
"464 415 OFFCURVE",
"500 400 OFFCURVE",
"500 310 CURVE",
"500 0 LINE"
);
}
);
};
components = (
{
name = _shoulder;
transform = "{1, 0, 0, 1, 100, 0}";
},
{
name = _shoulder;
transform = "{1, 0, 0, 1, 490, 0}";
}
);
layerId = "061FC23D-6DC8-4BE4-BEC8-2F5AB93B127B";
paths = (
{
closed = 1;
nodes = (
"104 0 LINE",
"104 325 LINE",
"100 341 LINE",
"100 500 LINE",
"64 500 LINE",
"64 0 LINE"
);
}
);
width = 956;
},
{
associatedMasterId = "061FC23D-6DC8-4BE4-BEC8-2F5AB93B127B";
background = {
paths = (
{
closed = 1;
nodes = (
"836 0 LINE",
"836 330 LINE SMOOTH",
"836 434 OFFCURVE",
"789 516 OFFCURVE",
"669 516 CURVE SMOOTH",
"602 516 OFFCURVE",
"535 487 OFFCURVE",
"506 409 CURVE",
"506 300 LINE",
"516 300 LINE",
"516 364 OFFCURVE",
"541 415 OFFCURVE",
"610 415 CURVE SMOOTH",
"644 415 OFFCURVE",
"680 400 OFFCURVE",
"680 310 CURVE",
"680 0 LINE"
);
},
{
closed = 1;
nodes = (
"196 0 LINE",
"196 391 LINE",
"186 403 LINE",
"186 500 LINE",
"40 500 LINE",
"40 0 LINE"
);
},
{
closed = 1;
nodes = (
"516 0 LINE",
"516 330 LINE SMOOTH",
"516 434 OFFCURVE",
"469 516 OFFCURVE",
"349 516 CURVE SMOOTH",
"282 516 OFFCURVE",
"215 487 OFFCURVE",
"186 409 CURVE",
"186 300 LINE",
"196 300 LINE",
"196 364 OFFCURVE",
"221 415 OFFCURVE",
"290 415 CURVE SMOOTH",
"324 415 OFFCURVE",
"360 400 OFFCURVE",
"360 310 CURVE",
"360 0 LINE"
);
}
);
};
layerId = "F7DD645F-9A98-48A1-AC20-E1550B2B6A2E";
name = "Apr 12 18, 13:52";
paths = (
{
closed = 1;
nodes = (
"520 0 LINE",
"520 330 LINE SMOOTH",
"520 434 OFFCURVE",
"473 516 OFFCURVE",
"356 516 CURVE SMOOTH",
"286 516 OFFCURVE",
"229 487 OFFCURVE",
"200 409 CURVE",
"190 300 LINE",
"220 300 LINE",
"220 364 OFFCURVE",
"241 415 OFFCURVE",
"293 415 CURVE SMOOTH",
"324 415 OFFCURVE",
"344 397 OFFCURVE",
"344 310 CURVE",
"344 0 LINE"
);
},
{
closed = 1;
nodes = (
"820 0 LINE",
"820 330 LINE SMOOTH",
"820 434 OFFCURVE",
"773 516 OFFCURVE",
"656 516 CURVE SMOOTH",
"586 516 OFFCURVE",
"529 487 OFFCURVE",
"500 409 CURVE",
"490 300 LINE",
"520 300 LINE",
"520 364 OFFCURVE",
"541 415 OFFCURVE",
"593 415 CURVE SMOOTH",
"624 415 OFFCURVE",
"644 397 OFFCURVE",
"644 310 CURVE",
"644 0 LINE"
);
},
{
closed = 1;
nodes = (
"220 0 LINE",
"220 381 LINE",
"210 393 LINE",
"210 500 LINE",
"36 500 LINE",
"36 0 LINE"
);
}
);
width = 866;
}
);
leftKerningGroup = lowcaseStraight;
leftMetricsKey = n;
rightKerningGroup = shoulder;
rightMetricsKey = n;
unicode = 006D;
},
{
color = 0;
glyphname = n;
lastChange = "2019-02-04 09:08:16 +0000";
layers = (
{
components = (
{
name = _shoulder;
transform = "{1, 0, 0, 1, 12, 0}";
}
);
layerId = "FBD32BA2-3DE3-41DC-83E1-8A694E18FAAC";
paths = (
{
closed = 1;
nodes = (
"228 0 LINE",
"228 381 LINE",
"218 393 LINE",
"218 500 LINE",
"44 500 LINE",
"44 0 LINE"
);
}
);
width = 578;
},
{
components = (
{
name = _shoulder;
transform = "{1, 0, 0, 1, 100, 0}";
}
);
layerId = "061FC23D-6DC8-4BE4-BEC8-2F5AB93B127B";
paths = (
{
closed = 1;
nodes = (
"104 0 LINE",
"104 325 LINE",
"100 341 LINE",
"100 500 LINE",
"64 500 LINE",
"64 0 LINE"
);
}
);
width = 566;
}
);
leftKerningGroup = lowcaseStraight;
rightKerningGroup = shoulder;
unicode = 006E;
},
{
color = 1;
glyphname = o;
lastChange = "2019-02-05 08:15:24 +0000";
layers = (
{
anchors = (
{
name = top;
position = "{296, 516}";
}
);
layerId = "FBD32BA2-3DE3-41DC-83E1-8A694E18FAAC";
paths = (
{
closed = 1;
nodes = (
"456 -16 OFFCURVE",
"568 94 OFFCURVE",
"568 251 CURVE SMOOTH",
"568 406 OFFCURVE",
"456 516 OFFCURVE",
"296 516 CURVE SMOOTH",
"136 516 OFFCURVE",
"24 408 OFFCURVE",
"24 251 CURVE SMOOTH",
"24 94 OFFCURVE",
"136 -16 OFFCURVE",
"296 -16 CURVE SMOOTH"
);
},
{
closed = 1;
nodes = (
"233 135 OFFCURVE",
"189 182 OFFCURVE",
"189 251 CURVE SMOOTH",
"189 319 OFFCURVE",
"233 365 OFFCURVE",
"296 365 CURVE SMOOTH",
"359 365 OFFCURVE",
"403 318 OFFCURVE",
"403 251 CURVE SMOOTH",
"403 182 OFFCURVE",
"359 135 OFFCURVE",
"296 135 CURVE SMOOTH"
);
}
);
width = 592;
},
{
associatedMasterId = "FBD32BA2-3DE3-41DC-83E1-8A694E18FAAC";
layerId = "9F6753E2-4BB9-42A9-BA87-485E20705953";
name = "Jul 31 18, 00:03";
paths = (
{
closed = 1;
nodes = (
"389 -16 OFFCURVE",
"524 49 OFFCURVE",
"524 230 CURVE SMOOTH",
"524 270 LINE SMOOTH",
"524 451 OFFCURVE",
"389 516 OFFCURVE",
"276 516 CURVE SMOOTH",
"163 516 OFFCURVE",
"28 451 OFFCURVE",
"28 270 CURVE SMOOTH",
"28 230 LINE SMOOTH",
"28 49 OFFCURVE",
"163 -16 OFFCURVE",
"276 -16 CURVE SMOOTH"
);
},
{
closed = 1;
nodes = (
"237 104 OFFCURVE",
"212 134 OFFCURVE",
"212 199 CURVE SMOOTH",
"212 299 LINE SMOOTH",
"212 364 OFFCURVE",
"237 396 OFFCURVE",
"276 396 CURVE SMOOTH",
"315 396 OFFCURVE",
"340 364 OFFCURVE",
"340 299 CURVE SMOOTH",
"340 199 LINE SMOOTH",
"340 134 OFFCURVE",
"315 104 OFFCURVE",
"276 104 CURVE SMOOTH"
);
}
);
width = 552;
},
{
anchors = (
{
name = top;
position = "{282, 500}";
}
);
layerId = "061FC23D-6DC8-4BE4-BEC8-2F5AB93B127B";
paths = (
{
closed = 1;
nodes = (
"432 -8 OFFCURVE",
"532 97 OFFCURVE",
"532 251 CURVE SMOOTH",
"532 403 OFFCURVE",
"432 508 OFFCURVE",
"282 508 CURVE SMOOTH",
"132 508 OFFCURVE",
"32 405 OFFCURVE",
"32 251 CURVE SMOOTH",
"32 97 OFFCURVE",
"132 -8 OFFCURVE",
"282 -8 CURVE SMOOTH"
);
},
{
closed = 1;
nodes = (
"156 30 OFFCURVE",
"72 117 OFFCURVE",
"72 250 CURVE SMOOTH",
"72 381 OFFCURVE",
"155 470 OFFCURVE",
"282 470 CURVE SMOOTH",
"408 470 OFFCURVE",
"492 381 OFFCURVE",
"492 250 CURVE SMOOTH",
"492 119 OFFCURVE",
"408 30 OFFCURVE",
"282 30 CURVE SMOOTH"
);
}
);
width = 564;
},
{
associatedMasterId = "061FC23D-6DC8-4BE4-BEC8-2F5AB93B127B";
layerId = "6A941305-8B6C-4E98-AD29-76992471F1A9";
name = "Jul 31 18, 00:03";
paths = (
{
closed = 1;
nodes = (
"389 -16 OFFCURVE",
"524 49 OFFCURVE",
"524 230 CURVE SMOOTH",
"524 270 LINE SMOOTH",
"524 451 OFFCURVE",
"389 516 OFFCURVE",
"276 516 CURVE SMOOTH",
"163 516 OFFCURVE",
"28 451 OFFCURVE",
"28 270 CURVE SMOOTH",
"28 230 LINE SMOOTH",
"28 49 OFFCURVE",
"163 -16 OFFCURVE",
"276 -16 CURVE SMOOTH"
);
},
{
closed = 1;
nodes = (
"237 104 OFFCURVE",
"212 134 OFFCURVE",
"212 199 CURVE SMOOTH",
"212 299 LINE SMOOTH",
"212 364 OFFCURVE",
"237 396 OFFCURVE",
"276 396 CURVE SMOOTH",
"315 396 OFFCURVE",
"340 364 OFFCURVE",
"340 299 CURVE SMOOTH",
"340 199 LINE SMOOTH",
"340 134 OFFCURVE",
"315 104 OFFCURVE",
"276 104 CURVE SMOOTH"
);
}
);
width = 552;
}
);
leftKerningGroup = rounded;
rightKerningGroup = rounded;
unicode = 006F;
},
{
color = 8;
glyphname = p;
lastChange = "2019-04-01 09:37:40 +0000";
layers = (
{
components = (
{
name = bowl;
transform = "{-1, 0, 0, 1, 650, 0}";
}
);
layerId = "FBD32BA2-3DE3-41DC-83E1-8A694E18FAAC";
paths = (
{
closed = 1;
nodes = (
"228 -180 LINE",
"228 337 LINE",
"218 349 LINE",
"218 500 LINE",
"44 500 LINE",
"44 -180 LINE"
);
}
);
width = 650;
},
{
components = (
{
name = bowl;
transform = "{-1, 0, 0, 1, 556, 0}";
}
);
layerId = "061FC23D-6DC8-4BE4-BEC8-2F5AB93B127B";
paths = (
{
closed = 1;
nodes = (
"104 -160 LINE",
"104 337 LINE",
"100 349 LINE",
"100 500 LINE",
"64 500 LINE",
"64 -160 LINE"
);
}
);
width = 588;
}
);
leftKerningGroup = lowcaseStraight;
leftMetricsKey = n;
rightKerningGroup = rounded;
rightMetricsKey = o;
unicode = 0070;
},
{
color = 8;
glyphname = q;
lastChange = "2019-04-01 09:37:38 +0000";
layers = (
{
components = (
{
name = bowl;
}
);
layerId = "FBD32BA2-3DE3-41DC-83E1-8A694E18FAAC";
paths = (
{
closed = 1;
nodes = (
"606 -180 LINE",
"606 500 LINE",
"432 500 LINE",
"432 329 LINE",
"422 317 LINE",
"422 -180 LINE"
);
}
);
width = 652;
},
{
components = (
{
name = bowl;
transform = "{1, 0, 0, 1, 32, 0}";
}
);
layerId = "061FC23D-6DC8-4BE4-BEC8-2F5AB93B127B";
paths = (
{
closed = 1;
nodes = (
"524 -160 LINE",
"524 500 LINE",
"488 500 LINE",
"488 329 LINE",
"484 317 LINE",
"484 -160 LINE"
);
}
);
width = 590;
}
);
leftKerningGroup = rounded;
leftMetricsKey = o;
rightKerningGroup = lowcaseStraight;
rightMetricsKey = n;
unicode = 0071;
},
